<?xml version="1.0" standalone="no"?>
<!DOCTYPE svg PUBLIC "-//W3C//DTD SVG 1.1//EN" "http://www.w3.org/Graphics/SVG/1.1/DTD/svg11.dtd" >
<svg xmlns="http://www.w3.org/2000/svg" xmlns:xlink="http://www.w3.org/1999/xlink" version="1.1">
<metadata></metadata>
<defs>
<font id="channel_slanted_1regular" horiz-adv-x="1254" >
<font-face units-per-em="2048" ascent="1536" descent="-512" />
<missing-glyph horiz-adv-x="1280" />
<glyph horiz-adv-x="0" />
<glyph unicode="&#xd;" horiz-adv-x="1280" />
<glyph unicode=" "  horiz-adv-x="1280" />
<glyph unicode="&#x09;" horiz-adv-x="1280" />
<glyph unicode="&#xa0;" horiz-adv-x="1280" />
<glyph unicode="!" horiz-adv-x="678" d="M136 133q-13 -74 34.5 -125.5t121.5 -48.5t133 56.5t72 127.5t-32 127t-119 50q-77 -3 -137 -58t-73 -129zM359.5 888q-1.5 100 27.5 269q26 169 62.5 345.5t76.5 331.5t81 273t79 169q36 49 95 65.5t110 -5.5t80.5 -84.5t6.5 -172.5q-18 -74 -63 -188t-102.5 -248.5 t-122.5 -278t-123 -278t-100 -247t-55 -186.5q-26 23 -38 84q-13 51 -14.5 151z" />
<glyph unicode="&#x22;" horiz-adv-x="652" d="M251 1623q26 74 93.5 119t141.5 32q79 -13 116 -77q36 41 87 63t105 14q72 -10 110 -70t15 -135q-13 -61 -46 -121t-71.5 -110t-74.5 -87.5t-59 -57.5t-46 -21.5t-36 11.5t-10 36t33 51q36 31 36 75.5t-5 82.5q-33 15 -61 44q-23 -49 -52.5 -92.5t-60.5 -79t-59 -64 t-46 -43.5q-23 -20 -46 -21.5t-36 11.5t-10.5 36t33.5 51q36 31 36 75.5t-5 82.5q-56 20 -79 74t-3 121z" />
<glyph unicode="#" d="M177 266q-15 28 2 64q131 -13 261.5 -11.5t249.5 6.5t221.5 9t171.5 -4q69 -5 91 -26.5t13 -44.5t-44 -41t-75 -18h-172t-162.5 1t-164 1h-175.5q-110 0 -157.5 19.5t-59.5 44.5zM256 -20q36 131 57.5 262.5t38.5 250.5t30 218.5t33 171.5q18 72 75.5 111.5t116.5 50 t103.5 -6.5t37.5 -58q-15 -90 -29.5 -171.5t-30 -162t-30.5 -164t-31 -175.5q-20 -110 -79 -174t-126 -100q-77 -41 -166 -53zM279 771q-15 28 3 64q131 -13 261 -12t249 6.5t221.5 9.5t171.5 -4q69 -5 91 -27t13 -45t-43.5 -41t-75.5 -18h-172t-162.5 1.5t-163.5 1.5h-175 q-110 0 -157.5 19t-60.5 45zM712 -20q36 131 57.5 262.5t38 250.5t29.5 218.5t33 171.5q18 72 76 111.5t116.5 50t103.5 -6.5t37 -58q-15 -90 -29 -171.5t-29.5 -162t-31 -164t-30.5 -175.5q-20 -110 -79 -174t-126 -100q-77 -41 -166 -53z" />
<glyph unicode="$" horiz-adv-x="3036" d="M253 366q10 56 42.5 89.5t73.5 47.5t84.5 9t76.5 -28q28 -20 34.5 -64t-10 -90t-60 -88t-113.5 -60q18 -46 87.5 -87t164 -74.5t202 -52.5t202.5 -19q156 0 295.5 34.5t238 91t148.5 130.5t27 154.5t-130.5 161.5t-317.5 152q-15 -26 -43.5 -39.5t-56.5 -13.5 q-41 0 -62.5 26.5t-14.5 67.5l3 13q-205 61 -358.5 122.5t-249.5 138.5t-134.5 177t-15.5 238q15 90 69 166.5t134.5 136.5t183 107.5t212.5 79.5t224 51.5t219 24.5q-8 13 -3 41q5 33 29.5 54.5t57.5 21.5t51.5 -21.5t12.5 -54.5q-3 -18 -17 -39q148 -5 264.5 -35.5 t196 -80.5t119 -114t39.5 -136q0 -74 -25.5 -124t-64 -83.5t-86 -47.5t-88.5 -14q-64 0 -98.5 43.5t-23.5 95.5q10 54 60 97t119 43q26 0 48.5 -9t43.5 -21q23 -13 41 -31q20 102 -33 184q-23 33 -65.5 68t-109 60.5t-164 42t-230.5 16.5q-172 0 -331.5 -36t-278.5 -96 t-180.5 -138t-34.5 -161t158.5 -165t397.5 -151q15 20 39.5 34t53.5 14q38 0 62.5 -27t19.5 -65q172 -46 304.5 -107.5t221 -142t124.5 -185.5t13 -238q-26 -143 -106.5 -248t-202.5 -174.5t-279 -102.5t-334 -36q18 -20 13 -54q-5 -31 -31 -53.5t-59 -22.5t-49.5 23 t-11.5 53q8 33 33 57q-166 8 -313.5 45t-255 97t-163.5 142t-39 179z" />
<glyph unicode="%" horiz-adv-x="1280" d="M-33 -51q205 238 403 480t376 463.5t330 408t265 314.5q110 128 173 189.5t82 68t-5 -35.5t-88 -119q-136 -164 -259 -315t-245.5 -299.5t-250.5 -302t-269 -322.5q-169 -202 -269 -310t-154 -156q-64 -59 -89 -64zM315 1518q10 54 39.5 102.5t71.5 85.5t94.5 57.5 t106.5 20.5t99 -20.5t75.5 -57.5t43.5 -85.5t2 -102.5q-10 -54 -39.5 -102.5t-71.5 -85.5t-94.5 -57.5t-106.5 -20.5t-98.5 20.5t-75.5 57.5t-43.5 85.5t-2.5 102.5zM502 1498q-13 -72 20.5 -122t91.5 -50q59 0 110.5 50t63.5 122q13 72 -21.5 121.5t-93.5 49.5 t-108.5 -49.5t-62.5 -121.5zM745 328q10 54 39.5 102.5t72 85.5t95 57.5t105.5 20.5q54 0 99 -20.5t75.5 -57.5t43.5 -86t2 -102q-10 -54 -39.5 -102.5t-71.5 -86t-94.5 -58t-106.5 -20.5t-98.5 20.5t-75.5 58t-43.5 86t-2.5 102.5zM932 307q-13 -72 20.5 -121.5t91.5 -49.5 q59 0 110.5 50t64.5 121q13 72 -22 122t-94 50t-108.5 -50t-62.5 -122z" />
<glyph unicode="&#x26;" horiz-adv-x="2465" d="M31 -288q-36 193 17.5 413.5t206 456t418.5 462.5q-113 189 -120.5 370t58 339.5t189.5 290.5t276.5 226.5t317.5 147t314 52.5q138 0 230 -37t151 -94.5t87 -132t37 -150t1.5 -143t-18.5 -116.5q0 -10 1.5 -19t-3.5 -22q-8 -46 -32 -85.5t-60 -70.5t-79.5 -47.5 t-89.5 -16.5q-92 0 -146 64t-39 156q8 46 33.5 87t61.5 70.5t79.5 47.5t89.5 18q51 0 95 -23q3 69 -10 143t-59 133t-136 97.5t-238 38.5q-118 0 -220.5 -60t-184 -157.5t-139.5 -221.5t-86 -254.5t-24 -253.5t48.5 -219t130.5 -153.5t222 -52.5q61 0 88 -18t23 -38.5 t-36 -38.5t-86 -18q-195 0 -348 -70.5t-267 -184t-186 -259.5t-101.5 -298.5t-15 -298.5t74.5 -260t165 -184t256 -70q113 0 210 55t177.5 142t144.5 192t110.5 203.5t75.5 179t40 116.5q15 54 35.5 78t36 19t19 -39.5t-14.5 -98.5q-13 -41 -48.5 -135.5t-94.5 -210 t-139.5 -239.5t-183 -226.5t-224 -168t-259.5 -65.5q-225 0 -400.5 84.5t-285.5 229.5t-146 338zM1047 934q-15 10 13 16.5t80.5 12t123 11.5t139.5 19t129 35t94 57q100 113 184 201.5t135.5 110t64 -45t-28.5 -260.5q72 -15 141 -34.5t125.5 -39t96 -33.5t52.5 -14 q20 0 37 6.5t31 13t27 7.5t25 -9q13 -10 10.5 -24t-29.5 -39.5t-80.5 -68t-145.5 -106.5q-74 -54 -165 -48.5t-186 38.5q-13 -95 -22 -179.5t-14 -156.5q-5 -195 37.5 -313.5t129.5 -118.5q44 0 102.5 36t112.5 79q64 49 130 115q15 13 28 23q28 18 49 3q23 -20 6.5 -35.5 t-24.5 -26.5q-3 -3 -29.5 -36t-72.5 -77.5t-106.5 -97t-132 -97.5t-152 -74.5t-162.5 -29.5q-84 0 -139.5 37t-90 95t-51 131t-22 144.5t-1.5 137t12 105.5q8 41 29.5 170.5t52.5 298.5q-20 5 -76.5 10t-119.5 7.5t-116.5 1.5t-69.5 -4q-90 -26 -120.5 -24.5t-35.5 13 t1.5 29.5t-6.5 28z" />
<glyph unicode="'" horiz-adv-x="0" d="M-259 1623q26 74 94 119t142 32q69 -10 107.5 -70t15.5 -135q-13 -61 -45 -121t-70.5 -110t-74 -87.5t-58.5 -57.5t-46.5 -21.5t-36 11.5t-10 36t33.5 51q36 31 35.5 75.5t-5.5 82.5q-56 20 -79 74t-3 121z" />
<glyph unicode="(" horiz-adv-x="757" d="M113 374q-15 144 18 310q33 164 102 297t156 235t180.5 176.5t174 124.5t138.5 76.5t73 34.5q23 10 44.5 13t36 -2.5t13 -15.5t-27.5 -26q-28 -15 -102 -76.5t-161 -174t-168 -277.5t-119 -385t-24 -408.5t49.5 -330.5t76.5 -231.5t57 -110.5q15 -20 15 -39.5t-9 -31 t-28 -9t-45 23.5q-18 13 -65 57.5t-106 115t-119.5 169t-102.5 220t-57 265.5z" />
<glyph unicode=")" horiz-adv-x="757" d="M-36 -459.5q-5 11.5 2.5 30.5t30.5 40q20 20 92 108.5t158 230.5t166.5 329t118.5 407t15.5 384t-68.5 276.5t-98.5 174t-73.5 76.5q-23 15 -20.5 25.5t18 16t38.5 2.5t41 -13q13 -8 60.5 -34.5t110 -76.5t129 -124.5t117.5 -176.5t74.5 -234t-2.5 -296t-91 -308.5 t-149.5 -265t-179.5 -217.5t-179.5 -167.5t-147 -114t-85.5 -58.5q-33 -20 -52.5 -23t-24.5 8.5z" />
<glyph unicode="*" horiz-adv-x="785" d="M207 960q79 0 160 9t154 20.5t134 20.5t105 9q41 3 63 -25.5t25.5 -63t-8 -64t-36.5 -29.5q-110 -13 -203.5 -22t-208.5 -19q-67 -8 -104 16.5t-55 57.5q-20 38 -26 90zM243 668q59 64 113 130.5t100 129.5t84 115.5t69 88.5q31 33 70.5 38t71.5 -8t46.5 -37t-3.5 -45 q-74 -92 -137 -170t-142 -173q-44 -59 -91.5 -76.5t-88.5 -15.5q-46 3 -92 23zM321 1052.5q9 38.5 34.5 69t55 44.5t45.5 -4q67 -74 121.5 -138t123.5 -138q38 -46 38.5 -93.5t-15.5 -88.5q-18 -46 -53 -92q-44 61 -92.5 115t-94.5 100t-86 85.5t-63 70.5t-14 69.5z" />
<glyph unicode="+" d="M87 835q131 -13 261.5 -12t249.5 6.5t221.5 9.5t171.5 -4q69 -5 99.5 -55t32 -108t-24 -105t-66.5 -47h-172t-162.5 1t-163.5 1h-176q-110 0 -166 49t-79 107q-28 67 -26 157zM369 131q36 131 59 262.5t39.5 250.5t29.5 218.5t33 171.5q18 72 74 111.5t116.5 50t104 -6.5 t35.5 -57q-15 -90 -29 -172t-29.5 -162.5t-31 -164t-30.5 -175.5q-20 -110 -79 -174t-126 -100q-77 -41 -166 -53z" />
<glyph unicode="," horiz-adv-x="558" d="M248 445q26 74 94 119t142 32q36 -5 64 -22.5t44.5 -46t22 -63t-7.5 -72.5q-13 -61 -45 -121.5t-70.5 -110.5t-74.5 -87t-59 -58q-23 -20 -46 -21.5t-35.5 11.5t-10 36t33.5 51q36 31 35.5 75.5t-5.5 83.5q-56 20 -79 73.5t-3 120.5z" />
<glyph unicode="-" d="M87 835q131 -13 261.5 -12t249.5 6.5t221.5 9.5t171.5 -4q69 -5 99.5 -55t32 -108t-24 -105t-66.5 -47h-172t-162.5 1t-163.5 1h-176q-110 0 -166 49t-79 107q-28 67 -26 157z" />
<glyph unicode="." horiz-adv-x="537" d="M218 412q13 74 74 129t136 58q74 3 118.5 -49.5t34.5 -127.5q-13 -74 -73 -127.5t-134 -56.5t-121.5 48.5t-34.5 125.5z" />
<glyph unicode="/" d="M-113 -340q205 238 403.5 479.5t376.5 463t330 408.5t265 315q110 128 173 189.5t82 68t-5.5 -36t-88.5 -119.5q-136 -164 -258.5 -314.5t-245.5 -299t-249.5 -302.5t-267.5 -323q-166 -202 -266 -309.5t-156 -155.5q-67 -59 -93 -64z" />
<glyph unicode="0" horiz-adv-x="1354" d="M99.5 382.5q-20.5 126.5 5.5 272.5t92.5 275.5t157 225.5t201 151t225.5 55t206 -55t150 -151t80.5 -225.5t-4.5 -275.5t-92 -272.5t-159.5 -222.5t-203.5 -151t-226 -55q-115 0 -205.5 55t-148.5 151t-78.5 222.5zM481 607q-8 -108 9 -197.5t55.5 -152t93.5 -93.5 t124 -21t134.5 61.5t116.5 128.5t87 174t48 205q10 108 -6.5 198.5t-54.5 153t-94.5 94.5t-125.5 22q-69 -13 -134.5 -62.5t-116.5 -126.5t-88 -177t-48 -207z" />
<glyph unicode="1" horiz-adv-x="1169" d="M160.5 919q6.5 18 26.5 33q15 10 52 43.5t87 77t106.5 91t111.5 87t102.5 65t77.5 25.5q44 0 89 -24t78 -64t51 -91t8 -102q-5 -33 -20.5 -128t-36 -218t-45 -258.5t-48.5 -252t-48.5 -198.5t-42.5 -97q-31 -23 -91 -18t-119 28t-103.5 61.5t-44.5 81.5q0 28 18 113 t43.5 195t53.5 229t46 218.5t22 165t-17 65.5q-33 0 -74 -18t-80.5 -42t-75.5 -50t-59 -44q-26 -18 -42.5 -16.5t-24 13t-1 29.5z" />
<glyph unicode="2" horiz-adv-x="1374" d="M44 180.5q0 52.5 12 70.5q10 18 37 25.5t85 19t151 34.5t237 74q108 38 175.5 103.5t99.5 140t33.5 151.5t-22 138t-68 99.5t-103.5 38.5q-87 0 -153.5 -20.5t-116.5 -47.5t-83.5 -53.5t-48.5 -39.5q-28 -20 -43.5 -19t-20.5 12.5t-2.5 27t12.5 22.5q8 8 67 62t148.5 119 t197 121.5t211 66.5t192 -43.5t139.5 -209.5q38 -110 21.5 -203.5t-69 -169t-131.5 -137t-167.5 -109t-178 -82t-161.5 -60t-118 -39.5t-48 -22q-5 -10 47.5 -15.5t133 -8t176.5 -2.5t180.5 -1t146 -3.5t71.5 -10.5q15 -10 6 -46t-29.5 -77t-47 -79.5t-44.5 -56.5 q-13 -10 -77 -17.5t-153.5 -12.5t-192 -6.5t-193.5 -1.5t-156 2.5t-78 7.5q-20 5 -37 50t-27 100t-10 107.5z" />
<glyph unicode="3" horiz-adv-x="1256" d="M38.5 207.5q2.5 12.5 11.5 21.5t23 9t32 -18q10 -10 33 -32t61.5 -45t95 -39.5t138.5 -16.5q56 0 113.5 36t98.5 93.5t60 125.5t4 134q-13 31 -33.5 49t-40.5 28q-26 10 -49 15q-33 0 -55 8t-16 23q3 13 25.5 22t55.5 9q31 0 56.5 12.5t46 29.5t36 34.5t23.5 30.5 q36 64 39.5 130.5t-19.5 121.5t-65 91t-99 36q-82 0 -144.5 -16.5t-108.5 -39.5t-77 -45t-46 -32q-23 -18 -37 -18t-20.5 9t-2.5 23t14 22q5 5 37 32t83.5 65.5t118 80.5t139.5 74t148.5 47.5t143 2.5t124 -63t94.5 -147q36 -92 23.5 -167.5t-59 -138.5t-117 -114 t-149.5 -89q67 -38 119.5 -89.5t75.5 -115.5t9 -139.5t-81 -167.5q-95 -131 -194.5 -176t-194.5 -36t-178 55.5t-146 101.5t-101 99.5t-43 52.5q-8 8 -5.5 20.5z" />
<glyph unicode="4" horiz-adv-x="1587" d="M130.5 679.5q-2.5 75.5 31 152.5t84.5 148.5t112.5 135.5t115 112.5t92 77t43.5 33.5q10 10 27 11.5t27 -6.5t7.5 -23t-27.5 -41q-15 -13 -47.5 -41t-67 -73t-65 -109t-46.5 -151q-13 -69 29.5 -126.5t115.5 -89.5t166.5 -31t182.5 55q23 108 46 210.5t45 183t41 133 t32 62.5q26 18 79.5 20.5t107.5 -20.5t96 -72t45 -128q3 -54 -10 -158.5t-35 -232.5t-48.5 -264t-55 -251t-52.5 -194.5t-42 -94.5q-26 -23 -82.5 -20.5t-116.5 24t-107.5 60t-52.5 89.5q0 18 4 61.5t13 102.5t21.5 131t28.5 151q-54 -54 -116.5 -92.5t-130.5 -56.5 t-142.5 -7.5t-150.5 53.5q-105 59 -150 129.5t-47.5 146z" />
<glyph unicode="5" horiz-adv-x="1574" d="M99.5 304.5q2.5 15.5 11.5 27t25 11.5t36 -23q10 -13 48.5 -38.5t96 -51t131.5 -45t161 -19.5t166.5 59t111.5 141t-5 169t-181 146q-69 28 -138 48.5t-128 34.5t-106 23t-73 14q-13 3 -8 41.5t22 94.5t41 121.5t50 121.5t50 96t40 42q15 3 80 5.5t156 2.5t193.5 -1 t191 -6.5t150 -13t71.5 -17.5q13 -18 24.5 -56.5t17.5 -79.5t2.5 -75.5t-21.5 -44.5q-15 -10 -94.5 -13t-184.5 -4t-214 -2.5t-183 -6.5q-20 0 -42 -25.5t-40 -56.5t-29.5 -59t-11.5 -30q0 -10 73 -22t173 -36t205 -67.5t171.5 -114t70 -175.5t-95.5 -254 q-108 -156 -223 -209.5t-225 -43.5t-210 66.5t-177 120.5t-123 117.5t-51 61.5q-8 10 -5.5 25.5z" />
<glyph unicode="6" horiz-adv-x="1500" d="M118 509q13 84 50 161.5t96 143.5q44 59 118 151t162 197t180.5 212.5t171.5 193.5t135.5 141t74.5 57q28 8 64 -15t57.5 -68t20.5 -110t-47 -142q-36 -59 -127 -157.5t-206 -213.5q100 -15 180.5 -64t131.5 -122t71.5 -166.5t2.5 -198.5q-20 -115 -83 -216 t-153.5 -176.5t-202 -119t-229.5 -43.5t-214 43.5t-158.5 119t-89.5 176.5t-6 216zM509 471q-8 -84 13 -156t63 -122t102.5 -74.5t129.5 -16.5q69 10 134 50t115 101.5t82 139.5t40 163q5 84 -25.5 164.5t-86 141t-127 92.5t-145.5 21q-79 -84 -144 -169q-54 -74 -99.5 -162 t-51.5 -173z" />
<glyph unicode="7" horiz-adv-x="1500" d="M192 -343q-5 51 23 115q18 44 79.5 151.5t139.5 243t160 282.5t144.5 269t91 201t-2.5 79q-82 0 -161.5 -6t-147 -7.5t-121.5 5t-85 31.5q-33 26 -57.5 68.5t-34.5 87t-2.5 81.5t41.5 50q20 10 107 14t205 3t251 -6.5t248 -13t198.5 -18t98.5 -22.5q20 -15 -11.5 -100 t-97 -213t-157.5 -285.5t-192 -320t-200 -317t-182 -274t-137 -192t-65 -72.5q-20 0 -51 20.5t-54 57.5t-28 88z" />
<glyph unicode="8" horiz-adv-x="1423" d="M-13 -51q20 138 112.5 250.5t225.5 179.5q-108 67 -161.5 179.5t-30.5 253.5q18 102 77 193t143.5 157.5t189.5 106t215 39.5t201 -39.5t149.5 -106t84.5 -157.5t8 -193q-23 -141 -114 -253.5t-222 -179.5q110 -64 162.5 -178t27.5 -252q-18 -105 -77 -196t-143.5 -159 t-188 -107.5t-213.5 -39.5q-113 0 -202.5 39.5t-150 107.5t-86 159t-7.5 196zM356 -87q-5 -77 14 -141t58.5 -108.5t96 -66.5t123.5 -14q64 8 124 43.5t106 90.5t77 125.5t36 147.5q5 74 -15.5 138t-60 109t-96 66.5t-123.5 13.5q-64 -8 -124 -43.5t-106 -90.5t-75.5 -124 t-34.5 -146zM504 773q-5 -77 15.5 -141t60.5 -108.5t95 -66.5t121 -14q67 8 127 43.5t106 90.5t77 125.5t36 147.5q5 74 -15.5 138t-60 109t-96 68t-120.5 15q-67 -8 -127 -45t-106 -92t-77 -124t-36 -146z" />
<glyph unicode="9" horiz-adv-x="1482" d="M133 755q18 115 80.5 216.5t153.5 177t202.5 119t229.5 43.5t213.5 -43.5t158.5 -119t90 -177t9 -216.5q-15 -84 -52.5 -161t-93.5 -143q-44 -59 -119.5 -151.5t-163.5 -197.5t-180.5 -212.5t-171.5 -193t-137 -140.5t-73 -58q-28 -8 -62.5 15.5t-57.5 68t-22 110 t47 142.5q36 59 127 157.5t206 213.5q-100 15 -180.5 63.5t-131.5 121.5t-71.5 166.5t-0.5 198.5zM197 709q-5 -84 25.5 -165t86 -141t127 -93.5t145.5 -20.5q79 82 143 167q54 74 100 163.5t52 174.5q8 84 -13 155.5t-63 121.5t-101 74.5t-128 16.5q-72 -10 -136 -49.5 t-115 -101t-83 -139.5t-40 -163z" />
<glyph unicode=":" horiz-adv-x="537" d="M218 412q13 74 74 129t136 58q74 3 118.5 -49.5t34.5 -127.5q-13 -74 -73 -127.5t-134 -56.5t-121.5 48.5t-34.5 125.5zM330 1052q13 74 74.5 129t135.5 58t120.5 -49.5t33.5 -127.5q-13 -74 -73 -127.5t-135 -56.5q-74 -3 -121.5 48.5t-34.5 125.5z" />
<glyph unicode=";" horiz-adv-x="537" d="M223 445q26 74 93.5 119t141.5 32q36 -5 64 -22.5t45 -46t22 -63t-8 -72.5q-13 -61 -45 -121.5t-70 -110.5t-74 -87t-59 -58q-23 -20 -46 -21.5t-36 11.5t-10.5 36t33.5 51q36 31 36 75.5t-5 83.5q-56 20 -79 73.5t-3 120.5zM330 1052q13 74 74.5 129t135.5 58 t120.5 -49.5t33.5 -127.5q-13 -74 -73 -127.5t-135 -56.5q-74 -3 -121.5 48.5t-34.5 125.5z" />
<glyph unicode="&#x3c;" horiz-adv-x="732" d="M161 602q3 20 39 74t87 121.5t112.5 139.5t120.5 129.5t106 92t73 29.5q36 -8 60 -54t33 -103.5t5.5 -112.5t-26.5 -86q-20 -28 -83 -78t-131 -102.5t-123 -98.5t-58 -67q-3 -15 14 -36.5t42.5 -50t55 -58t51.5 -59t31 -56t-7 -44.5q-13 -20 -48.5 -2.5t-81.5 57 t-96 93.5t-90 106.5t-65.5 98.5t-20.5 67z" />
<glyph unicode="=" d="M59 681q131 -13 261.5 -11.5t250.5 6.5t221.5 9t170.5 -4q69 -5 101 -55t32 -107.5t-24.5 -105t-65.5 -47.5h-171.5t-162.5 1.5t-164 1.5h-175q-110 0 -166.5 48.5t-79.5 107.5q-28 67 -28 156zM123 1039q131 -13 261.5 -11.5t249.5 6.5t221.5 9t171.5 -4q69 -5 99.5 -55 t32 -107.5t-24.5 -105t-66 -47.5h-170.5t-161.5 1.5t-164 1.5h-175q-110 0 -166.5 48.5t-79.5 107.5q-28 67 -28 156z" />
<glyph unicode="&#x3e;" horiz-adv-x="732" d="M218 182q-13 28 30.5 71.5t101 88.5t108.5 84.5t57 62.5q3 20 -34.5 66.5t-87.5 100t-96 103.5t-56 78q-13 31 2.5 87t46 114t71.5 104t79 54q26 5 62 -31t74 -93.5t75.5 -130.5t65.5 -139.5t43.5 -121.5t12.5 -76q-5 -20 -44.5 -66t-100 -100t-129.5 -109t-129 -93.5 t-102.5 -56.5t-49.5 3z" />
<glyph unicode="?" horiz-adv-x="1423" d="M8 1830q0 10 2 16v16.5t3 19.5q5 64 51 154.5t137 176.5t230.5 151t333.5 81q241 20 419 -26t292 -147t162.5 -253.5t30.5 -346.5q-20 -195 -97 -320.5t-174.5 -202t-197 -115t-163.5 -59.5q-102 -36 -181.5 -98.5t-136 -133t-87 -138t-33.5 -111.5q0 -44 -13 -63 t-25.5 -19t-23 21t-5.5 59q3 31 14.5 103.5t48.5 158.5t107.5 166.5t190.5 123.5q159 59 259 184.5t139.5 279t23 315t-89.5 291t-201 206t-307 63.5q-138 -13 -240.5 -55t-174.5 -99.5t-119 -123t-73 -121.5q36 20 85 26q72 8 116.5 -38.5t39.5 -112.5q-10 -72 -64 -124.5 t-126 -60.5q-72 -5 -115 40t-38 116zM330 15q-13 -74 33.5 -125t122.5 -49q74 3 133 56.5t72 128.5q13 74 -32 126.5t-121 49.5q-74 -3 -136 -58t-72 -129z" />
<glyph unicode="@" horiz-adv-x="2181" d="M159 640q41 228 162.5 429t297 350.5t390.5 235.5t443 86q143 0 257 -54t198.5 -144.5t142 -213.5t88 -262.5t38.5 -288t-8 -292.5h-69q3 15 4 61.5t1 99v98.5v61q-10 192 -65 358.5t-157.5 283t-251 171.5t-347.5 30q-197 -26 -367.5 -120.5t-293.5 -239.5t-188 -324 t-55 -374q10 -192 97 -352t225.5 -268.5t317.5 -160t376 -25.5q256 36 462 182t324 361l-33 -187q-92 -133 -212.5 -243t-261.5 -188.5t-295.5 -122t-313.5 -43.5q-228 0 -413.5 86t-308.5 235.5t-174 348t-10 426.5zM702.5 422.5q1.5 112.5 68 247t197.5 254.5 q95 84 188 128t178 59q77 15 142 10t110 -19t64 -32t6 -33q-15 -15 -25.5 -12.5t-29.5 10t-51 17.5t-91 10q-54 0 -115 -24t-119 -66.5t-106.5 -98.5t-79.5 -120q-44 -92 -48.5 -165t16 -122t56 -74.5t71.5 -25.5q64 0 114 38.5t88.5 97.5t68 126.5t55 125.5t47 95t47.5 37 t41 -41t29 -104t29.5 -136t38.5 -135.5t57.5 -103.5t88.5 -41q38 0 74 16.5t64 37.5q31 26 62 56l77 74q3 8 12.5 13t17.5 5q28 0 23 -25q0 -3 -44.5 -56.5t-119 -117.5t-169 -116.5t-194.5 -52.5q-69 0 -116.5 46t-77 102.5t-43.5 105t-16 53.5q-5 -5 -42.5 -53.5 t-96.5 -105t-134.5 -102.5t-154.5 -46q-131 0 -195 75.5t-62.5 188z" />
<glyph unicode="A" horiz-adv-x="3023" d="M-696 724q218 -46 508 -63.5t616 -18.5q95 154 189.5 307.5t184 299.5t172.5 280.5t155 249.5q169 271 320 515q-13 49 -18 94q-2 19 -3 39q0 21 3 41q5 42 28 69q23 26 81 47q56 20 122 26q25 2 49 2q41 0 79 -6q62 -10 92 -43q15 -18 26.5 -106.5t27 -228t41 -318.5 t66.5 -379t105 -408.5t156 -405.5q132 5 230 9q39 2 71 1q47 0 78 -3q133 -8 195 -55q60 -47 68 -107q1 -9 2 -19q0 -51 -35 -104q-41 -63 -115 -104q-56 -28 -238 -43q87 -118 202 -218q54 -46 67 -90q4 -13 4 -24q0 -28 -22 -50q-31 -30 -107 -39q-21 -3 -45 -3 q-63 0 -148 17q-82 15 -185.5 116t-216.5 268q-197 -5 -423 -7h-124q-164 0 -330 3q-228 4 -446 11.5t-399 20.5q-148 -253 -289.5 -487.5t-257.5 -422.5t-197 -312.5t-111 -157.5q-44 -46 -80 -59t-56.5 0t-19 50t37.5 94q13 23 83 136.5t180.5 291.5t250 404.5 t292.5 475.5q-79 5 -142 12.5t-106 15.5q-200 33 -326.5 96t-203.5 129q-90 74 -138 161zM594 645q333 5 662 19t613 30q-74 154 -138 325t-116.5 354t-87.5 374t-47 380q-28 -41 -110 -179t-202.5 -339t-269 -450.5t-304.5 -513.5z" />
<glyph unicode="B" horiz-adv-x="2764" d="M-1367 1726q10 58 36 71q13 8 33 0q18 -5 42.5 -25.5t59.5 -69.5q62 -64 172 -78q45 -6 94 -6q72 0 153 12q137 20 292 66.5t308.5 105.5t294.5 123t251 120q110 54 240.5 124.5t275 132t297 105t306 43.5t304.5 -52.5t292 -180.5q105 -97 156 -192q52 -95 62 -186 q4 -31 3 -61q1 -58 -13 -112q-20 -82 -60 -153q-89 -167 -271 -315q340 -195 481 -438q60 -105 84 -229q8 -44 9 -91q1 -84 -27 -176q-42 -144 -165 -304t-356 -334q-207 -154 -393 -244.5t-351 -133t-311 -42.5t-273 31t-234.5 83.5t-194.5 116.5q-31 -184 -57.5 -344.5 t-45.5 -282t-29.5 -199.5t-10.5 -98q0 -64 -23 -110.5t-50 -48.5q-1 0 -2 -1q-25 0 -44 52q-14 39 -14 123q0 31 2 67q0 41 12 129t31 212t43.5 278t54.5 328q-102 92 -167.5 172.5t-98.5 111.5q-54 54 -115.5 110t-107.5 108.5t-65 97.5q-7 17 -7 32q0 25 19 44 q13 12 34 12t47 -11q54 -22 131 -78.5t174 -142t205 -185.5q38 225 80.5 463.5t83.5 465t79.5 433.5t68.5 376q-138 -67 -275 -128t-267.5 -111t-251 -84.5t-227.5 -49.5q-96 -13 -179 -13q-98 0 -176 18q-144 33 -237.5 97t-142.5 150t-64 162q-9 46 -9 85q0 26 4 49z M274 -300q132 -92 318 -129q129 -26 269 -26q63 -1 127 5q210 16 422.5 83t391.5 183.5t304.5 278t164.5 368.5q12 69 12 127q-1 88 -29 154q-48 108 -150 164q-102 54 -246 66q-58 5 -120 5q-91 0 -189 -10q-164 -17 -333 -55t-318.5 -82t-270 -84.5t-184.5 -66.5 q-44 -243 -84.5 -493t-84.5 -488zM512 1070q69 10 180.5 39.5t244.5 73t277.5 101t279 124.5t250 142.5t192 154.5t103.5 161q11 33 11 65q0 49 -25 97q-46 88 -165 88h-18q-134 -7 -326 -76t-426.5 -181.5t-482.5 -232.5q-20 -118 -44.5 -259t-50.5 -297z" />
<glyph unicode="C" horiz-adv-x="2467" d="M123 342q-5 71 -5 142q0 98 10 197q18 169 80.5 356t162.5 372.5t235.5 355.5t301 303.5t355 219t398.5 100.5q59 5 114 4q101 0 186 -15q131 -24 227 -71.5t161 -113t102 -134.5t51 -138q10 -51 10 -95q0 -16 -1 -30q0 -20 -5 -47q0 -15 -2 -23q-5 -46 -25.5 -87 t-54 -73t-75.5 -52.5t-89 -22.5h-14q-80 0 -134 54q-51 52 -52 127q0 10 1 21q5 46 26.5 87t55 73t74.5 52.5t87 23.5q11 1 21 1q46 0 81 -19q-20 69 -63.5 145.5t-124 138t-203.5 97.5q-90 26 -211 26q-44 0 -91 -3q-177 -13 -333 -142t-283 -330t-218 -454.5t-138 -513.5 q-45 -247 -44 -481q-1 -13 -1 -25q2 -246 64 -432q62 -188 188 -296q111 -95 281 -95q23 0 48 2q115 8 221.5 47.5t198.5 94.5t167.5 120.5t134.5 125.5t96.5 108.5t52.5 71.5q31 46 60 65.5t44.5 14t10.5 -34.5t-41 -78q-26 -33 -73 -99.5t-117.5 -148.5t-166.5 -169 t-219 -161.5t-272.5 -127t-326.5 -65.5q-37 -3 -72 -3q-135 0 -247 40q-142 50 -249.5 146t-181.5 230.5t-117.5 291t-56.5 326.5z" />
<glyph unicode="D" horiz-adv-x="2526" d="M-1188 2343.5q0 34.5 41 50.5q31 10 155 16.5t307 8.5q92 1 193.5 1.5t213.5 -1.5q224 -2 452 -5q535 -10 1198 -28q154 0 309 -60t290.5 -169t241.5 -260t161 -330q50 -164 51 -347q0 -17 -1 -33q-5 -201 -90.5 -413.5t-262.5 -427.5t-466 -420q-184 -133 -367 -203.5 t-357 -93.5q-98 -13 -193 -13q-74 0 -146 8q-166 18 -317 61q-8 -31 -27 -48.5t-40.5 -16.5t-41 26.5t-24.5 84.5q-192 72 -348 166.5t-269 181.5q-133 102 -235 208q5 28 18 43q10 13 29 13t47 -28q20 -20 78 -79t153 -132t226.5 -150t300.5 -136q8 79 35 244.5t65 376.5 t84.5 446.5t88.5 454.5t78 401t56 284q-261 0 -544 -9t-590 -9q-79 0 -160 24.5t-151 61.5t-126.5 83t-86 89.5t-29.5 78zM233 -223q115 -31 243 -48.5t274 -17.5q218 0 417.5 101t362 265t279 370t170.5 416q41 158 41 305q0 49 -5 98q-18 193 -126 331q-97 123 -227.5 204 t-289.5 128t-345.5 67.5t-396.5 25.5q-20 -110 -53.5 -296.5t-74.5 -410.5t-86 -463.5t-82 -453.5t-65 -379t-36 -242z" />
<glyph unicode="E" horiz-adv-x="2132" d="M31 -288q-14 78 -14 160q-1 122 31 254q54 220 206.5 455.5t418.5 462.5q-113 189 -121 370q-1 19 0 37q0 161 58 303q66 158 190 290t276.5 226.5t317.5 147t314 52.5q138 0 230 -37t151 -94.5t87 -132t37 -150.5q5 -41 5 -79q0 -31 -4 -63q-8 -68 -18 -117 q0 -10 1.5 -19t-3.5 -22q-8 -46 -32 -85.5t-60 -70.5t-79.5 -47.5t-89.5 -16.5q-92 0 -146 64q-42 50 -42 117q0 19 3 39q8 46 33.5 87t61.5 70.5t79.5 47.5t89.5 18q51 0 95 -23q1 13 1 26q0 57 -11 117q-13 74 -59 133t-136 97.5t-238 38.5q-118 0 -220.5 -60t-184 -157.5 t-139.5 -221.5q-58 -125 -86 -255q-24 -114 -24 -222v-31q4 -123 48.5 -219t130.5 -154q79 -53 201 -52h21q61 0 88 -18t23 -38.5t-36 -38.5t-86 -18q-195 0 -348 -70.5t-267 -184t-186 -259.5q-71 -147 -101 -299q-20 -102 -20 -201q0 -49 4 -97q14 -146 74.5 -260 t165.5 -184t256 -70q113 0 210 55t177.5 142t144.5 192t110.5 203.5t75.5 179t40 116.5q15 54 35.5 78t36.5 19q14 -5 18 -39q1 -6 1 -13q0 -33 -15 -86q-13 -41 -48.5 -135.5t-94.5 -210t-139.5 -239.5t-183 -226.5t-224 -168t-259.5 -65.5q-225 0 -400.5 84.5 t-285.5 229.5t-146 338z" />
<glyph unicode="F" horiz-adv-x="2288" d="M-664 2100q-8 25 -8 51q0 37 16 73q28 62 108 109.5t215 54.5q30 2 76 2q55 0 133 -3q142 -6 335 -16.5t427.5 -23t488 -24t517.5 -15.5q117 -2 231 -2q143 0 283 3q251 5 479 24.5t409 54.5q-79 -87 -194 -161q-100 -67 -251 -129.5t-358 -95.5q-102 -15 -267.5 -29.5 t-369 -23.5t-431.5 -15t-456 -9q-13 -82 -34.5 -207.5t-49.5 -284t-61.5 -344t-66.5 -382.5q202 -13 437.5 -23.5t468.5 -11t448 13t379 49.5q-54 -64 -136 -121q-69 -49 -174 -96t-251 -70q-79 -13 -216 -24.5t-303.5 -19t-349.5 -10t-357 -2.5q-38 -220 -75.5 -438 t-72 -420t-64 -378.5t-49.5 -312.5t-33 -223t-13 -107q0 -64 -23 -110.5t-50 -48.5q-1 0 -2 -1q-25 0 -45 52q-15 39 -15 120q0 32 2 70q3 44 15.5 138.5t34 228.5t48.5 299.5t59 349.5t66.5 382.5t70.5 398.5q-115 3 -215 6.5t-178 10t-130.5 15.5t-67.5 21q-41 31 -54 77 q-5 18 -5 36q1 28 13 55q20 45 75 79.5t150 42.5q16 1 39 0q52 0 139 -4q124 -7 293 -17q36 197 69 381.5t62.5 343t52.5 283t39 203.5q-218 0 -417.5 4t-357 13t-262.5 21.5t-136 33.5q-60 41 -80 103z" />
<glyph unicode="G" horiz-adv-x="2288" d="M108 356q-2 35 -2 71q0 135 17 269q20 169 79 356t151 369t214 349.5t267.5 298t312 211t348.5 91.5q38 2 73 2q172 0 296 -52q148 -63 235 -161.5t121 -208.5q25 -85 25 -155q0 -20 -2 -40q-3 -44 -13 -77v-16.5t-3 -18.5q-8 -46 -32 -86t-58.5 -69.5t-77 -46 t-88.5 -16.5t-83 16.5t-62.5 46t-34.5 69.5q-5 22 -5 46q0 19 3 40q15 92 91 156t168 64q59 0 110 -34q-15 69 -49.5 153.5t-106.5 157.5t-183 119q-90 38 -217 38q-31 0 -63 -2q-154 -8 -292.5 -134.5t-253.5 -325t-202 -449t-135.5 -510.5t-53.5 -507q-1 -26 -1 -51 q0 -216 43 -385q47 -190 154 -302q97 -104 252 -104q14 0 28 1q123 8 230.5 57.5t196.5 119.5q23 246 31 434t41 318q33 133 92 205t121 89q23 5 45 5q39 0 75 -19q58 -29 89 -98q18 -44 19 -134q1 -8 1 -17q0 -84 -13 -191q-14 -119 -41 -261t-63 -290.5t-78 -298 t-88 -285.5q-69 -202 -157.5 -341.5t-170.5 -226.5q-95 -102 -189 -164q123 315 181.5 594t86.5 522q-120 -97 -272.5 -166.5t-344.5 -81.5q-24 -2 -48 -2q-125 0 -226 45q-120 54 -209.5 154t-149.5 236.5t-92 294t-37 329.5z" />
<glyph unicode="H" horiz-adv-x="2342" d="M-1416 694q172 -38 396 -56t475 -24q126 -3 255.5 -2.5t263.5 2.5q268 6 528 16q59 335 117.5 654t104.5 572q54 294 103 558q13 61 37 90.5t47 29.5t37 -29q9 -19 10 -49q0 -17 -3 -37q-5 -28 -32 -189.5t-69 -408.5t-96 -555.5t-110 -630.5q225 13 428.5 23t372.5 20 q31 177 61.5 352.5t58.5 340.5t56.5 317.5t51.5 282.5q54 310 105 584q15 69 40.5 101t48.5 30.5t37 -33.5q9 -21 10 -53q0 -18 -3 -40q-5 -28 -33.5 -197t-73 -427.5t-99.5 -583.5t-112 -666q127 5 221 9q42 2 75 2q41 0 68 -3q133 -8 196 -56q63 -46 69 -108q1 -8 1 -16 q0 -54 -36 -108q-41 -62 -117 -104q-44 -23 -190 -38.5t-363 -22.5q-51 -297 -95 -571t-78.5 -489t-55 -354.5t-20.5 -170.5q0 -69 -25.5 -120.5t-52.5 -52.5h-1q-26 0 -45 58q-13 42 -13 127q0 36 2 80q5 59 25.5 201t52.5 339t71.5 440.5t85.5 507.5q-182 -4 -383 -6 q-46 0 -93 -1q-156 0 -315 4q-46 -274 -88 -523.5t-74 -445.5t-50 -322.5t-18 -154.5q0 -67 -25.5 -113t-52.5 -48q-1 0 -2 -1q-27 0 -45 53q-14 39 -13 120q0 33 2 73q3 54 22 183t47 311t66.5 404.5t82.5 466.5q-187 3 -365 10t-334 16t-280.5 20.5t-203.5 24.5 q-197 33 -326.5 96t-203.5 129q-90 74 -136 162z" />
<glyph unicode="I" horiz-adv-x="1205" d="M33 -740q0 102 19.5 284t50 411t70 491.5t84.5 523.5t92.5 507t91 442t80.5 327.5t65 165.5q51 68 119 98q43 19 81 19q22 0 44 -7q58 -18 92 -88q24 -49 25 -129q0 -35 -5 -75q-8 -67 -41 -223t-81.5 -375t-109 -484t-122 -551.5t-117.5 -579.5t-98.5 -566t-65.5 -511 q-19 -196 -19 -350q0 -34 1 -65q-77 61 -133 164q-52 87 -90 227q-34 123 -34 298q0 22 1 46z" />
<glyph unicode="J" horiz-adv-x="2081" d="M-1254 2281q10 31 52 33q9 1 19 1q36 0 85 -7q61 -9 131.5 -24.5t137.5 -20.5q256 -20 554 -25q205 -4 412 -4h189q304 3 595.5 12t535.5 17q5 23 15 52.5t28 60.5q10 20 47.5 44.5t87 47.5t106 44.5t108 33t91 11.5t54.5 -15q18 -23 24.5 -60t9.5 -76q1 -19 1 -37 t-1 -35q-3 -35 -3 -53h100q133 -3 201 -17t82 -32t-20.5 -37t-103.5 -32q-26 -5 -94 -9t-170 -9q-3 -113 -14.5 -310t-42 -442.5t-83 -523.5t-138.5 -550.5t-210 -521t-294 -439t-393 -303t-507 -112.5q-131 0 -224.5 34.5t-157.5 90.5t-101 126.5t-53.5 141t-19.5 133.5v40 q0 37 3 66q10 64 26.5 87t33.5 19t27 -29.5t8 -58.5q0 -20 -2 -57v-9q0 -34 10 -73q12 -43 39 -86.5t82 -79.5t142 -59t218 -23q166 0 300.5 106.5t239.5 284.5t184 409.5t138 482.5t97.5 505.5t63 477.5t36 397t16.5 263q-177 -5 -371.5 -7.5t-387.5 -3.5t-379 -1t-348.5 1 t-293 3.5t-212.5 7.5q-90 5 -166.5 11.5t-140.5 14.5q-113 13 -192 23t-129 23t-69.5 31t-8.5 46z" />
<glyph unicode="K" horiz-adv-x="2260" d="M-125 -1129q3 46 16.5 147t35.5 243.5t51.5 319t62.5 373.5t69 407t74 420q131 740 297 1633q13 61 37.5 90.5t47.5 29.5q22 0 38 -29q10 -19 11 -50q0 -16 -3 -36q-3 -26 -27 -170.5t-64 -368.5t-88.5 -506.5t-101 -585t-103.5 -603t-95 -561.5q64 95 153.5 203.5 t210 221t274 222.5t343.5 210q228 120 391.5 272.5t277.5 314t182 320t107.5 293t56 232t27.5 135.5q8 38 38.5 85.5t74 97.5t96 95t105.5 77q52 33 100 45q24 6 44 6q21 0 38 -7q34 -13 48 -121q5 -34 4 -74q0 -88 -22 -206q-32 -172 -123 -389.5t-264 -449.5t-443 -458.5 t-662 -418.5q-51 -23 -101 -47t-96 -50q15 -51 62.5 -172.5t137.5 -275.5t226.5 -319t331.5 -307t452 -240.5t587 -116.5q61 -3 126 -4q281 0 613 65q408 79 905 297q84 44 126.5 50.5t52.5 -9t-6.5 -47.5t-52.5 -63q-31 -28 -132 -105t-255.5 -173t-353 -198t-424 -180.5 t-467.5 -118.5q-147 -24 -294 -24q-94 0 -188 10q-240 26 -472 135t-437 326.5t-372.5 562t-280.5 840.5q-200 -120 -340.5 -249t-235.5 -253.5t-150 -236t-83 -195.5q-28 -184 -46 -300.5t-18 -144.5q0 -67 -23 -113t-50 -48q-1 0 -2 -1q-25 0 -44 53q-13 39 -13 119 q0 33 2 74z" />
<glyph unicode="L" horiz-adv-x="1128" d="M-1154 -746q-2 13 -3 27q0 47 29 97q37 64 112 110q33 20 135.5 40.5t254.5 38.5t340.5 33.5t395.5 28.5q33 192 69 402t74.5 422.5t75.5 418.5t73 393q82 438 161 865q10 61 36 90.5t49 28.5t38 -31q10 -20 10 -51q0 -15 -2 -32q-3 -23 -24.5 -147t-55 -317.5 t-77 -440.5t-91 -517t-94.5 -546.5t-91 -530.5q236 13 472.5 21t448.5 12q106 2 201 1.5t180 -1.5q170 -4 273 -15q200 -20 331.5 -76.5t213.5 -115.5q94 -69 148 -151q-141 20 -313 28q-120 6 -251 6q-57 1 -117 -1q-194 -4 -404 -16t-422.5 -28.5t-423.5 -38t-406 -42.5 q-44 -253 -68 -418t-24 -199q0 -64 -24.5 -110t-51.5 -48q-1 0 -2 -1q-25 -1 -44 51q-13 38 -13 117q0 33 2 73q5 56 23 190.5t46 326.5q-164 -18 -308.5 -34.5t-263.5 -29.5t-207.5 -20.5t-134.5 -7.5q-136 0 -201 42.5t-75 102.5z" />
<glyph unicode="M" horiz-adv-x="3599" d="M-819 579q2 12 2 53q-1 20 -1 48q-1 50 0 113v91q1 122 11.5 270.5t38.5 302t80.5 297t138.5 256t208.5 180.5t294.5 68q148 0 263.5 -37t203.5 -97.5t151 -137t106 -156.5q102 -189 134 -427q77 238 207 427q56 79 129 156t165 137.5t205 97.5t248 37q113 0 184.5 -88.5 t112.5 -241.5q36 41 87.5 93.5t112.5 102t128 88t136 46.5q88 11 164 11q98 -1 176 -19q138 -34 230.5 -104t145 -167t82 -201t40.5 -202.5t24 -172.5q8 -47 8 -139v-39q-2 -122 -15 -284.5t-35 -353t-52.5 -385t-66.5 -380.5t-77 -337t-87 -254.5t-94 -136.5 q-34 -22 -59 -22q-18 0 -31 12q-31 28 -54 86.5t-51 129t-77 116.5q-14 12 -14 60q0 21 3 49q9 91 34.5 233t60 322.5t69 379t61.5 403.5q28 205 34 395q2 48 1 94q-1 138 -15 261q-20 164 -75.5 280.5t-155.5 172.5q-71 40 -170 40q-41 0 -86 -7q-54 -8 -107.5 -36 t-102.5 -63.5t-88.5 -73t-65.5 -65.5q31 -151 40 -341q5 -103 5 -212q0 -91 -4 -187q-8 -210 -28 -427.5t-48.5 -423.5t-60.5 -390.5t-62.5 -327.5t-56 -233t-41.5 -107q-33 -43 -85 -43q-4 1 -8 1q-58 4 -111.5 57.5t-93.5 158.5t-40 261q136 671 200 1200q26 225 40 441 q7 112 7 210q0 92 -6 174q-13 169 -56.5 272.5t-130.5 103.5q-177 0 -311 -125.5t-238 -330t-179.5 -467t-130.5 -538t-94.5 -540.5t-71.5 -473.5t-60 -340.5t-62 -139q-22 -5 -40 -5q-38 1 -58 21q-30 30 -53 82.5t-47 115t-76 108.5q-16 14 -16 73q0 15 1 32 q5 87 23 221.5t45 307.5t53.5 363.5t47 390.5t24.5 386q1 38 1 76q-1 144 -13 276q-16 166 -61.5 290t-127.5 195.5t-210 71.5q-141 0 -240.5 -61.5t-167.5 -163.5t-109 -233t-62.5 -269t-27.5 -274q-6 -134 -8 -246q0 -37 -1 -71q0 -67 2 -117q2 -38 1.5 -61t-1.5 -32 q-8 -38 -26 -56t-34.5 -17t-28 21.5t-3.5 59.5z" />
<glyph unicode="N" horiz-adv-x="2378" d="M-598 1816q-5 6 -4 15q0 19 26 51q26 31 78.5 91t119 120t144.5 107.5t157 57.5q60 7 115 8q82 0 152 -17q116 -27 205 -83.5t151.5 -134.5t106.5 -162q100 -197 128 -466q77 238 207 427q56 79 128 156t164 137.5t204.5 97.5t248.5 37q108 0 179.5 -82t113.5 -223 t58 -330q13 -154 12 -324v-77q-4 -212 -23.5 -440.5t-47.5 -445t-62.5 -412t-66.5 -348t-59 -250t-42 -114.5q-33 -43 -85 -43q-4 1 -8 1q-58 4 -112 57.5t-93.5 158.5t-39.5 261q136 671 199 1200q26 225 40 441q7 112 7 210q0 92 -6 174q-13 169 -56.5 272.5t-130.5 103.5 q-177 0 -311 -125.5t-237.5 -330t-179 -467t-131 -538t-95 -540.5t-71.5 -473.5t-60 -340.5t-61 -139q-22 -5 -40 -5q-38 1 -58 21q-30 30 -53.5 82.5t-47.5 115t-75 108.5q-15 15 -15 79q-1 32 3 76q12 132 40 331.5t62.5 445.5t57.5 498q22 252 24 486q0 8 1 17 q0 224 -39 396q-40 179 -130 277q-75 81 -198 81q-26 0 -55 -4q-56 -8 -113.5 -38.5t-107.5 -69t-89.5 -78t-62.5 -65.5q-35 -37 -54 -37q-7 0 -12 5z" />
<glyph unicode="O" horiz-adv-x="2787" d="M148 304q-17 118 -16 242q0 172 32 358q36 212 112.5 409t181.5 368.5t234.5 312.5t275.5 242t302 156t315 55q238 0 424.5 -121.5t306.5 -329.5t160 -490q17 -118 16 -244q0 -173 -32 -358q-56 -320 -195.5 -600.5t-333 -489t-422.5 -330t-467 -121.5t-426 121.5 t-308 330.5t-160 489zM522 850v-21q0 -255 69 -467q72 -222 197.5 -374t293.5 -222q112 -47 235 -47q63 0 129 12q195 36 368 169t302 333t206 448t79 517v21q0 255 -69 469q-72 222 -197 373t-294 221q-112 47 -235 47q-63 0 -129 -12q-195 -36 -367.5 -169t-302 -333 t-206 -448t-79.5 -517z" />
<glyph unicode="P" horiz-adv-x="2288" d="M-1014 2493q2 41 41 54q28 8 146 13t292 6q87 1 183 1t202 -1q211 -2 429 -3q509 -8 1139 -21q146 0 296 -45t281.5 -125.5t238 -192t165.5 -244.5t61 -283q0 -5 1 -9q0 -145 -71 -297q-73 -158 -233 -317t-426 -312q-174 -100 -346 -153q-171 -52 -339 -68 q-91 -9 -179 -9q-75 0 -147 6q-158 14 -305 50q-38 -218 -76.5 -433t-73.5 -412t-64 -367.5t-51 -298.5t-33.5 -207t-11.5 -92v-11q-1 -34 -17 -61q-20 -31 -45 -32t-45.5 33.5t-20.5 121.5q0 44 27 211.5t69 416t96 550.5t113 614q-182 54 -330.5 123t-256.5 133 q-125 74 -225 151q8 23 18 33t28 10.5t46 -20.5q18 -15 74.5 -57.5t148.5 -93.5t220 -107.5t292 -97.5q38 207 75.5 407t72 380.5t64 334t49.5 268.5q-248 8 -514.5 8h-552.5q-77 0 -151.5 33.5t-139.5 86t-114 113.5q-50 61 -76 116q-24 50 -24 89v7zM428 620 q113 -20 237 -33.5t262 -13.5q207 0 398 67t345.5 173t264.5 238q110 133 160 263q35 91 35 174q0 36 -6 70q-22 114 -132 185q-113 74 -255 125.5t-307 85t-352 52.5t-392 29q-23 -118 -51 -275t-61.5 -340.5t-70.5 -387z" />
<glyph unicode="Q" horiz-adv-x="2718" d="M20 162q-4 8 -4 18q0 39 51 104q26 31 60 64t78 69q-51 151 -61 324q-3 42 -3 84q0 134 25 276q49 279 183.5 524.5t322.5 427.5t414.5 288t464.5 106t429 -106t315 -288t170 -427q23 -121 23 -249q0 -134 -25 -276q-49 -276 -178.5 -516t-313.5 -424q108 -146 151 -297 q38 -121 38 -220v-17q-4 -106 -12 -162q-31 -118 -91 -178t-111 -93q-54 -31 -87.5 -44t-35.5 -13q18 38 35.5 91t27.5 114q9 50 9 104q0 13 -1 26q-2 67 -20 136q-44 172 -190 331q-143 -87 -295.5 -134.5t-310.5 -47.5q-253 0 -450.5 117.5t-320.5 322.5q-51 -13 -88 -23 t-60 -15q-60 -18 -94 -18q-37 0 -45 21zM527 1055q3 -118 23.5 -224.5t56.5 -200.5q82 20 207 30q47 4 95 4q82 0 169 -11q182 -20 359.5 -90.5t321.5 -183.5q36 -28 68 -57.5t60 -60.5q115 87 209.5 207.5t162.5 262.5t104 300.5t36 325.5q-5 233 -80.5 426t-205 326.5 t-301.5 193.5q-113 40 -236 40q-64 0 -130 -11q-195 -31 -363.5 -147.5t-292.5 -289t-194 -389.5q-69 -212 -69 -438v-13zM842 271q128 -118 290 -171q101 -33 211 -33q66 0 134 12q13 0 28 5q-8 5 -18 11.5t-20 12.5q-133 79 -295.5 118.5t-329.5 44.5z" />
<glyph unicode="R" horiz-adv-x="2736" d="M-550 2534q2 41 41 54q28 8 145.5 13t291.5 6q87 1 183.5 1t202.5 -1q212 -2 428 -3q509 -8 1137 -21q146 0 295.5 -45t283 -125.5t238.5 -192t165 -244.5q61 -132 63 -282q0 -5 -1 -10q0 -144 -70 -296q-73 -156 -233 -316.5t-426 -313.5q-123 -69 -242 -114t-239 -73 l12 -3q200 -607 623 -967q179 -154 426 -269t572 -147q100 -10 209 -9q243 0 527 48q411 72 918 295q79 41 118.5 47t50 -9t-5 -44.5t-48.5 -60.5q-28 -26 -126.5 -100t-247 -166t-339.5 -189.5t-407 -171.5q-216 -73 -448 -111q-130 -21 -259 -21q-102 1 -204 13 q-230 30 -451 138.5t-414.5 325t-351 554t-259.5 826.5q-135 -21 -267 -21q-28 1 -56 1q-159 6 -304.5 32.5t-279 68.5t-248.5 93q-46 -269 -89.5 -521t-75.5 -454t-52.5 -334t-20.5 -157q0 -59 -21 -100q-22 -42 -48 -44h-2q-24 0 -43 48q-13 35 -13 106q0 30 2 66 q3 54 23 195t53.5 336.5t74.5 432.5t87 488q-92 44 -165 87t-125 77q-61 38 -105 74q5 23 16 33q10 10 28 10.5t46 -20.5q23 -20 101 -75.5t214 -121.5q31 172 63 343t61.5 331t55 303.5t48.5 261.5h-615q-77 0 -151 33.5t-138 85.5t-112.5 113.5t-75.5 116.5q-25 50 -25 89 q1 4 1 7zM466 791q169 -72 399.5 -124.5t524.5 -52.5q207 0 398 67t346 173t265 238q111 132 159 262q34 90 33 173q-1 37 -7 72q-22 114 -132 185q-143 92 -328.5 150t-409.5 91t-481.5 46t-538.5 15q-20 -123 -47 -274t-56.5 -317t-61.5 -345.5t-63 -358.5z" />
<glyph unicode="S" horiz-adv-x="3036" d="M82 -56q15 84 64 136q50 54 112 74q46 15 93 15q17 -1 35 -3q66 -8 118 -43q44 -31 56 -97q3 -20 3 -41q0 -47 -19 -97q-27 -70 -92 -134t-173 -92q26 -69 132 -134.5t250.5 -115t310 -79t308.5 -29.5q246 0 468.5 65t380 171.5t233.5 243.5q46 84 46 170q0 54 -18 110 q-48 143 -236 280t-554 245q-348 102 -615.5 177.5t-443 170.5t-249.5 231q-49 90 -49 217q0 66 13 141q26 148 118 269.5t229 219t307 168t353 118t367.5 70.5t348.5 23q246 0 435.5 -45t318.5 -120.5t195 -176.5q65 -98 66 -209q0 -3 -1 -7q-3 -113 -41.5 -191t-97 -127 t-130.5 -70.5t-136 -21.5q-49 0 -87 18t-62.5 47.5t-34.5 66.5q-6 22 -6 45q0 16 3 33q8 41 31 79.5t60 69t83 48.5t100 18q36 0 73 -15.5t65 -33.5q33 -20 64 -46q10 46 10 89q0 106 -58 193q-36 54 -98.5 103.5t-166.5 90.5t-252.5 65.5t-353.5 24.5q-200 0 -394 -37 t-360.5 -102.5t-294.5 -152.5q-128 -88 -196 -186q-64 -93 -64 -194v-12q4 -108 102.5 -211t302 -199t533.5 -176q300 -72 545.5 -148.5t413.5 -184t244 -258.5q51 -101 52 -234q0 -66 -13 -140q-38 -223 -163.5 -384t-316.5 -266t-434 -155t-517 -50t-525 51t-437 145 q-186 93 -284 225q-77 103 -76 222q0 34 6 69z" />
<glyph unicode="T" horiz-adv-x="1587" d="M-666 2414q161 -36 370 -54q208 -18 444 -24q118 -2 240 -2t248 2q252 5 496.5 14.5t471 22.5t413.5 23t323 16q88 4 146 3q32 0 54 -1q125 -8 184 -52q60 -44 66 -102q1 -8 0 -17q0 -49 -32 -101q-38 -60 -111 -99q-41 -23 -187 -37t-354.5 -22t-460.5 -9h-84 q-211 0 -424 4q-18 -108 -51.5 -298.5t-75.5 -430t-89.5 -512t-95 -542.5t-89.5 -522.5t-75.5 -452t-52.5 -330t-19 -158.5q0 -59 -22 -103q-21 -44 -47 -46h-3q-24 0 -42 49q-14 37 -14 116q0 29 2 63q3 56 24.5 202t55 348.5t75.5 448t88.5 504t93.5 514.5t87 479 t73 399.5t51 273.5q-166 3 -325 9.5t-294.5 15.5t-245.5 18t-182 21q-187 31 -308.5 92.5t-193.5 122.5q-84 72 -128 154z" />
<glyph unicode="U" horiz-adv-x="2304" d="M100 210q2 248 30.5 510.5t68 509.5t82 464.5t70.5 376.5q8 38 54 101t108.5 124.5t133 112.5t125.5 67q19 6 35 6q29 0 49 -20q18 -19 19 -64q0 -28 -7 -66q-8 -38 -42.5 -185.5t-80.5 -363.5t-92 -478.5t-74.5 -531.5t-29.5 -523v-11q1 -247 43 -437q44 -196 142 -315 t270 -119q138 0 257 82t222.5 224t192 330t161.5 400.5t132 439t105 441.5t79 409.5t56 343t34.5 241t14.5 104.5q5 31 16.5 44t23 10.5t19 -17t5.5 -37.5q-3 -8 -13 -109t-33 -266t-59 -384t-86 -462t-117.5 -499t-152 -496.5t-189.5 -455.5t-233 -375t-278 -253.5 t-324 -93.5q-218 0 -361 97t-227.5 263.5t-118.5 389.5q-31 208 -31 437q1 17 1 34z" />
<glyph unicode="V" horiz-adv-x="2342" d="M-270 2306q-3 12 -3 23q1 27 21 47q30 28 100 38q21 3 46 3q58 0 137 -16q74 -15 161 -75t173 -194.5t167.5 -353.5t147 -549t110.5 -787t60 -1064q28 41 115 185.5t212.5 356t278 468.5t311 524.5t313.5 525t283 464.5t219 348t124 177q38 41 72.5 53.5t54 1t18 -46 t-34.5 -87.5q-10 -18 -56 -92.5t-118 -189.5t-165.5 -266t-201 -325.5t-225 -363.5t-235.5 -379q-417 -671 -934 -1510q13 -46 18 -90q2 -16 2 -32q1 -22 -3 -45q-6 -41 -28 -66q-23 -26 -76 -45q-54 -20 -117 -26q-25 -3 -49 -2q-38 0 -72 6q-58 10 -85 44 q-15 15 -19 135.5t-8 311t-13 435t-30.5 513.5t-64 543t-114 522t-176.5 454t-253 340q-51 44 -63 86z" />
<glyph unicode="W" horiz-adv-x="2777" d="M-394 2306q-2 10 -2 18q0 30 20 52q26 28 84 38q18 3 39 3q49 0 115 -16q61 -15 130 -75t136 -194.5t127 -353.5t104.5 -549t68.5 -787q18 -341 17 -765q0 -144 -2 -299q26 44 68 127t94.5 190.5t114 231.5t123 249.5t121.5 244.5t111 214q-15 259 -29 506t-27 446.5 t-23 334t-18 172.5q-6 24 -6 46q0 28 10 54q16 46 50 78q32 32 76 48q31 11 61 10q13 0 25 -2q42 -6 74 -39.5t45 -94.5q20 -108 30.5 -229.5t18.5 -285t18 -382.5t30.5 -516t55 -687.5t93.5 -897.5q23 41 98.5 193.5t184.5 376.5t240.5 498t268.5 558t269 556.5t243.5 494 t189.5 370t106 184.5q33 41 61.5 53.5t43.5 1t12.5 -46t-30.5 -87.5q-10 -20 -64 -125.5t-138.5 -270.5t-192 -379t-226.5 -449.5t-244.5 -482.5t-243 -481t-224 -443t-188 -366t-133 -254.5t-59.5 -107.5q-20 -26 -65 -45q-45 -20 -96 -26q-20 -3 -40 -2q-30 0 -58 6 q-48 10 -71 44q-10 15 -23 139t-28 320t-30.5 445.5t-30.5 516.5q-95 -177 -204 -378t-203 -378q-110 -205 -221 -409q8 -46 11 -90q1 -14 1 -30q-1 -23 -3 -47q-4 -41 -24 -66q-20 -26 -65 -45q-45 -20 -96 -26q-20 -3 -40 -2q-30 0 -60 6q-49 10 -72 44q-12 13 -12 112 q1 12 1 24q2 120 4 310q2 192 4 436v56q0 219 -10 457q-12 269 -38 543t-77 522t-131.5 454t-198.5 340q-43 44 -51 86z" />
<glyph unicode="X" horiz-adv-x="2229" d="M-87 -741q0 9 37 83q40 79 118 212.5t188 308.5t244.5 377.5t289.5 419t321 431.5q-108 248 -200 473t-163 400q-84 202 -157 378q-15 41 -15 71q0 10 2 19q6 36 26.5 46t50 -5t52.5 -61q8 -20 52.5 -124t112.5 -265.5t156 -367.5t185 -434q195 243 397 462t400.5 384 t384.5 262.5t347 97.5q71 10 120 10q20 0 38 -2q56 -6 74.5 -26.5t-3.5 -48.5t-78 -59q-146 -20 -328 -148t-380 -329t-407 -453t-408 -519q118 -274 230.5 -537.5t204.5 -473.5t154.5 -348t78.5 -164q33 -51 37 -99q1 -7 1 -13q0 -36 -20 -49q-7 -5 -17 -5q-21 0 -53 22 q-48 32 -112 144q-28 49 -89.5 181t-143.5 318.5t-178 414.5t-196 469q-202 -274 -381 -534t-316 -465t-224 -333t-103 -138q-33 -24 -84 -30q-32 -4 -63 -4q-19 0 -38 2q-50 4 -91 17q-54 17 -54 32z" />
<glyph unicode="Y" horiz-adv-x="2521" d="M430 -1170q-2 2 -2 7q0 17 21 70q27 69 74.5 175t111.5 239.5t130 271.5q159 323 361 724q-179 553 -320 999q-61 189 -121 373.5t-107.5 334t-79.5 248.5t-40 116q-8 24 -8 42q0 11 3 21q8 25 27 33.5t46 0t50 -39.5q18 -23 51 -116.5t77 -232t92.5 -307.5t99.5 -344 t99.5 -345.5t89.5 -311t70.5 -236.5t42.5 -124q177 422 348.5 731.5t331.5 528.5t304.5 357.5t267.5 220.5t221.5 116.5t167.5 44.5q71 10 121 10q21 0 39 -1q58 -7 74.5 -27.5t-4 -48.5t-76.5 -59q-123 -15 -257.5 -121t-278 -276.5t-288 -392t-286.5 -467t-276.5 -504 t-253.5 -503t-221.5 -462.5t-180.5 -384t-126.5 -266t-61.5 -110q-33 -23 -85 -29q-33 -5 -65 -5q-20 0 -39 2q-52 4 -93 16.5t-51 30.5z" />
<glyph unicode="Z" horiz-adv-x="2132" d="M-556 -1249q161 154 347 362.5t382 447.5t395.5 499t391.5 516t367.5 496.5l324 444t262.5 357.5t180 235q-44 -13 -96 -28t-109 -28q-184 -46 -410.5 -82t-459.5 -51q-175 -11 -340 -11q-55 0 -109 1q-216 5 -386 25q-166 19 -267 39q-81 16 -94 16q-3 0 -2 -1 q-28 8 -37 27t-2.5 41t24 37t43.5 13q10 0 119 -19.5t285 -34.5q177 -15 396 -17q15 0 29 1q205 0 423 19q233 20 453 60t397 88q154 38 257.5 76.5t139.5 51.5q3 3 15 8q18 13 38 13q25 6 46 6q60 -1 90 -49q23 -36 23 -87q0 -41 -15 -93q-13 -49 -105 -187t-238 -335 t-333 -436.5t-385.5 -488t-397 -489t-369.5 -440.5q36 -92 101 -218.5t165 -265t240.5 -273t327.5 -242t424 -173.5q232 -65 519 -66h14q296 2 650 81.5t779 263.5q79 41 120.5 47.5t51.5 -9t-6.5 -43.5t-50.5 -59q-28 -26 -121.5 -96.5t-235.5 -160t-323.5 -185.5 t-389.5 -170q-206 -75 -432 -117q-165 -31 -330 -31q-60 1 -120 5q-224 16 -441.5 104t-412 273.5t-358.5 481t-279 728.5q-95 -108 -171.5 -192.5t-132.5 -143.5q-184 -187 -342 -294t-273 -164q-136 -67 -246 -84z" />
<glyph unicode="[" horiz-adv-x="1305" d="M-9545 -1957q-4 32 12 78q8 23 37 102.5t106 188t215 233t367 235.5t560.5 197t792.5 118t1068 -5t1385 -168q701 -120 1300 -179t1102 -72t919 15.5t754 87t603 142t470 178.5q719 335 929 883q15 84 -10.5 180t-83 178t-145.5 138.5t-201 66.5t-246 -40t-279 -180 q-51 -46 -66.5 -47.5t-14 15t6.5 28.5l13 35q74 72 161 128q74 49 172.5 89.5t213.5 40.5q74 0 160 -10t169.5 -38.5t155 -81t119 -137t62.5 -203.5t-13 -285q-20 -123 -113.5 -284.5t-266.5 -334t-432.5 -343t-617 -315t-817 -248t-1031.5 -142t-1263 2.5t-1511 184 q-1155 202 -1993 275t-1398.5 26t-865 -208.5t-389.5 -425.5q-20 -77 -42 -107.5t-36 -26.5t-18 36z" />
<glyph unicode="\" d="M284 1575.5q5 19.5 30.5 -11.5t64.5 -107q84 -161 161 -308.5t152.5 -293.5t152.5 -295.5t161 -316.5q102 -200 149.5 -316t65.5 -178q20 -72 10 -100q-115 241 -238 478t-236.5 450.5t-210 395t-157.5 312.5t-85.5 201t-19.5 89.5z" />
<glyph unicode="]" horiz-adv-x="1305" d="M-8208.5 -1957q-3.5 32 11.5 78q8 23 37 102.5t104.5 187t215.5 230.5t367.5 234t559 195.5t793.5 116.5t1069 -2.5t1385 -162.5q863 -143 1526 -174t1158.5 18t841 156.5t573.5 242.5q535 315 642 812q15 84 -10.5 180t-83 178t-145.5 138.5t-201 66.5t-246 -40 t-279 -180q-51 -46 -66.5 -47.5t-14 15t6.5 28.5l13 35q74 72 161 128q74 49 172.5 89.5t213.5 40.5q74 0 160 -10t169.5 -38.5t155 -81t119 -137t62.5 -203.5t-13 -285q-20 -123 -93 -274t-207.5 -307t-333 -306t-472.5 -273t-627 -207.5t-794.5 -110t-976.5 20.5 t-1173 182q-727 156 -1341.5 226.5t-1116 69t-890.5 -65.5t-667 -176.5t-445.5 -263.5t-224.5 -328q-20 -77 -42 -107.5t-36 -26.5t-17.5 36z" />
<glyph unicode="^" horiz-adv-x="1323" d="M420 1492q-18 10 6.5 50t73 92.5t112.5 111.5t126.5 109t114 82t71.5 32t70 -26t110.5 -65.5t123 -88t111.5 -97t77 -91t18 -68.5q-15 -36 -66.5 -67.5t-111.5 -52t-118 -26t-83 12.5q-26 15 -65.5 69t-82 113t-81 105t-58.5 46t-67.5 -43.5t-101.5 -93.5t-104 -85.5 t-75 -18.5z" />
<glyph unicode="_" d="M23 -31q131 -13 261.5 -11.5t250.5 6.5t221.5 9t170.5 -4q69 -5 101 -55t32 -107.5t-24.5 -105t-65.5 -47.5h-171.5t-162 1.5t-164 1.5h-175.5q-110 0 -166.5 48.5t-79.5 107.5q-28 67 -28 156z" />
<glyph unicode="`" horiz-adv-x="1707" d="M453 1915q46 67 111.5 72t138.5 -27t148.5 -91t142 -123t120 -123t82.5 -90q15 -18 17.5 -42t-6.5 -43.5t-25.5 -24.5t-39.5 16q-15 15 -80.5 42t-152.5 64t-182 82t-166.5 93.5t-106 97t-1.5 97.5z" />
<glyph unicode="a" horiz-adv-x="1822" d="M60 337q1 101 39.5 212t115.5 225t189 219q123 113 243.5 169.5t233.5 76.5q73 13 139 13q24 0 46 -2q86 -6 143.5 -24t83 -42t10.5 -42q-20 -20 -34.5 -18t-40 13.5t-67.5 24.5t-119 13q-72 0 -151 -32t-153.5 -87t-137 -129.5t-101.5 -155.5q-59 -123 -65 -217 q-1 -18 -1 -34q1 -70 21 -124q26 -66 72.5 -99t93.5 -33q87 0 151 51t113.5 126.5t88 164t72 164t63 125.5t62.5 50t53.5 -55t38.5 -136t37 -177t50 -176.5t75.5 -135.5t114.5 -55q51 0 99.5 21.5t84.5 50.5q44 31 79 71l98 100q12 23 40 23q36 0 31 -36q0 -3 -27 -36 t-74 -83t-112.5 -107.5t-141 -106t-160 -82t-171.5 -33.5q-92 0 -154.5 60.5t-102.5 134.5t-58 137t-18 70q-5 -8 -53.5 -70.5t-125.5 -136.5t-175.5 -134.5t-203.5 -60.5q-113 0 -187 45t-111 122q-36 75 -36 173v5z" />
<glyph unicode="b" horiz-adv-x="1694" d="M28 -154q-1 25 -1 53q1 114 17 276q20 201 65 454.5t118 516t171.5 512t226.5 445.5t285.5 315t346.5 119q107 0 125 -83q5 -24 6 -52q0 -70 -32 -167q-44 -136 -134 -307.5t-201.5 -350.5t-229.5 -349.5t-212 -300.5q-18 -102 -31 -197t-26 -177q51 102 124 216 t166.5 210t207.5 157.5t250 61.5q143 0 231.5 -52.5t130.5 -135.5q39 -77 39 -172q-1 -8 -1 -16q-4 -105 -43.5 -210t-115 -200t-177.5 -159q-123 -77 -256 -115q-134 -38 -258 -54q-114 -14 -208 -14h-18q-102 2 -164 7q-33 -100 -74 -177t-88.5 -126.5t-99.5 -67.5 q-25 -9 -51 -9q-28 0 -56 11q-28 10 -33 138zM458 187q33 -13 82 -22t109 -9t126.5 16.5t135.5 57.5q67 38 128.5 107.5t107.5 150t75.5 166.5t30.5 162v5q0 71 -28 123q-29 54 -99 72q-21 6 -42 6q-36 0 -74 -16q-60 -26 -121.5 -77t-119 -119t-109 -138t-92.5 -137 t-66 -113q-23 -154 -44 -235zM614 1108q100 141 200 294.5t187 301t156 279.5t105 233q34 94 34 152v8q-2 59 -57 59q-79 0 -147 -55.5t-128 -150t-110 -222.5t-93.5 -275t-79.5 -307t-67 -317z" />
<glyph unicode="c" horiz-adv-x="1336" d="M76 410q-7 51 -7 99q0 56 10 108q18 100 77 215t151 213.5t216.5 164t270.5 65.5q82 0 146 -25.5t108 -67.5t64 -96q16 -41 16 -85q0 -13 -2 -26q-5 -41 -16.5 -82t-30.5 -76.5t-47 -62.5t-64 -42q-33 -18 -72 -18q-59 0 -92 40q-25 30 -25 72q0 13 2 26q10 59 58.5 100 t107.5 41q54 0 85 -36q2 13 2 31q0 16 -2 38q-3 44 -23.5 86t-69 74t-138.5 32q-87 0 -153.5 -75.5t-106 -189.5t-48.5 -247q-2 -30 -2 -60q-1 -99 23 -187q30 -114 103.5 -189.5t199.5 -75.5q74 0 169 31q79 28 189 88t243 183q20 23 35.5 25.5t23.5 -7.5t8 -25.5 t-10 -25.5q-5 -8 -50 -45t-114 -87t-160 -106.5t-192 -103.5t-206 -78t-205 -31q-151 0 -248.5 61.5t-152.5 154t-71 202.5z" />
<glyph unicode="d" horiz-adv-x="1817" d="M58 337q2 101 40 212t114.5 225t189.5 219t225.5 160t217.5 78l7 1q8 2 17 2t18 -2.5t12 -10.5q8 -20 -21 -38q-56 -26 -115 -68t-111.5 -96t-97.5 -113t-73 -118q-59 -123 -64 -220q-1 -16 -1 -31q0 -77 22 -134q26 -68 75.5 -103.5t103.5 -35.5q97 0 167.5 64 t124.5 153q-10 70 -10 157q0 26 1 54q4 120 32 273q54 307 152.5 591.5t235.5 502t309.5 348t377.5 130.5q109 0 121 -82q2 -16 2 -33q0 -74 -42 -184q-52 -134 -152 -306.5t-215.5 -355.5t-230.5 -360t-197 -320q-12 -79 -12 -151q-1 -48 5 -92q14 -110 35 -177 q10 -38 23 -69q0 -5 1.5 -5t1.5 -3t2 -2v-3q28 -82 73 -133t114 -51q51 0 99.5 21.5t84.5 50.5q44 31 82 71l95 100q13 23 41 23q36 0 31 -36q0 -3 -27 -36t-74.5 -83t-112.5 -107.5t-140.5 -106t-160 -82t-171.5 -33.5q-79 0 -137 46t-96 108q-38 44 -69 96t-52 127 q-23 -33 -75.5 -96t-124 -126t-158.5 -109t-179 -46q-113 0 -187 45q-73 45 -111 122q-36 74 -37 170q1 4 1 8zM1349 1111q87 156 184.5 315t187 306t163.5 275q74 129 115 223q43 98 43 152q0 53 -53 53q-79 0 -148 -55.5t-129.5 -150t-114 -222.5t-98.5 -275t-82 -306 t-68 -315z" />
<glyph unicode="e" horiz-adv-x="1336" d="M80 410q-7 51 -8 99q0 56 10 108q18 100 77 215t151 213.5t216 164t270 65.5q118 0 183 -34.5t92 -88.5q23 -46 22 -98v-20q-5 -64 -25 -123q-26 -64 -86 -139.5t-135.5 -149.5t-155 -143t-143.5 -121q38 -82 103.5 -133t167.5 -51q74 0 169 31q79 28 189.5 88t243.5 183 q20 23 35.5 25.5t23 -7.5t7.5 -25.5t-10 -25.5q-5 -8 -50 -45t-114 -87t-160 -106.5t-192 -103.5t-206 -78t-205 -31q-151 0 -248 61.5t-151.5 154t-70.5 202.5zM498 680q-2 -30 -2 -60q0 -101 24 -190q61 46 136.5 106t143.5 125.5t120.5 131t70.5 121.5q21 65 21 114v20 q-6 55 -33 88.5t-71.5 49t-95.5 15.5q-87 0 -156.5 -78.5t-109 -193.5t-48.5 -249z" />
<glyph unicode="f" horiz-adv-x="1167" d="M-74 -772q-1 29 -1 63q0 86 9 206q12 168 43 386.5t78 464.5t112.5 503t148.5 500.5t181.5 458.5t216.5 376.5t251 256t284 94.5q97 0 121 -68q12 -31 12 -71q0 -47 -16 -108q-30 -111 -100 -258.5t-163.5 -306t-198.5 -320t-203 -299.5q26 20 51.5 35.5t53.5 30.5 q41 23 90 23q23 0 47 -5q78 -15 151 -45.5t129.5 -61.5t71.5 -33q15 0 25.5 6t19.5 12.5t16.5 8t15.5 -8.5t6.5 -24.5t-20.5 -40t-57.5 -68t-102.5 -106.5q-44 -44 -90 -46h-9q-42 0 -85 17q-49 19 -97.5 51t-94.5 61.5t-87 47.5q-24 10 -45 10q-16 0 -30 -5 q-28 -13 -51 -28t-36 -31q-46 -236 -84 -457t-67.5 -404t-49 -310t-29.5 -168q-33 -115 -76.5 -208.5t-93.5 -153.5t-107 -85q-29 -12 -58 -12q-27 0 -54 11q-23 8 -28 109zM620 1129q97 141 195.5 292t184 295.5t153.5 275t103 228.5q32 92 32 149v8q-3 58 -57 58 q-100 0 -187 -109t-162.5 -291t-140.5 -417.5t-121 -488.5z" />
<glyph unicode="g" horiz-adv-x="1433" d="M-136 -688q-7 30 -7 62q0 74 38 154q54 114 166.5 234t250.5 235q-138 23 -202 125q-54 87 -54 205q0 21 2 43q11 145 97 311t244 312q120 113 242 169.5t232 76.5q73 13 139 13q24 0 46 -2q86 -6 145 -24t84.5 -42t10.5 -42q-20 -20 -35.5 -18t-40 13.5t-68 24.5 t-120.5 13q-72 0 -150 -32t-152 -87t-138 -129.5t-102 -155.5q-59 -123 -64 -217q-2 -17 -2 -33q0 -72 20 -125q25 -66 72.5 -99t93.5 -33q87 0 152 51t115 126.5t88.5 164t72 164t63 125.5t62.5 50q23 0 39.5 -32t28 -83.5t16.5 -118t5 -135.5q1 -30 1 -62q0 -137 -11 -304 q2 -57 2 -111q0 -227 -44 -400q-55 -214 -155 -354.5t-231.5 -215t-272.5 -95.5q-61 -8 -121 -8q-79 0 -157 15q-137 27 -245 91q-133 77 -156 180zM5 -556q5 -66 65.5 -107t190.5 -41q202 0 325 96t194.5 252t106 353.5t60.5 399.5q-54 -79 -120 -151q-56 -61 -131.5 -123 t-160.5 -97l-5 -6q-105 -44 -201 -115t-170.5 -150.5t-116.5 -161.5q-38 -73 -38 -134q0 -7 1 -15z" />
<glyph unicode="h" horiz-adv-x="1774" d="M13 -254q-1 27 -1 57q0 115 15 273q19 200 64 453.5t118 516t171.5 513.5t226.5 447t285.5 315t346.5 119q81 0 111 -48q22 -35 22 -89q0 -19 -2 -41q-10 -83 -55 -193.5t-110.5 -237t-147.5 -262t-169 -267.5t-170 -253.5t-155 -219.5q-20 -108 -36.5 -207t-29.5 -189 q79 136 177.5 286.5t194.5 277.5t179.5 210t131.5 83q56 0 82 -80.5t37.5 -199.5t16.5 -260t21.5 -260t51 -199.5t103.5 -80.5q51 0 100 21.5t85 50.5q44 31 79 71q28 26 49 49q18 20 32 35.5t16 15.5q5 10 17 16.5t24 6.5q13 0 23.5 -10t7.5 -26q0 -3 -27 -36t-74 -83 t-112.5 -107.5t-141 -106t-160 -82t-171.5 -33.5q-95 0 -155 58t-96 145t-52.5 189t-25.5 189t-15.5 146t-21.5 62h-6q-31 1 -72 -47q-45 -52 -95 -135.5t-98.5 -183.5t-88 -188.5t-66.5 -152.5t-32 -77q-33 -105 -74 -185.5t-89 -133.5q-48 -52 -100 -71q-26 -9 -51 -9 q-27 0 -55 10t-33 138zM594 1011q100 141 199.5 293.5t187 299.5t156.5 280t105 233q34 95 33 153v6q-2 59 -56 59q-79 0 -147 -55t-127 -150t-110.5 -223t-95 -275t-79 -306t-66.5 -315z" />
<glyph unicode="i" horiz-adv-x="1221" d="M20.5 376.5q-2.5 12.5 12.5 30.5q128 141 229.5 296t192 285.5t176.5 216t183 85.5q41 0 55 -46q11 -37 11 -93v-30q-4 -77 -21 -173t-35 -198t-30.5 -198t-12.5 -173t21.5 -123t73.5 -46q51 0 108.5 21.5t106.5 50.5q56 31 112 71l95 100q13 23 41 23q36 0 31 -36 q0 -3 -29.5 -36t-81 -83t-119 -107.5t-147 -106t-166.5 -82t-174 -33.5q-125 0 -184 65.5t-76 161.5q-9 53 -9 111q0 48 6 99q14 114 33.5 210t33.5 161q7 31 7 48t-8 17q-44 -64 -103 -146t-114 -154.5t-94.5 -126.5t-47.5 -62q-15 -18 -33 -21.5t-29.5 3t-14 19zM625 1702 q15 87 86.5 148.5t161.5 61.5t141 -62q39 -48 39 -110q0 -18 -3 -38q-15 -90 -88 -151t-163 -61t-140 62q-38 47 -38 108q0 20 4 42z" />
<glyph unicode="j" horiz-adv-x="1218" d="M-250 -642q-21 63 -21 128q0 68 23 138q46 140 169 282.5t299 267.5q46 33 98.5 56t104 41t100 33.5t86.5 30.5q36 189 62 341q10 64 19 125.5t14 110t6.5 78t-6.5 29.5q-28 -44 -76.5 -102.5t-107.5 -124t-123 -134.5t-127 -129.5t-119 -109t-95 -73.5 q-26 -18 -47.5 -23.5t-30.5 2.5t-1 26t43 43q84 59 170 148.5t170.5 189.5t166.5 200t161.5 179t155 129t147.5 50q84 0 105 -70q10 -37 10 -96q0 -55 -9 -128q-19 -154 -66.5 -398t-101.5 -595t-156 -562.5t-234 -307.5q-124 -90 -263 -90q-9 0 -18 1q-150 6 -302 96 q-161 92 -206 218zM-46 -599q43 -64 125 -87q24 -7 48 -7q66 0 129 54q84 73 153.5 210t119.5 319t75 374h-2q-177 -56 -309 -142t-217.5 -183.5t-126.5 -198.5q-40 -99 -40 -184q0 -89 45 -155zM650 1702q15 87 87 148.5t162 61.5q87 0 138 -62q39 -47 39 -110 q0 -18 -3 -38q-15 -90 -88.5 -151t-160.5 -61q-90 0 -140 62q-37 47 -37 110q0 19 3 40z" />
<glyph unicode="k" horiz-adv-x="1564" d="M13 -169q-1 27 -1 57q0 113 15 272q19 201 64 454.5t118 516t171.5 512t226.5 445.5t285.5 315t346.5 119q81 0 111 -48q22 -35 23 -89q1 -19 -3 -41q-10 -84 -55 -194t-110.5 -236.5t-147.5 -262t-169 -267.5t-170 -253.5t-155 -219.5l-10 -59q54 69 121.5 143.5 t147 140t168 114t185.5 63.5q55 10 101 10q86 -1 138 -35q80 -52 94 -145q3 -20 3 -40q0 -78 -39 -171q-49 -118 -146 -220q-77 -79 -173 -132t-197 -79.5t-201 -30.5q-18 -1 -36 -1q-79 0 -146 15q13 -51 49 -138t106.5 -182t184.5 -182q113 -88 285 -136q155 -44 363 -44 q21 0 43 1q234 5 544 92q41 26 61.5 29.5t24 -5.5t-4 -26.5t-25.5 -35.5q-18 -20 -88.5 -79.5t-175 -129.5t-236.5 -133t-273 -90q-72 -14 -144 -14q-69 0 -139 13q-142 26 -268.5 133.5t-230.5 314.5t-165 545q-15 -100 -27 -172.5t-22 -106.5q-31 -115 -74.5 -208.5 t-93 -152.5t-107.5 -83q-30 -12 -59 -12q-28 0 -55 11q-28 10 -33 138zM507 561l20 -3q20 -4 43 -5q30 -1 66 7q65 12 134.5 44.5t132.5 83t101 111.5t54 127q10 39 10 72q0 22 -4 41q-12 47 -56 61q-12 4 -27 3q-41 0 -103 -30q-61 -31 -117.5 -88.5t-102.5 -121.5 t-82 -127t-59 -106q-5 -18 -5 -34.5t-5 -34.5zM596 1093q100 141 200 294.5t187 301t156 279t105 232.5q34 94 34 152v8q-2 59 -57 59q-79 0 -147 -55t-127 -149.5t-110 -222.5t-94.5 -275.5t-79.5 -307.5t-67 -316z" />
<glyph unicode="l" horiz-adv-x="980" d="M74 709q2 141 19.5 282t37.5 261q97 358 243 642q61 120 140.5 235.5t175.5 206.5t210 146t244 55q131 1 159 -89q11 -35 10 -78q-1 -68 -27 -158q-44 -146 -145.5 -331.5t-226.5 -380.5q-294 -458 -755 -1037l-69 21q420 543 696 970q118 182 218 358t152 312 q46 119 45 198q-1 12 -1 22q-8 84 -102 83q-95 0 -183 -95t-163.5 -251t-134.5 -355.5t-96 -407.5q-37 -206 -51 -406q-6 -92 -7 -175q-1 -97 9 -181q16 -156 65 -251t136 -95q7 -1 14 -1q37 0 86 21q51 20 123 73t164 160q10 13 24 14.5t24.5 -5t14 -19.5t-3.5 -25 q-10 -13 -70.5 -83.5t-156.5 -148.5t-217.5 -141t-254.5 -63q-105 0 -173 59t-107.5 159t-53.5 229q-12 109 -12 228v42z" />
<glyph unicode="m" horiz-adv-x="2803" d="M51 783q10 141 59 254q20 49 52.5 95t78.5 81.5t108.5 57.5t144.5 22q108 1 130 -61q8 -24 8 -53q0 -46 -22 -104q-34 -95 -107 -210t-151 -220t-147 -188t-95 -114q-13 5 -15.5 14t-2.5 19.5t-1 22t-12 21.5q41 36 106.5 110t133.5 165t126.5 187t89.5 174q23 58 23 101 q0 14 -2 27q-10 50 -82 50t-96 -66q-18 -50 -19 -119q0 -23 2 -47q8 -98 40 -213.5t73 -214t83 -165t73 -66.5t75.5 70.5t98.5 175.5t114 228t120 227.5t116.5 175t105.5 70.5h2q5 0 10 -1t11 -1q49 -13 80.5 -79.5t51 -160t31 -201t23.5 -207.5q18 -123 42.5 -208.5 t68.5 -88.5h5q26 5 61.5 52.5t68.5 103.5q38 64 77 144l41 89q46 97 93.5 197t94.5 180.5t94.5 130.5t93.5 50q56 0 82 -80.5t37.5 -199.5t16 -260t21.5 -260t51.5 -199.5t104.5 -80.5q51 0 99.5 21.5t84.5 50.5q44 31 79 71l95 100q5 10 18 16.5t26 6.5q33 0 28 -36 q0 -3 -27 -36t-74.5 -83t-111.5 -107.5t-139.5 -106t-160 -82t-171.5 -33.5q-95 0 -152.5 56.5t-88 139.5t-41 181.5t-14 182t-7.5 140t-19 56.5t-46 -56.5t-76 -140t-98.5 -182t-116.5 -181.5t-129.5 -139.5t-135.5 -56.5h-23h-3h-18q-87 0 -139.5 58t-79 145t-37 189 t-14 189t-9 145t-20.5 58t-44.5 -58t-69.5 -145t-92.5 -189t-116.5 -189t-140.5 -145t-166.5 -58q-72 0 -123 33.5t-87 90t-57.5 126.5t-34.5 145q-21 127 -21 282q0 55 3 114z" />
<glyph unicode="n" horiz-adv-x="1843" d="M44 783q10 141 58 254q20 49 52.5 95t78.5 81.5t108.5 57.5t144.5 22q97 0 123 -50q14 -27 14 -63q0 -30 -10 -68q-22 -80 -79.5 -178.5t-126.5 -198.5q23 -77 51 -147.5t57.5 -124t58 -87t48.5 -33.5q23 0 65.5 70.5t97.5 175.5t116.5 228t124 227.5t121.5 175t105 70.5 q56 0 81.5 -80.5t37 -199.5t16.5 -260t22 -260t51.5 -199.5t103.5 -80.5q51 0 100 21.5t84 50.5q44 31 80 71l97 100q13 23 41 23q36 0 31 -36q0 -3 -27 -36t-74.5 -83t-112.5 -107.5t-140.5 -106t-160 -82t-171.5 -33.5q-95 0 -152.5 56.5t-87 139.5t-41 181.5t-15.5 182 t-6.5 140t-17.5 56.5q-23 0 -59 -56.5t-82 -140t-101 -182t-116.5 -181.5t-130.5 -139.5t-141 -56.5t-123 33.5t-85.5 90t-56.5 126.5t-35 145q-20 125 -20 275q0 58 3 121zM368 968q8 -76 29 -156q54 79 98.5 155.5t64.5 135.5q12 35 11 63q0 18 -5 32q-13 36 -74 36 q-51 0 -81 -36t-40 -95q-6 -34 -6 -73q0 -30 3 -62z" />
<glyph unicode="o" horiz-adv-x="1359" d="M74 617q23 131 89.5 244.5t162.5 198t211.5 134.5t238.5 50t222.5 -50t165.5 -134q65 -84 92 -198q15 -61 15 -128q0 -57 -11 -117q-23 -131 -90 -244.5t-163 -198t-212.5 -134.5t-238.5 -50q-123 0 -221.5 50t-164.5 134q-65 84 -92 198q-15 61 -15 128q0 57 11 117z M471 589q5 -97 39.5 -178t88.5 -133q53 -53 121 -76q38 -13 79 -13q32 0 66 8q74 18 138.5 70.5t110.5 128.5q46 74 70 168q20 77 20 158q0 17 -1 33q-8 97 -42.5 176.5t-88.5 133.5q-53 53 -122 75q-38 12 -77 12q-33 0 -67 -8q-77 -18 -140.5 -70.5t-109.5 -126.5 q-47 -73 -70 -167q-17 -69 -17 -141q0 -25 2 -50z" />
<glyph unicode="p" horiz-adv-x="1367" d="M-190 -896q1 72 8.5 178t24 233t38.5 255t46 243t53 197q41 123 80.5 253.5t80.5 238t85.5 175.5t93.5 68q33 0 44.5 -50t18 -125.5t14 -164t31 -164t69.5 -126.5t133 -51q46 0 105 33t106 98.5t75 158.5q19 60 19 132q0 41 -6 85q-10 82 -47 156t-93.5 129t-124.5 87 t-139 32q-77 0 -124.5 -13t-77 -24.5t-44.5 -14t-28 18.5q-10 18 24.5 42t99.5 42t153 24q24 2 48 2q66 0 136 -13q102 -20 204.5 -76.5t184.5 -169.5q77 -105 112.5 -219t35.5 -225t-34.5 -212t-98.5 -178t-155 -122t-203 -45q-110 0 -187 63t-128 140q-59 87 -100 202 q-46 -202 -61.5 -375t-22 -310t-15 -233t-44.5 -142q-28 -36 -82 -102.5t-113 -125.5t-110 -92q-27 -17 -45 -17q-17 0 -27 14q-13 17 -13 85v5z" />
<glyph unicode="q" horiz-adv-x="1635" d="M22 337q1 101 39.5 212t115 225t189.5 219q123 113 243.5 169.5t232.5 76.5q73 13 139 13q24 0 47 -2q86 -6 144.5 -24t84.5 -42t10 -42q-20 -20 -35.5 -18t-40 13.5t-68 24.5t-119.5 13q-72 0 -151.5 -32t-153.5 -87t-137 -129.5t-101 -155.5q-59 -123 -65 -217 q-2 -18 -2 -36q0 -70 20 -122q26 -66 73.5 -99t93.5 -33q84 0 149.5 51t115.5 126.5t88.5 164t71.5 164t62.5 125.5t63.5 50q49 0 69 -68t24 -175q2 -41 2 -86q0 -72 -5 -152q-6 -131 -9 -254q-3 -13 -2 -36q143 54 280 133.5t229 196.5q8 10 22 16.5t24.5 4t13 -15 t-13.5 -38.5q-13 -20 -67.5 -84t-135.5 -143.5t-179.5 -164t-200.5 -146.5q-23 -138 -55 -291.5t-65.5 -286.5t-64 -227t-48.5 -114q-15 -15 -32 -15q-19 0 -40 17q-41 34 -79.5 93t-70.5 125.5t-44 102.5q-10 23 -10 56q0 46 18 112q32 114 84 277q-61 -15 -112 -22 q-16 -2 -30 -2q-28 0 -45 9q-28 15 -18 52.5t37 79.5t59 80.5t52 51.5q8 5 44 15t89 23q38 151 62 328q-82 -115 -172 -202q-77 -77 -178 -140t-208 -63q-113 0 -187 45t-111 122q-37 74 -37 170q0 4 1 8z" />
<glyph unicode="r" horiz-adv-x="1758" d="M20.5 381.5q2.5 17.5 23.5 43.5q133 154 217.5 267.5t134 194.5t71.5 128t30 68q-36 13 -69.5 23t-43.5 23q-28 20 -42 52q-9 21 -9 48q0 13 2 28q13 61 61.5 104.5t110.5 43.5q56 1 92 -35q33 -33 33 -79v-8v-23q0 -23 -7 -54q51 -15 139 -21.5t179 -13t163 -19.5 t90 -44q18 -33 21.5 -113.5t5 -180.5t4 -206t20.5 -194.5t56 -146t108 -57.5q51 0 108.5 21.5t106.5 50.5q56 31 112 71l95 100q5 10 18 16.5t23 6.5q36 0 31 -36q0 -3 -29.5 -36t-81 -83t-119 -107.5t-147 -106t-166.5 -82t-174 -33.5q-136 0 -212.5 65.5t-112.5 166.5 q-36 100 -41 222q-3 71 -3 139q-1 47 1 93q4 110 6 194q0 12 1 24q0 66 -13 90q-13 20 -41 31.5t-62.5 18t-69 11.5t-57.5 13q-13 0 -28 8q-23 -61 -77 -155t-122 -192.5t-139.5 -190.5t-130.5 -154q-18 -18 -34.5 -23t-25.5 3t-6.5 25.5z" />
<glyph unicode="s" horiz-adv-x="1036" d="M-83 -36q9 13 23 15.5t29.5 -5t17.5 -23.5q26 -82 68 -111q43 -28 85 -30q4 0 7 -1q37 1 69 15q34 16 48 25q10 10 39.5 32t57.5 63q28 42 46 104q10 36 10 81q0 33 -5 71q-13 97 -64 181.5t-110 161.5l-100 -121q-10 -13 -25.5 -15.5t-28.5 5.5q-10 10 -11 24.5t9 26.5 l115 136q-36 46 -66.5 92t-46.5 92q-16 44 -22 99q-3 28 -3 56q-1 28 3 56q6 56 33.5 109.5t81 96t139.5 68t211 25.5q102 0 137 -36q25 -26 25 -64q0 -15 -4 -33q-14 -62 -65.5 -146.5t-120.5 -184.5q36 -46 73 -95.5t70.5 -98.5t62 -91t48.5 -73q19 -31 45 -105 q23 -65 22 -147v-22q-4 -95 -55 -201t-184 -201t-242 -110q-35 -5 -67 -5q-69 0 -125 22q-83 32 -140.5 96t-85.5 125q-13 28 -4 41zM383 1122q-3 -19 -4 -38q0 -34 10 -72q15 -60 62 -121q56 74 95.5 137t51.5 109q4 17 4 30q0 25 -14 41q-20 26 -81 26q-51 0 -83 -31 t-41 -81z" />
<glyph unicode="t" horiz-adv-x="908" d="M-188 1084q27 37 88.5 79.5t144.5 84.5t167 76q28 161 59 326t62 302t57.5 233t47.5 122q36 44 96 109t121.5 121t112.5 87q29 18 47 18q13 0 20 -10q4 -6 4 -21q1 -18 -5 -51q-10 -59 -30.5 -153.5t-48.5 -219t-60 -265t-65.5 -293t-63.5 -300.5q72 -15 141 -34.5 t125 -39t96 -33.5t55 -14q20 0 37 6.5t29.5 13t25.5 7.5t26 -9t10 -24t-28.5 -39.5t-79 -68t-145.5 -106.5q-67 -49 -148 -49q-8 1 -17 1q-91 6 -186 38q-15 -95 -24 -179.5t-12 -155.5q-1 -31 -1 -60q0 -154 36 -254q42 -119 129 -119q44 0 104 36t113 79q64 49 131 115 q15 13 28 23q28 18 49 3q23 -20 5 -35.5t-26 -26.5q-3 -5 -29.5 -37t-72.5 -76.5t-106 -97t-132 -97.5t-152.5 -74.5t-162.5 -29.5q-84 0 -139.5 37.5t-90 95t-51 130.5t-21.5 145q-2 36 -2 70t2 66q5 66 13 107q5 41 28 170t51 298q-41 13 -77 17q-12 1 -23 1q-23 0 -43 -5 q-54 -13 -87.5 -34.5t-56.5 -39.5t-38 -27t-33 4q-17 11 -17 26q0 14 13 31z" />
<glyph unicode="u" horiz-adv-x="1766" d="M73 556v15q0 103 13 209q14 112 39 213q23 92 75 161q52 70 104 106q48 33 82 33q2 -1 4 -1q28 -2 29 -32q0 -7 -2 -16q-15 -82 -21.5 -181.5t-6.5 -201t10.5 -196t29.5 -167.5t49.5 -118t74.5 -45q82 0 151 70.5t126.5 177t106.5 230.5t91 230t78 176.5t69 70.5 q56 0 82 -80.5t36 -199.5t16.5 -260t22 -260t50 -199.5t103.5 -80.5q51 0 101 21.5t86 50.5q44 31 79 71l95 100q5 10 17.5 16.5t25.5 6.5q33 0 28 -36q0 -3 -26.5 -36t-74 -83t-111.5 -107.5t-141 -106t-160 -82t-170 -33.5q-95 0 -151 46t-84.5 115.5t-37.5 148.5 t-11.5 148.5t-5 115.5t-17.5 46q-67 -174 -151 -310q-36 -59 -78.5 -114t-88.5 -98.5t-97 -70.5t-105 -27q-90 0 -152.5 46t-102 124.5t-59 180t-20.5 213.5z" />
<glyph unicode="v" horiz-adv-x="1208" d="M67 783q10 141 58 254q20 49 52.5 95t78.5 81.5t109 57.5t144 22q97 0 124 -50q15 -28 15 -65q0 -30 -10 -66q-22 -80 -79 -178.5t-126 -198.5q23 -77 51 -147.5t56 -124t56.5 -87t48.5 -33.5t58.5 48.5t88.5 126.5t107.5 177t113 196t105 184t85.5 144q13 18 29.5 24 t29.5 3.5t18 -14t-5 -31.5q-31 -61 -73 -141t-81 -149q-46 -82 -92 -163q-118 -212 -233 -379q-49 -72 -102.5 -140t-107.5 -120.5t-105 -84.5t-94 -32q-72 0 -123.5 33.5t-87 90t-57.5 126.5t-35 145q-20 125 -20 275q0 58 3 121zM378 1100q-2 -23 -3 -49q1 -41 7 -89 q10 -76 30 -158q54 79 96 157q42 79 59 139q9 32 9 56q0 23 -8 41q-16 37 -76 37q-54 0 -81 -37t-33 -97z" />
<glyph unicode="w" horiz-adv-x="1948" d="M56 783q10 141 59 254q20 49 52.5 95t78.5 81.5t108.5 57.5t144.5 22q97 0 123 -50q14 -27 14 -63q0 -30 -10 -68q-22 -80 -79.5 -178.5t-126.5 -198.5q23 -77 51 -147.5t57.5 -124t57.5 -87t49 -33.5q26 0 83.5 82t131.5 205q5 95 18 188t36 175q23 92 75.5 161.5 t103.5 105.5q48 33 81 33q2 -1 4 -1q29 -2 29 -34q0 -7 -1 -14q-15 -82 -22 -181.5t-7 -201t10.5 -196t29.5 -167.5t50 -118t74 -45q61 0 120 58t110.5 136t88.5 156t55 119q15 38 38 97t45 120.5t41 114t30 80.5q10 28 26.5 41t30.5 13t23 -14t1 -40t-41 -115.5t-76.5 -201 t-88 -220t-75.5 -172.5q-31 -67 -79.5 -155t-110 -167.5t-133 -136t-151.5 -56.5q-82 0 -140.5 38.5t-98.5 105t-63 153.5t-31 187q-54 -82 -115 -167.5t-125 -156t-125.5 -115.5t-112.5 -45q-72 0 -123 33.5t-85.5 90t-56.5 126.5t-35 145q-21 128 -21 282q0 56 3 114z M368 1100q-3 -24 -3 -51q0 -41 6 -87q10 -76 31 -158q54 79 96 157q42 79 58 139q8 30 8 54t-8 43q-16 37 -77 37q-54 0 -79.5 -37t-31.5 -97z" />
<glyph unicode="x" horiz-adv-x="1413" d="M-354.5 -435.5q-3.5 15.5 8 33.5t36.5 31q15 8 59 27t119.5 71.5t184 146t252.5 251.5q-105 84 -154 197t-69 216q-17 89 -17 181q0 32 2 64q8 141 56 254q20 49 52 95t78.5 81.5t109 57.5t144.5 22q97 0 124 -50q15 -28 15 -64q0 -31 -10 -67q-22 -80 -79.5 -178.5 t-126.5 -198.5q20 -67 57.5 -142.5t88.5 -147.5q118 146 251 324t287 403q26 38 47.5 50t33 4.5t9.5 -31t-26 -53.5q-13 -15 -56.5 -85.5t-115.5 -175.5t-166.5 -235.5t-207.5 -269.5q67 -74 151.5 -120t184.5 -46q110 0 190.5 21.5t134.5 50.5q64 31 105 71l94 100 q13 23 41 23q36 0 31 -36q0 -3 -25.5 -36t-75.5 -83t-121.5 -107.5t-164 -106t-205 -82t-242.5 -33.5q-115 0 -202.5 22t-153.5 63q-159 -169 -325.5 -308.5t-335.5 -221.5q-31 -13 -47.5 -5.5t-20 23zM376 1100q-3 -26 -3 -55q0 -39 6 -83q10 -76 31 -158q54 79 96 157 q42 79 58 139q9 31 9 56q1 23 -7 41q-16 37 -77 37q-54 0 -79.5 -37t-33.5 -97z" />
<glyph unicode="y" horiz-adv-x="1461" d="M-116 -343q19 87 83 180.5t156 188t206 187t232 176.5q64 46 99.5 68t52.5 28.5t17 0t-11 -22.5q-23 -33 -94 -105l156 95q8 3 -27 -30.5t-81 -74.5q-54 -46 -125 -107q-102 -46 -199.5 -116.5t-170.5 -151.5t-116 -163q-38 -74 -38 -135v-11q4 -66 64 -107t191 -41 q136 0 234.5 43.5t169 121.5t117.5 183t78 228t50 256t37 269q-82 -115 -171 -205q-77 -77 -178 -139.5t-209 -62.5q-169 0 -249 82q-80 83 -80 220q0 133 68 298q69 168 200 342q49 64 90 88q26 17 45 17q9 0 17 -5q19 -11 19 -47q0 -7 -1 -15q-4 -48 -45 -130 q-79 -159 -81 -269q-1 -7 -1 -13q0 -101 36 -165q38 -68 99.5 -98.5t107.5 -30.5q84 0 151 55t117 138t89.5 180.5t73 180.5t64 138t63.5 55q23 0 40 -34.5t27 -90.5t15 -129t5 -148q1 -29 1 -60q0 -153 -13 -339q2 -56 2 -110q0 -228 -45 -400q-55 -214 -156 -355 t-233 -215t-271 -94q-61 -9 -122 -9q-78 0 -155 15q-137 26 -244 90q-105 61 -141 140q-23 50 -23 105q0 29 7 60z" />
<glyph unicode="z" horiz-adv-x="801" d="M-28 -579q-5 27 -5 54q1 61 25 119q34 83 101.5 164t161 163t196 166.5t203.5 175t188 190.5q10 15 28 19t29.5 0t13 -18t-16.5 -37q-20 -23 -79 -83t-126 -124q-77 -74 -166 -161q-154 -110 -266 -215q-49 -46 -92.5 -95t-74.5 -96q-32 -47 -44 -93q-6 -23 -6 -44 q0 -22 7 -41q18 -56 55 -74q35 -17 71 -17h5q38 1 70 16.5t42 23.5q10 10 41 33t59 64t44 103q9 35 10 79q0 34 -6 74q-13 90 -56.5 168t-95.5 148.5t-101 135.5t-69 132q-12 38 -20 92q-4 32 -5 66q0 21 2 45q5 58 24 113t58 98q18 26 73 86t120 124t129 115.5t100 58.5 q-33 -3 -82 -5q-22 -1 -44 -1q-28 -1 -56 1q-51 2 -96 14t-69 33.5t-21.5 56.5t48.5 88q84 100 140.5 141t90 46t42.5 -16.5t-2 -49.5q-5 -15 -30.5 -56.5t-37.5 -82.5q-5 -17 -4 -33q0 -20 8 -36q12 -22 60 -22q14 0 30 2q77 8 152.5 16.5t139.5 11.5q20 1 39 1q40 0 71 -4 q46 -6 59 -28q10 -13 -17 -39.5t-73 -62.5t-106 -79.5t-117.5 -86t-106.5 -83t-74 -71.5q-38 -49 -66.5 -92.5t-37.5 -89.5q-3 -15 -3 -31q0 -33 13 -70q19 -55 78 -124q44 -67 113 -147.5t141 -213.5q36 -66 50 -152q6 -35 6 -71q-1 -52 -13 -106q-20 -91 -77.5 -182 t-165.5 -162q-113 -83 -217 -117q-83 -28 -152 -27q-17 -1 -33 1q-82 8 -137 58.5t-70 142.5z" />
<glyph unicode="{" horiz-adv-x="1305" d="M-11022 -1957q-4 32 11 78q8 23 35 97t101 174t210 214t362.5 219t556.5 188t793.5 119t1075.5 14t1398 -124q932 -123 1716.5 -187t1436 -78t1177.5 14t946 87t741 142.5t559 180.5q840 340 978 896q15 84 -10.5 180t-83 178t-145.5 138.5t-201 66.5t-246 -40t-279 -180 q-51 -46 -66.5 -47.5t-14 15t6.5 28.5l13 35q74 72 161 128q74 49 172.5 89.5t213.5 40.5q74 0 160 -10t169.5 -38.5t155 -81t119 -137t62.5 -203.5t-13 -285q-18 -100 -59 -228t-128 -269t-230 -286.5t-363.5 -281.5t-526.5 -252.5t-720.5 -198.5t-947 -120t-1204.5 -16.5 t-1493.5 108.5t-1812.5 259q-1157 200 -2003 240.5t-1414.5 -41t-878.5 -272.5t-394 -455q-20 -77 -42 -107.5t-36 -26.5t-18 36z" />
<glyph unicode="|" d="M497 -550q59 289 111 578t97 550.5t83.5 483t71.5 377.5q31 156 56.5 235.5t39.5 93.5t14 -29.5t-18 -135.5q-36 -197 -68 -376.5t-64 -357.5t-65 -359.5t-71 -384.5q-23 -120 -42.5 -213.5t-36 -162.5t-30.5 -119t-27 -83q-28 -79 -51 -97z" />
<glyph unicode="}" horiz-adv-x="1305" d="M-4889.5 -1962q-2.5 32 12.5 78q8 23 32.5 97t84.5 176.5t163.5 218t268.5 221.5t403.5 189t564.5 119t752.5 11.5t969.5 -131.5q489 -97 864 -105t655 48.5t474.5 160t322.5 226.5q300 289 356 725q15 84 -9 180t-83 178t-147 138.5t-199.5 66.5t-244.5 -40t-279 -180 q-51 -46 -68 -47.5t-15.5 15t5.5 27.5l14 35q77 72 164 128q74 49 172.5 90t213.5 41q74 0 160 -10t168 -38.5t153.5 -81t119 -137t64 -204.5t-11.5 -284q-31 -166 -113 -349.5t-226.5 -353.5t-353 -314.5t-489 -230.5t-636.5 -101.5t-796 74.5q-440 87 -847 130.5 t-764.5 43.5t-658 -46t-531 -135.5t-381.5 -221.5t-207 -309q-20 -77 -42 -107.5t-37.5 -26.5t-18 36z" />
<glyph unicode="~" horiz-adv-x="1707" d="M481 1561.5q-13 7.5 2.5 30.5t77.5 64q133 87 240.5 111.5t193 13t153.5 -46t122 -65.5t97.5 -45t81.5 17q18 15 46 21.5t43.5 1.5t9 -23t-57.5 -51q-97 -74 -172.5 -94.5t-137 -12t-114 36.5t-106.5 54q-113 49 -207.5 62t-161.5 -39q-33 -26 -65 -34.5t-45 -1z" />
<glyph unicode="&#xa1;" horiz-adv-x="678" d="M-21 -735q18 74 63 188t102.5 248.5t122.5 278t123 278t100 247t55 186.5q26 -23 38 -84q13 -51 14.5 -151t-27.5 -269q-26 -169 -62.5 -345.5t-76.5 -331.5t-81 -273t-79 -169q-36 -49 -95 -65.5t-110 5.5t-80.5 84.5t-6.5 172.5zM460 1201q-13 -74 32 -127t119 -50 q77 3 137 58t73 129t-34.5 125.5t-121.5 48.5t-133 -56.5t-72 -127.5z" />
<glyph unicode="&#xa2;" horiz-adv-x="1336" d="M76.5 410q-15.5 110 2.5 207q15 95 70.5 203.5t141 204.5t199.5 165.5t250 81.5q0 15 2 26q5 28 28.5 48.5t51.5 20.5t44.5 -20.5t11.5 -48.5q-3 -15 -13 -28q64 -13 115.5 -41t84.5 -69t48.5 -88.5t12.5 -96.5q-5 -41 -16.5 -82t-30.5 -76.5t-47 -62.5t-64 -42 q-33 -18 -72 -18q-59 0 -92 39.5t-23 98.5t58.5 100t107.5 41q54 0 85 -36q3 23 1.5 61.5t-18.5 78t-52.5 73t-104.5 43.5l-3 -5q-5 -26 -25.5 -42.5t-46.5 -16.5t-39.5 15.5t-8.5 38.5q-56 -23 -103.5 -82t-79.5 -138.5t-47.5 -171.5t-13 -184t25.5 -175.5t69 -144.5 q28 33 72 33q33 0 51 -23t13 -56q-3 -23 -21 -44q49 -23 116 -23q74 0 169 31q79 28 189 88t243 183q20 23 35.5 25.5t23.5 -7.5t8 -25.5t-10 -25.5q-5 -8 -41 -38.5t-93.5 -73t-134.5 -92.5t-164 -96t-180.5 -83t-185.5 -55q5 -15 2 -25q-5 -28 -26.5 -47.5t-49.5 -19.5 t-43.5 19t-10.5 48l2 12h-2q-151 0 -248.5 61.5t-152.5 154t-70.5 202.5z" />
<glyph unicode="&#xa3;" horiz-adv-x="1128" d="M-1070 -265q-10 60 27 124t111 110q33 20 135.5 41t255 39t340.5 33t396 28q41 538 120 914t181.5 623t219 383t231.5 197q271 141 586 -36q67 -46 80 -84.5t-6.5 -60t-59 -21.5t-78.5 33q-84 69 -181.5 100t-201 -10t-207 -166.5t-201 -365t-182 -606.5t-148.5 -892 q233 13 470 20.5t448 11.5t381.5 0t272.5 -14q200 -20 331.5 -76.5t213.5 -115.5q95 -69 149 -151q-138 20 -312.5 27.5t-369 4t-404.5 -15t-422.5 -28.5t-423.5 -38.5t-406 -42.5q-44 -253 -68 -418t-24 -198q0 -64 -24 -110.5t-51 -49t-47.5 51.5t-12.5 189q5 56 24 191 t50 327q-164 -18 -310 -35t-265 -29.5t-207.5 -20.5t-134.5 -8q-136 0 -201 42.5t-75 102.5zM243 1347q131 -13 261.5 -12t249.5 6.5t221.5 9.5t171.5 -4q69 -5 101 -55t32 -108t-24.5 -105t-65.5 -47h-171.5t-162 1t-164 1h-175.5q-110 0 -166.5 49t-79.5 107 q-28 67 -28 157z" />
<glyph unicode="&#xa4;" horiz-adv-x="1707" d="M415 484q5 38 28 71.5t54 53.5q-67 156 -34 343q36 189 151 336q-33 26 -47 64t-4 87q13 74 74.5 126.5t135.5 52.5q51 0 87 -25.5t51 -69.5q128 56 254 57q108 0 194.5 -36t153.5 -103l3 18q10 59 58.5 100t107.5 41t92 -41t23 -100t-58.5 -100t-107.5 -41q-23 0 -34 3 q41 -77 56.5 -170.5t-4.5 -198.5q-15 -92 -54 -176.5t-97 -158.5q41 -5 65 -38.5t17 -76.5q-8 -49 -49 -82t-90 -33q-41 0 -66.5 21.5t-27.5 57.5q-90 -67 -192.5 -104t-209.5 -37q-146 0 -261 72q-28 -31 -65.5 -49t-78.5 -18q-67 0 -102.5 43.5t-22.5 110.5zM860 924 q5 -97 39.5 -177.5t88.5 -133t121.5 -76t144.5 -5.5q74 18 138.5 70.5t110.5 128t70 169t19 191.5q-8 97 -42 176.5t-88 133t-122 75.5t-144 4q-77 -18 -141 -70.5t-110 -127t-69.5 -168t-15.5 -190.5z" />
<glyph unicode="&#xa5;" horiz-adv-x="1896" d="M430 -476q-5 8 15.5 63t59 142t91 194.5t105.5 219.5q128 261 295 589q-143 451 -261 812q-51 154 -98.5 303.5t-87.5 269.5t-65.5 201t-30.5 96q-13 31 -5 51.5t23 27t37 -1.5t40 -31q15 -20 42 -95.5t63 -187t75.5 -250t80.5 -280.5t80.5 -280t71.5 -252t56.5 -192 t34.5 -101q146 343 285.5 594t269 428.5t247 290.5t217.5 179.5t179.5 94.5t135.5 36q84 13 130.5 7.5t60.5 -22t-3 -39.5t-63 -49q-123 -15 -263.5 -144.5t-288 -327.5t-293 -448t-281.5 -509.5t-253.5 -508t-210 -443t-150 -317.5t-70.5 -133q-28 -18 -71.5 -24.5 t-84.5 -2.5t-74 14t-41 26zM522 425q105 -10 211.5 -9t203.5 5t180.5 6.5t139.5 -2.5t81.5 -46t25.5 -87t-20 -84.5t-54 -38.5q-146 0 -272.5 1.5t-275.5 1.5q-90 0 -134.5 38t-64.5 87q-23 56 -21 128zM573 717q105 -10 211.5 -9t203.5 5t180.5 6.5t139.5 -2.5t82 -46 t26 -87t-20.5 -84.5t-54.5 -38.5q-146 0 -272.5 1t-274.5 1q-90 0 -135 38.5t-65 87.5q-23 56 -21 128z" />
<glyph unicode="&#xa6;" horiz-adv-x="266" d="M41 -243q31 123 54 245.5t41 234t34.5 206t34.5 161.5q15 67 34.5 100t33.5 39.5t20.5 -12.5t-1.5 -58q-28 -166 -59 -312t-64 -317q-20 -102 -40.5 -160t-41.5 -86q-23 -33 -46 -41zM241 829q31 123 53.5 246t40.5 234.5t34.5 206t34.5 161.5q15 67 34.5 100t33.5 39.5 t20.5 -13t-0.5 -57.5q-31 -166 -60.5 -312t-62.5 -318q-20 -102 -41 -159.5t-41 -86.5q-23 -33 -46 -41z" />
<glyph unicode="&#xa7;" horiz-adv-x="1059" d="M-8 -348q8 13 22 15.5t28 -5.5t19 -23q26 -82 68.5 -111.5t86 -30.5t78 14t46.5 26q10 10 38.5 31.5t56.5 62.5t46 104t8 152q-13 97 -65.5 182t-111.5 161l-41 57q-36 46 -65 92t-45 92q-20 61 -25 145.5t29.5 161.5t121.5 133.5t253 66.5q-20 26 -43 63l-46 74 t-41 71.5t-26 57.5q-20 64 -25.5 152.5t35.5 168t141 134.5t289 55q102 0 137 -36t22 -97.5t-65.5 -146t-121.5 -184.5q38 -46 75.5 -96t70.5 -98.5t61.5 -90.5t48.5 -73q18 -31 45 -105t23 -169t-55 -201t-184 -201q-46 -33 -82 -51q8 -15 28 -46t46 -105t22 -169t-54 -201 t-183 -201t-242 -110.5t-193.5 16.5t-142 96t-83.5 126q-13 28 -5 41zM462 716.5q14 -84.5 62.5 -174t123.5 -150.5q33 41 54.5 106t9.5 162q-13 84 -40 141t-70 118q-8 3 -18 3q-82 0 -109 -60.5t-13 -145zM682 1583q-9 -50 6.5 -110t61.5 -121q56 74 96 136.5t51.5 109 t-9.5 72t-82 25.5q-51 0 -83 -31t-41 -81z" />
<glyph unicode="&#xa8;" horiz-adv-x="1707" d="M637 1654q13 74 74.5 129t135.5 58t120.5 -50t33.5 -127t-72 -128t-135 -56q-74 -3 -120.5 48.5t-36.5 125.5zM1096 1654q13 74 74 129t136 58q74 3 120 -50t33 -127t-71.5 -128t-135.5 -56q-74 -3 -120 48.5t-36 125.5z" />
<glyph unicode="&#xa9;" horiz-adv-x="2787" d="M105 47.5q-41 280.5 13 600.5q56 320 195.5 601.5t333 490t424 330t468.5 121.5t424.5 -121.5t305.5 -330t160 -490t-15 -601.5q-38 -212 -113.5 -409.5t-179.5 -369t-234.5 -311t-275 -240.5t-300.5 -156t-315 -55q-238 0 -425 121.5t-306 330t-160 489zM476 594 q-3 -266 69 -487.5t197.5 -374t295.5 -223t362 -34.5q195 36 367.5 169t302 333t206.5 448t79 517q3 269 -67.5 490.5t-196 372.5t-295.5 221.5t-365 34.5t-366.5 -169t-300.5 -333t-207 -448t-81 -517zM722 410q-15 110 2 207q18 100 77 215t151 213.5t216.5 164 t270.5 65.5q82 0 146 -25.5t107.5 -68t64 -96t15.5 -110.5q-5 -41 -17 -82t-31 -76.5t-47 -62.5t-64 -42q-33 -18 -72 -18q-59 0 -92 39.5t-23 98.5t58.5 100t107.5 41q54 0 85 -36q3 26 0 69.5t-23.5 85.5t-69 74t-138.5 32q-87 0 -153.5 -75.5t-106 -189.5t-48.5 -247 t21.5 -247t103.5 -189.5t199 -75.5q74 0 169 31q79 28 189 88t243 183q20 23 36 25.5t23.5 -7.5t7.5 -25.5t-10 -25.5q-8 -8 -51.5 -45t-112.5 -87t-160 -106.5t-192 -103.5t-206 -78t-205 -31q-151 0 -248.5 61.5t-152.5 154t-70 202.5z" />
<glyph unicode="&#xaa;" horiz-adv-x="1822" d="M247 1100q1 101 39.5 212t115.5 225t189 219q123 113 243.5 169.5t233.5 76.5q100 18 185.5 11.5t143 -24.5t83 -42t10.5 -42q-20 -20 -34.5 -18t-40 13.5t-67.5 24.5t-119 13q-72 0 -151 -32t-153.5 -87t-137 -129.5t-101.5 -155.5q-59 -123 -65 -216.5t19.5 -159 t72.5 -98.5t94 -33q87 0 151 51t113.5 126.5t88 164t72 164t63 125.5t62.5 50t53.5 -55t38.5 -136t37 -177t50 -176.5t75.5 -135.5t114.5 -55q51 0 99.5 21.5t84.5 50.5q44 31 79 71l98 100q12 23 40 23q36 0 31 -36q0 -3 -27 -36t-74 -83t-112.5 -107.5t-141 -106t-160 -82 t-171.5 -33.5q-92 0 -154.5 60.5t-102.5 134.5t-58 137t-18 70q-5 -8 -53.5 -70.5t-125.5 -136.5t-175.5 -134.5t-203.5 -60.5q-113 0 -187 45t-111 122t-36 178z" />
<glyph unicode="&#xab;" horiz-adv-x="977" d="M161 602q3 20 39 74t87 121.5t112.5 139.5t120.5 129.5t106 92t73 29.5q36 -8 60 -54t33 -103.5t5.5 -112.5t-26.5 -86q-20 -28 -83 -78t-131 -102.5t-123 -98.5t-58 -67q-3 -15 14 -36.5t42.5 -50t55 -58t51.5 -59t31 -56t-7 -44.5q-13 -20 -48.5 -2.5t-81.5 57 t-96 93.5t-90 106.5t-65.5 98.5t-20.5 67zM417 602q3 20 39 74t87 121.5t112.5 139.5t120.5 129.5t107.5 92t71.5 29.5q36 -8 60 -54t33 -103.5t5.5 -112.5t-26.5 -86q-20 -28 -83 -78t-131 -102.5t-123 -98.5t-58 -67q-3 -15 14 -36.5t42.5 -50t55 -58t51.5 -59t31 -56 t-7 -44.5q-13 -20 -48.5 -2.5t-81.5 57t-96 93.5t-90 106.5t-65.5 98.5t-20.5 67z" />
<glyph unicode="&#xac;" horiz-adv-x="1052" d="M87 835q131 -13 261.5 -12t249.5 6.5t221.5 9.5t171.5 -4q46 -3 70 -48t30.5 -106t-1 -129t-21.5 -122t-32 -82t-33 -8q-69 87 -145 125.5t-156.5 51.5t-166 9t-178.5 -4q-110 0 -166 49t-79 107q-28 67 -26 157z" />
<glyph unicode="&#xad;" horiz-adv-x="1134" d="M230 704l21 115h911l-20 -115h-912z" />
<glyph unicode="&#xae;" horiz-adv-x="2787" d="M113 98.5q-41 280.5 15 600.5q36 212 112.5 409.5t181.5 369t234.5 312t275.5 241.5t302 156.5t315 55.5q238 0 425 -122t306 -330.5t160 -490t-16 -601.5q-38 -212 -113.5 -409.5t-180.5 -369t-235.5 -311t-275 -240.5t-301 -156t-314.5 -55q-238 0 -425 121.5t-306 330 t-160 489zM468.5 381.5q-2.5 -17.5 7.5 -25.5t27 -3t35 23q59 61 130.5 153.5t139.5 191t121.5 192t76.5 155.5q15 -8 28 -8q23 -8 57.5 -13t69.5 -11.5t63 -18t41 -31.5q15 -28 12.5 -113t-6.5 -195t1 -231.5t41 -222.5t113 -166.5t212 -65.5q87 0 174.5 33.5t166.5 82 t147 106t119 107.5t80.5 83.5t29.5 35.5q5 36 -31 36q-10 0 -22.5 -6.5t-17.5 -16.5l-95 -100q-56 -41 -113 -71q-49 -28 -106.5 -50t-108.5 -22q-69 0 -107.5 57.5t-56.5 146t-20.5 194.5t-3.5 206t-5 180.5t-22 113.5q-18 31 -89.5 44t-162.5 19.5t-179.5 12.5t-139.5 22 q8 31 8 54v23q3 51 -33 86.5t-93 35.5q-61 0 -109.5 -43.5t-61.5 -104.5q-8 -44 6 -76t43 -52q10 -13 43 -23t69 -23q-8 -20 -29.5 -67.5t-71.5 -128.5t-134.5 -194.5t-217.5 -267.5q-23 -26 -25.5 -43.5zM486 645q-3 -266 69 -487.5t197.5 -374t294.5 -223t364 -34.5 t367.5 169t301.5 333t206 448t79 517q3 269 -68.5 490.5t-197 372.5t-296 221.5t-362.5 34.5q-195 -36 -367.5 -169t-301.5 -332.5t-206 -448t-80 -517.5z" />
<glyph unicode="&#xaf;" d="M430 1687q128 -13 260 -11.5t251 6.5t221.5 9t171.5 -4q69 -5 99.5 -44.5t30.5 -83t-25.5 -79.5t-66.5 -36h-171.5t-162.5 1t-164 1h-175q-110 0 -165 37.5t-78 83.5q-28 51 -26 120z" />
<glyph unicode="&#xb0;" horiz-adv-x="778" d="M404 1692q10 54 40 102.5t72 85.5t94.5 57.5t106.5 20.5t98.5 -20.5t75.5 -57.5t43.5 -85.5t2.5 -102.5t-39.5 -102.5t-72 -85.5t-95 -57.5t-105.5 -20.5q-54 0 -99 20.5t-75.5 57.5t-43.5 85.5t-3 102.5zM591 1672q-13 -72 20.5 -122t92.5 -50t110 50t64 122 t-21.5 121.5t-93.5 49.5t-109 -49.5t-63 -121.5z" />
<glyph unicode="&#xb1;" d="M136 90q128 -13 259.5 -12t250.5 6.5t221.5 9.5t171.5 -4q69 -5 100 -55t32 -108t-24.5 -105t-66.5 -47h-171.5t-162 1t-164 1h-175.5q-110 0 -166.5 49t-79.5 107q-28 67 -25 157zM266 835q131 -13 261.5 -12t249.5 6.5t221.5 9.5t171.5 -4q69 -5 99.5 -55t32 -108 t-24 -105t-66.5 -47h-172t-162.5 1t-163.5 1h-175q-110 0 -166.5 49t-79.5 107q-28 67 -26 157zM548 131q36 131 59 262.5t39.5 250.5t29.5 218.5t33 171.5q18 72 74.5 111.5t116.5 50t103.5 -6.5t35.5 -57q-15 -90 -29 -172t-29.5 -162.5t-31 -164t-30.5 -175.5 q-20 -110 -79 -174t-126 -100q-77 -41 -166 -53z" />
<glyph unicode="&#xb2;" horiz-adv-x="1374" d="M287 1030.5q0 52.5 12 70.5q10 18 37 25.5t85 19t151 34.5t237 74q108 38 175.5 103.5t99.5 140t33.5 151.5t-22 138t-68 99.5t-103.5 38.5q-87 0 -153.5 -20.5t-116.5 -47.5t-83.5 -53.5t-48.5 -39.5q-28 -20 -43.5 -19t-20.5 12.5t-2.5 27t12.5 22.5q8 8 67 62 t148.5 119t197 121.5t211 66.5t192 -43.5t139.5 -209.5q38 -110 21.5 -203.5t-69 -169t-131.5 -137t-167.5 -109t-178 -82t-161.5 -60t-118 -39.5t-48 -22q-5 -10 47.5 -15.5t133 -8t176.5 -2.5t180.5 -1t146 -3.5t71.5 -10.5q15 -10 6 -46t-29.5 -77t-47 -79.5t-44.5 -56.5 q-13 -10 -77 -17.5t-153.5 -12.5t-192 -6.5t-193.5 -1.5t-156 2.5t-78 7.5q-20 5 -37 50t-27 100t-10 107.5z" />
<glyph unicode="&#xb3;" horiz-adv-x="1256" d="M243.5 1103.5q2.5 12.5 11.5 21.5t23 9t32 -18q10 -10 33 -32t61.5 -45t95 -39.5t138.5 -16.5q56 0 113.5 36t98.5 93.5t60 125.5t4 134q-13 31 -33.5 49t-40.5 28q-26 10 -49 15q-33 0 -55 8t-16 23q3 13 25.5 22t55.5 9q31 0 56.5 12.5t46 29.5t36 34.5t23.5 30.5 q36 64 39.5 130.5t-19.5 121.5t-65 91t-99 36q-82 0 -144.5 -16.5t-108.5 -39.5t-77 -45t-46 -32q-23 -18 -37 -18t-20.5 9t-2.5 23t14 22q5 5 37 32t83.5 65.5t118 80.5t139.5 74t148.5 47.5t143 2.5t124 -63t94.5 -147q36 -92 23.5 -167.5t-59 -138.5t-117 -114 t-149.5 -89q67 -38 119.5 -89.5t75.5 -115.5t9 -139.5t-81 -167.5q-95 -131 -194.5 -176t-194.5 -36t-178 55.5t-146 101.5t-101 99.5t-43 52.5q-8 8 -5.5 20.5z" />
<glyph unicode="&#xb4;" horiz-adv-x="1707" d="M741.5 1519.5q6.5 16.5 39.5 29.5q23 8 89.5 55t157.5 110t192 129.5t190.5 111t156.5 56.5t87 -32q28 -64 -8 -121.5t-112.5 -110t-179 -97.5t-203.5 -81t-188 -62.5t-134 -39.5q-26 -8 -48.5 0t-34 22t-5 30.5z" />
<glyph unicode="&#xb5;" horiz-adv-x="1766" d="M-172 -663q38 161 73 346.5t67 372.5t60 362.5t51 316.5q13 141 46 258q23 92 75.5 161.5t104 105t86 33t26.5 -48.5q-15 -82 -21.5 -181.5t-6.5 -201t10.5 -196t29.5 -167.5t49.5 -118t74.5 -45q82 0 151 70.5t126.5 177t106.5 230.5t91 230t78 176.5t69 70.5 q56 0 82 -80.5t36 -199.5t16.5 -260t22 -260t50 -199.5t103.5 -80.5q51 0 101 21.5t86 50.5q44 31 79 71l95 100q5 10 17.5 16.5t25.5 6.5q33 0 28 -36q0 -3 -26.5 -36t-74 -83t-111.5 -107.5t-141 -106t-160 -82t-170 -33.5q-95 0 -151 46t-84.5 115.5t-37.5 148.5 t-11.5 148.5t-5 115.5t-17.5 46q-67 -174 -151 -310q-36 -59 -78.5 -114t-88.5 -98.5t-97 -70.5t-105 -27q-82 0 -143 41q-5 -44 -10.5 -89.5t-15.5 -97.5q-31 -172 -98.5 -271.5t-136.5 -153.5q-82 -64 -175 -84z" />
<glyph unicode="&#xb7;" horiz-adv-x="537" d="M292 832q13 74 74.5 129t135.5 58t119 -50t34 -127q-13 -74 -73 -128t-134 -56q-74 -3 -121.5 48.5t-34.5 125.5z" />
<glyph unicode="&#xb8;" horiz-adv-x="1154" d="M127 -384q6 13 21.5 14t31 -2.5t15.5 -8.5t47 -20.5t111 -19.5t125.5 18t87.5 91t-4 87t-79.5 16.5t-99.5 -9t-66 10.5q-15 18 3 56t45 80.5t52 78t28 48.5t37.5 17t73.5 6q46 3 102 0q-33 -38 -62 -71q-23 -28 -40.5 -60t-12.5 -53q3 -15 27 -7.5t56 20.5t66.5 23 t61.5 -1.5t41 -50t1 -122.5t-61.5 -135.5t-117.5 -78.5t-146 -33.5t-146 1.5t-120 24.5t-64 36.5q-20 31 -14 44z" />
<glyph unicode="&#xb9;" horiz-adv-x="1169" d="M298.5 1820q6.5 18 26.5 33q15 10 52 43.5t87 77t106.5 91t111.5 87t102.5 65t77.5 25.5q44 0 89 -24t78 -64t51 -91t8 -102q-5 -33 -20.5 -128t-36 -218t-45 -258.5t-48.5 -252t-48.5 -198.5t-42.5 -97q-31 -23 -91 -18t-119 28t-103.5 61.5t-44.5 81.5q0 28 18 113 t43.5 195t53.5 229t46 218.5t22 165t-17 65.5q-33 0 -74 -18t-80.5 -42t-75.5 -50t-59 -44q-26 -18 -42.5 -16.5t-24 13t-1 29.5z" />
<glyph unicode="&#xba;" horiz-adv-x="1359" d="M263 1426q23 131 89.5 244.5t162.5 198t211.5 134.5t238.5 50t222.5 -50t165 -134.5t92.5 -198t4 -244.5t-90 -244.5t-163 -198t-212.5 -134.5t-238.5 -50q-123 0 -221.5 50t-164 134.5t-92.5 198t-4 244.5zM660 1398q5 -97 39.5 -178t88.5 -133.5t121.5 -75.5t144.5 -5 q74 18 138.5 70.5t110.5 128t70 169t19 190.5q-8 97 -42.5 176.5t-88 133.5t-122.5 75.5t-144 3.5q-77 -18 -140.5 -70.5t-110 -126.5t-69.5 -167.5t-15 -190.5z" />
<glyph unicode="&#xbb;" horiz-adv-x="1013" d="M218 182q-13 28 30.5 71.5t101 88.5t108.5 84.5t57 62.5q3 20 -34.5 66.5t-87.5 100t-96 103.5t-56 78q-13 31 2.5 87t46 114t71.5 104t79 54q26 5 62 -31t74 -93.5t75.5 -130.5t65.5 -139.5t43.5 -121.5t12.5 -76q-5 -20 -44.5 -66t-100 -100t-129.5 -109t-129 -93.5 t-102.5 -56.5t-49.5 3zM474 182q-13 28 30.5 71.5t101 88.5t108.5 84.5t57 62.5q3 20 -34.5 66.5t-87.5 100t-96 103.5t-56 78q-13 31 2.5 87t46 114t71.5 104t79 54q26 5 62 -31t74 -93.5t75.5 -130.5t65.5 -139.5t43.5 -121.5t12.5 -76q-3 -20 -43.5 -66t-101 -100 t-129.5 -109t-129 -93.5t-102.5 -56.5t-49.5 3z" />
<glyph unicode="&#xbc;" horiz-adv-x="2882" d="M160.5 919q6.5 18 26.5 33q15 10 52 43.5t87 77t106.5 91t111.5 87t102.5 65t77.5 25.5q44 0 89 -24t78 -64t51 -91t8 -102q-5 -33 -20.5 -128t-36 -218t-45 -258.5t-48.5 -252t-48.5 -198.5t-42.5 -97q-31 -23 -91 -18t-119 28t-103.5 61.5t-44.5 81.5q0 28 18 113 t43.5 195t53.5 229t46 218.5t22 165t-17 65.5q-33 0 -74 -18t-80.5 -42t-75.5 -50t-59 -44q-26 -18 -42.5 -16.5t-24 13t-1 29.5zM553 -340q205 238 403.5 479.5t376.5 463t330 408.5t265 315q110 128 173 189.5t82 68t-5.5 -36t-88.5 -119.5q-136 -164 -258.5 -314.5 t-245.5 -299t-249.5 -302.5t-267.5 -323q-166 -202 -266 -309.5t-156 -155.5q-67 -59 -93 -64zM1684.5 679.5q-2.5 75.5 31 152.5t84.5 148.5t112.5 135.5t115 112.5t92 77t43.5 33.5q10 10 27 11.5t27 -6.5t7.5 -23t-27.5 -41q-15 -13 -47.5 -41t-67 -73t-65 -109 t-46.5 -151q-13 -69 29.5 -126.5t115.5 -89.5t166.5 -31t182.5 55q23 108 46 210.5t45 183t41 133t32 62.5q26 18 79.5 20.5t107.5 -20.5t96 -72t45 -128q3 -54 -10 -158.5t-35 -232.5t-48.5 -264t-55 -251t-52.5 -194.5t-42 -94.5q-26 -23 -82.5 -20.5t-116.5 24t-107.5 60 t-52.5 89.5q0 18 4 61.5t13 102.5t21.5 131t28.5 151q-54 -54 -116.5 -92.5t-130.5 -56.5t-142.5 -7.5t-150.5 53.5q-105 59 -150 129.5t-47.5 146z" />
<glyph unicode="&#xbd;" horiz-adv-x="2682" d="M160.5 919q6.5 18 26.5 33q15 10 52 43.5t87 77t106.5 91t111.5 87t102.5 65t77.5 25.5q44 0 89 -24t78 -64t51 -91t8 -102q-5 -33 -20.5 -128t-36 -218t-45 -258.5t-48.5 -252t-48.5 -198.5t-42.5 -97q-31 -23 -91 -18t-119 28t-103.5 61.5t-44.5 81.5q0 28 18 113 t43.5 195t53.5 229t46 218.5t22 165t-17 65.5q-33 0 -74 -18t-80.5 -42t-75.5 -50t-59 -44q-26 -18 -42.5 -16.5t-24 13t-1 29.5zM558 -340q205 238 403.5 479.5t376.5 463t330 408.5t265 315q110 128 173 189.5t82 68t-5.5 -36t-88.5 -119.5q-136 -164 -258.5 -314.5 t-245.5 -299t-249.5 -302.5t-267.5 -323q-166 -202 -266 -309.5t-156 -155.5q-67 -59 -93 -64zM1577 180.5q0 52.5 12 70.5q10 18 37 25.5t85 19t151 34.5t237 74q108 38 175.5 103.5t99.5 140t33.5 151.5t-22 138t-68 99.5t-103.5 38.5q-87 0 -153.5 -20.5t-116.5 -47.5 t-83.5 -53.5t-48.5 -39.5q-28 -20 -43.5 -19t-20.5 12.5t-2.5 27t12.5 22.5q8 8 67 62t148.5 119t197 121.5t211 66.5t192 -43.5t139.5 -209.5q38 -110 21.5 -203.5t-69 -169t-131.5 -137t-167.5 -109t-178 -82t-161.5 -60t-118 -39.5t-48 -22q-5 -10 47.5 -15.5t133 -8 t176.5 -2.5t180.5 -1t146 -3.5t71.5 -10.5q15 -10 6 -46t-29.5 -77t-47 -79.5t-44.5 -56.5q-13 -10 -77 -17.5t-153.5 -12.5t-192 -6.5t-193.5 -1.5t-156 2.5t-78 7.5q-20 5 -37 50t-27 100t-10 107.5z" />
<glyph unicode="&#xbe;" horiz-adv-x="2941" d="M38.5 207.5q2.5 12.5 11.5 21.5t23 9t32 -18q10 -10 33 -32t61.5 -45t95 -39.5t138.5 -16.5q56 0 113.5 36t98.5 93.5t60 125.5t4 134q-13 31 -33.5 49t-40.5 28q-26 10 -49 15q-33 0 -55 8t-16 23q3 13 25.5 22t55.5 9q31 0 56.5 12.5t46 29.5t36 34.5t23.5 30.5 q36 64 39.5 130.5t-19.5 121.5t-65 91t-99 36q-82 0 -144.5 -16.5t-108.5 -39.5t-77 -45t-46 -32q-23 -18 -37 -18t-20.5 9t-2.5 23t14 22q5 5 37 32t83.5 65.5t118 80.5t139.5 74t148.5 47.5t143 2.5t124 -63t94.5 -147q36 -92 23.5 -167.5t-59 -138.5t-117 -114 t-149.5 -89q67 -38 119.5 -89.5t75.5 -115.5t9 -139.5t-81 -167.5q-95 -131 -194.5 -176t-194.5 -36t-178 55.5t-146 101.5t-101 99.5t-43 52.5q-8 8 -5.5 20.5zM611 -340q205 238 403.5 479.5t376.5 463t330 408.5t265 315q110 128 173 189.5t82 68t-5.5 -36t-88.5 -119.5 q-136 -164 -258.5 -314.5t-245.5 -299t-249.5 -302.5t-267.5 -323q-166 -202 -266 -309.5t-156 -155.5q-67 -59 -93 -64zM1735.5 679.5q-2.5 75.5 31 152.5t84.5 148.5t112.5 135.5t115 112.5t92 77t43.5 33.5q10 10 27 11.5t27 -6.5t7.5 -23t-27.5 -41q-15 -13 -47.5 -41 t-67 -73t-65 -109t-46.5 -151q-13 -69 29.5 -126.5t115.5 -89.5t166.5 -31t182.5 55q23 108 46 210.5t45 183t41 133t32 62.5q26 18 79.5 20.5t107.5 -20.5t96 -72t45 -128q3 -54 -10 -158.5t-35 -232.5t-48.5 -264t-55 -251t-52.5 -194.5t-42 -94.5q-26 -23 -82.5 -20.5 t-116.5 24t-107.5 60t-52.5 89.5q0 18 4 61.5t13 102.5t21.5 131t28.5 151q-54 -54 -116.5 -92.5t-130.5 -56.5t-142.5 -7.5t-150.5 53.5q-105 59 -150 129.5t-47.5 146z" />
<glyph unicode="&#xbf;" horiz-adv-x="1423" d="M-26 -238q20 195 97 320.5t174.5 202t197 115t163.5 59.5q102 36 181.5 98.5t136 133t87 138t33.5 111.5q0 44 13 63t25.5 19t23 -21t5.5 -59q-3 -31 -14.5 -103.5t-48.5 -158.5t-107.5 -166.5t-190.5 -123.5q-159 -59 -259 -184.5t-139.5 -279t-23 -315t89.5 -291 t201 -206t307 -63.5q138 13 240.5 55t174.5 99.5t119 123t73 121.5q-36 -20 -85 -26q-72 -8 -116.5 38.5t-39.5 112.5q10 72 64 124.5t126 60.5q72 5 115 -40t38 -116q0 -10 -2 -16v-16.5t-3 -19.5q-5 -64 -51 -154.5t-137 -176.5t-230.5 -151t-333.5 -81q-241 -20 -419 26 t-292 147t-162.5 253.5t-30.5 346.5zM952 1408q-13 -74 32 -126.5t121 -49.5q74 3 136 58t72 129q13 74 -33.5 125t-122.5 49q-74 -3 -133 -56.5t-72 -128.5z" />
<glyph unicode="&#xc0;" horiz-adv-x="3023" d="M-696 724q218 -46 508 -63.5t616 -17.5q95 154 189.5 307t184 299t172.5 280.5t155 249.5q169 271 320 515q-13 49 -18 94q-5 38 0 79.5t28 69.5q23 26 80.5 46.5t123 26.5t127 -4t92.5 -43q15 -18 26.5 -106.5t27 -228t41 -318.5t66.5 -379t105 -408.5t156 -405.5 q133 5 230.5 9t148.5 -2q133 -8 194.5 -55t69 -107t-33.5 -123t-115 -104q-56 -28 -238 -43q87 -118 202 -218q54 -46 67 -89.5t-18 -74t-106.5 -39.5t-193.5 14q-82 15 -185.5 116t-216.5 268q-197 -5 -423.5 -6.5t-454 2.5t-445.5 11.5t-399 20.5q-148 -253 -289.5 -487.5 t-257.5 -422.5t-197 -312.5t-111 -157.5q-44 -46 -80 -59t-56.5 0t-19 50t37.5 94q13 23 83 136.5t180.5 291.5t250 404.5t292.5 475.5q-79 5 -142 12.5t-106 15.5q-200 33 -326.5 96t-203.5 129q-90 74 -138 161zM594 645q333 5 662 19t613 30q-74 154 -138 325t-116.5 354 t-87.5 374t-47 380q-28 -41 -110 -179t-202.5 -339t-269 -450.5t-304.5 -513.5zM1362 3146q46 67 111.5 72t138.5 -27t148.5 -91t142 -123t120 -123t82.5 -90q15 -18 17.5 -42t-6.5 -43.5t-25.5 -24.5t-39.5 16q-15 15 -80.5 42t-152.5 64t-182 82t-166.5 93.5t-106 97 t-1.5 97.5z" />
<glyph unicode="&#xc1;" horiz-adv-x="3023" d="M-696 724q218 -46 508 -63.5t616 -17.5q95 154 189.5 307t184 299t172.5 280.5t155 249.5q169 271 320 515q-13 49 -18 94q-5 38 0 79.5t28 69.5q23 26 80.5 46.5t123 26.5t127 -4t92.5 -43q15 -18 26.5 -106.5t27 -228t41 -318.5t66.5 -379t105 -408.5t156 -405.5 q133 5 230.5 9t148.5 -2q133 -8 194.5 -55t69 -107t-33.5 -123t-115 -104q-56 -28 -238 -43q87 -118 202 -218q54 -46 67 -89.5t-18 -74t-106.5 -39.5t-193.5 14q-82 15 -185.5 116t-216.5 268q-197 -5 -423.5 -6.5t-454 2.5t-445.5 11.5t-399 20.5q-148 -253 -289.5 -487.5 t-257.5 -422.5t-197 -312.5t-111 -157.5q-44 -46 -80 -59t-56.5 0t-19 50t37.5 94q13 23 83 136.5t180.5 291.5t250 404.5t292.5 475.5q-79 5 -142 12.5t-106 15.5q-200 33 -326.5 96t-203.5 129q-90 74 -138 161zM594 645q333 5 662 19t613 30q-74 154 -138 325t-116.5 354 t-87.5 374t-47 380q-28 -41 -110 -179t-202.5 -339t-269 -450.5t-304.5 -513.5zM1376.5 2745.5q6.5 16.5 39.5 29.5q23 8 89.5 55t157.5 110t192 129.5t190.5 111t156.5 56.5t87 -32q28 -64 -8 -121.5t-112.5 -110t-179 -97.5t-203.5 -81t-188 -62.5t-134 -39.5 q-26 -8 -48.5 0t-34 22t-5 30.5z" />
<glyph unicode="&#xc2;" horiz-adv-x="3023" d="M-696 724q218 -46 508 -63.5t616 -17.5q95 154 189.5 307t184 299t172.5 280.5t155 249.5q169 271 320 515q-13 49 -18 94q-5 38 0 79.5t28 69.5q23 26 80.5 46.5t123 26.5t127 -4t92.5 -43q15 -18 26.5 -106.5t27 -228t41 -318.5t66.5 -379t105 -408.5t156 -405.5 q133 5 230.5 9t148.5 -2q133 -8 194.5 -55t69 -107t-33.5 -123t-115 -104q-56 -28 -238 -43q87 -118 202 -218q54 -46 67 -89.5t-18 -74t-106.5 -39.5t-193.5 14q-82 15 -185.5 116t-216.5 268q-197 -5 -423.5 -6.5t-454 2.5t-445.5 11.5t-399 20.5q-148 -253 -289.5 -487.5 t-257.5 -422.5t-197 -312.5t-111 -157.5q-44 -46 -80 -59t-56.5 0t-19 50t37.5 94q13 23 83 136.5t180.5 291.5t250 404.5t292.5 475.5q-79 5 -142 12.5t-106 15.5q-200 33 -326.5 96t-203.5 129q-90 74 -138 161zM594 645q333 5 662 19t613 30q-74 154 -138 325t-116.5 354 t-87.5 374t-47 380q-28 -41 -110 -179t-202.5 -339t-269 -450.5t-304.5 -513.5zM1283 2813q-18 10 6.5 50t73 92.5t112.5 111.5t126.5 109t114 82t71.5 32t70 -26t110.5 -65.5t123 -88t111.5 -97t77 -91t18 -68.5q-15 -36 -66.5 -67.5t-111.5 -52t-118 -26t-83 12.5 q-26 15 -65.5 69t-82 113t-81 105t-58.5 46t-67.5 -43.5t-101.5 -93.5t-104 -85.5t-75 -18.5z" />
<glyph unicode="&#xc3;" horiz-adv-x="3023" d="M-696 724q218 -46 508 -63.5t616 -17.5q95 154 189.5 307t184 299t172.5 280.5t155 249.5q169 271 320 515q-13 49 -18 94q-5 38 0 79.5t28 69.5q23 26 80.5 46.5t123 26.5t127 -4t92.5 -43q15 -18 26.5 -106.5t27 -228t41 -318.5t66.5 -379t105 -408.5t156 -405.5 q133 5 230.5 9t148.5 -2q133 -8 194.5 -55t69 -107t-33.5 -123t-115 -104q-56 -28 -238 -43q87 -118 202 -218q54 -46 67 -89.5t-18 -74t-106.5 -39.5t-193.5 14q-82 15 -185.5 116t-216.5 268q-197 -5 -423.5 -6.5t-454 2.5t-445.5 11.5t-399 20.5q-148 -253 -289.5 -487.5 t-257.5 -422.5t-197 -312.5t-111 -157.5q-44 -46 -80 -59t-56.5 0t-19 50t37.5 94q13 23 83 136.5t180.5 291.5t250 404.5t292.5 475.5q-79 5 -142 12.5t-106 15.5q-200 33 -326.5 96t-203.5 129q-90 74 -138 161zM594 645q333 5 662 19t613 30q-74 154 -138 325t-116.5 354 t-87.5 374t-47 380q-28 -41 -110 -179t-202.5 -339t-269 -450.5t-304.5 -513.5zM1205 2854.5q-13 7.5 2.5 30.5t77.5 64q133 87 240.5 111.5t193 13t153.5 -46t122 -65.5t97.5 -45t81.5 17q18 15 46 21.5t43.5 1.5t9 -23t-57.5 -51q-97 -74 -172.5 -94.5t-137 -12t-114 36.5 t-106.5 54q-113 49 -207.5 62t-161.5 -39q-33 -26 -65 -34.5t-45 -1z" />
<glyph unicode="&#xc4;" horiz-adv-x="3023" d="M-696 724q218 -46 508 -63.5t616 -17.5q95 154 189.5 307t184 299t172.5 280.5t155 249.5q169 271 320 515q-13 49 -18 94q-5 38 0 79.5t28 69.5q23 26 80.5 46.5t123 26.5t127 -4t92.5 -43q15 -18 26.5 -106.5t27 -228t41 -318.5t66.5 -379t105 -408.5t156 -405.5 q133 5 230.5 9t148.5 -2q133 -8 194.5 -55t69 -107t-33.5 -123t-115 -104q-56 -28 -238 -43q87 -118 202 -218q54 -46 67 -89.5t-18 -74t-106.5 -39.5t-193.5 14q-82 15 -185.5 116t-216.5 268q-197 -5 -423.5 -6.5t-454 2.5t-445.5 11.5t-399 20.5q-148 -253 -289.5 -487.5 t-257.5 -422.5t-197 -312.5t-111 -157.5q-44 -46 -80 -59t-56.5 0t-19 50t37.5 94q13 23 83 136.5t180.5 291.5t250 404.5t292.5 475.5q-79 5 -142 12.5t-106 15.5q-200 33 -326.5 96t-203.5 129q-90 74 -138 161zM594 645q333 5 662 19t613 30q-74 154 -138 325t-116.5 354 t-87.5 374t-47 380q-28 -41 -110 -179t-202.5 -339t-269 -450.5t-304.5 -513.5zM1344 2965q13 74 74.5 129t135.5 58t120.5 -50t33.5 -127t-72 -128t-135 -56q-74 -3 -120.5 48.5t-36.5 125.5zM1803 2965q13 74 74 129t136 58q74 3 120 -50t33 -127t-71.5 -128t-135.5 -56 q-74 -3 -120 48.5t-36 125.5z" />
<glyph unicode="&#xc5;" horiz-adv-x="3023" d="M-696 724q218 -46 508 -63.5t616 -17.5q95 154 189.5 307t184 299t172.5 280.5t155 249.5q169 271 320 515q-13 49 -18 94q-5 38 0 79.5t28 69.5q23 26 80.5 46.5t123 26.5t127 -4t92.5 -43q15 -18 26.5 -106.5t27 -228t41 -318.5t66.5 -379t105 -408.5t156 -405.5 q133 5 230.5 9t148.5 -2q133 -8 194.5 -55t69 -107t-33.5 -123t-115 -104q-56 -28 -238 -43q87 -118 202 -218q54 -46 67 -89.5t-18 -74t-106.5 -39.5t-193.5 14q-82 15 -185.5 116t-216.5 268q-197 -5 -423.5 -6.5t-454 2.5t-445.5 11.5t-399 20.5q-148 -253 -289.5 -487.5 t-257.5 -422.5t-197 -312.5t-111 -157.5q-44 -46 -80 -59t-56.5 0t-19 50t37.5 94q13 23 83 136.5t180.5 291.5t250 404.5t292.5 475.5q-79 5 -142 12.5t-106 15.5q-200 33 -326.5 96t-203.5 129q-90 74 -138 161zM594 645q333 5 662 19t613 30q-74 154 -138 325t-116.5 354 t-87.5 374t-47 380q-28 -41 -110 -179t-202.5 -339t-269 -450.5t-304.5 -513.5zM1500 3039q10 54 40 102.5t72 85.5t94.5 57.5t106.5 20.5t98.5 -20.5t75.5 -57.5t43.5 -85.5t2.5 -102.5t-39.5 -102.5t-72 -85.5t-95 -57.5t-105.5 -20.5q-54 0 -99 20.5t-75.5 57.5 t-43.5 85.5t-3 102.5zM1687 3019q-13 -72 20.5 -122t92.5 -50t110 50t64 122t-21.5 121.5t-93.5 49.5t-109 -49.5t-63 -121.5z" />
<glyph unicode="&#xc6;" horiz-adv-x="3502" d="M-354.5 -980.5q-11.5 12.5 13 50t93.5 93.5l834 1147q-38 3 -99.5 6.5t-125.5 7.5t-118 6.5t-74 7.5q-174 33 -262.5 96t-121.5 129q-41 74 -36 161q187 -46 466 -63.5t607 -17.5l1321 1651q18 49 43 94q20 38 51 79.5t72 69.5q26 18 92.5 20.5t147 -5t164 -22 t147.5 -29.5t94.5 -28t4.5 -18q-136 -28 -277.5 -146t-254.5 -320t-178 -480t-45 -623l-686 -617q-133 -5 -211 -6.5t-125.5 0t-78 4t-71.5 6t-106.5 10t-180.5 14.5l-929 -1219q-69 -46 -114 -58.5t-56.5 0zM986 645q110 0 189 2.5t139.5 5t111.5 5t107.5 8t127 9 t167.5 9.5q100 118 138 201t41 148t-20 122.5t-46.5 123t-36 146t9 194.5t91 267.5t209.5 363.5zM1359.5 -288q-35.5 193 18 413.5t206 456t418.5 462.5q-113 189 -120.5 370t57.5 339.5t189.5 290.5t276.5 226.5t317.5 147t313.5 52.5q138 0 230.5 -37t151 -94.5t87 -132 t37.5 -150t1 -143t-18 -116.5q0 -10 1.5 -19t-3.5 -22q-8 -46 -32.5 -85.5t-60 -70.5t-79 -47.5t-90.5 -16.5q-92 0 -145.5 64t-38.5 156q8 46 33.5 87t61.5 70.5t79.5 47.5t89.5 18q51 0 95 -23q3 69 -10.5 143t-59.5 133t-135.5 97.5t-237.5 38.5q-118 0 -220.5 -60 t-184.5 -157.5t-139.5 -221.5t-85.5 -254.5t-24.5 -253.5t48.5 -219t131 -153.5t221 -52.5q61 0 88 -18t23.5 -38.5t-35.5 -38.5t-86 -18q-195 0 -348.5 -70.5t-267.5 -184t-185.5 -259.5t-101 -298.5t-15.5 -298.5t74.5 -260t165.5 -184t256 -70q113 0 210 55t177.5 142 t144.5 192t110 203.5t75.5 179t39.5 116.5q15 54 36 78t36 19t19 -39.5t-14 -98.5q-13 -41 -48.5 -135.5t-94.5 -210t-139.5 -239.5t-183 -226.5t-224 -168t-260.5 -65.5q-225 0 -400.5 84.5t-285.5 229.5t-145.5 338z" />
<glyph unicode="&#xc7;" horiz-adv-x="2467" d="M123 342q-13 170 5 339t80.5 356t162.5 372.5t235.5 355.5t301 303.5t355 219t398.5 100.5q169 13 300 -11t227 -71.5t161 -113t102 -134.5t51 -138t9 -125q0 -20 -5 -47q0 -15 -2 -23q-5 -46 -25.5 -87t-54 -73t-75.5 -52.5t-89 -22.5q-90 -5 -148.5 54t-50.5 148 q5 46 26.5 87t55 73t74.5 52.5t87 23.5q59 5 102 -18q-20 69 -63.5 145.5t-124 138t-203.5 97.5t-302 23q-177 -13 -333 -142t-283 -330t-218 -454.5t-138 -513.5t-44.5 -505.5t64 -432.5t188 -295.5t328.5 -93.5q115 8 221.5 47.5t198.5 94.5t167.5 120.5t134.5 125.5 t96.5 108.5t52.5 71.5q31 46 60 65.5t44.5 14t10.5 -34.5t-41 -78q-26 -33 -73 -99.5t-117.5 -148.5t-166.5 -169t-219 -161.5t-272.5 -127t-326.5 -65.5t-319 37t-249.5 146t-181.5 230.5t-117.5 291t-56.5 326.5zM613 -1096q6 13 21.5 14t31 -2.5t15.5 -8.5t47 -20.5 t111 -19.5t125.5 18t87.5 91t-4 87t-79.5 16.5t-99.5 -9t-66 10.5q-15 18 3 56t45 80.5t52 78t28 48.5t37.5 17t73.5 6q46 3 102 0q-33 -38 -62 -71q-23 -28 -40.5 -60t-12.5 -53q3 -15 27 -7.5t56 20.5t66.5 23t61.5 -1.5t41 -50t1 -122.5t-61.5 -135.5t-117.5 -78.5 t-146 -33.5t-146 1.5t-120 24.5t-64 36.5q-20 31 -14 44z" />
<glyph unicode="&#xc8;" horiz-adv-x="2132" d="M31 -288q-36 193 17.5 413.5t206 456t418.5 462.5q-113 189 -120.5 370t58 339.5t189.5 290.5t276.5 226.5t317.5 147t314 52.5q138 0 230 -37t151 -94.5t87 -132t37 -150t1.5 -143t-18.5 -116.5q0 -10 1.5 -19t-3.5 -22q-8 -46 -32 -85.5t-60 -70.5t-79.5 -47.5 t-89.5 -16.5q-92 0 -146 64t-39 156q8 46 33.5 87t61.5 70.5t79.5 47.5t89.5 18q51 0 95 -23q3 69 -10 143t-59 133t-136 97.5t-238 38.5q-118 0 -220.5 -60t-184 -157.5t-139.5 -221.5t-86 -254.5t-24 -253.5t48.5 -219t130.5 -153.5t222 -52.5q61 0 88 -18t23 -38.5 t-36 -38.5t-86 -18q-195 0 -348 -70.5t-267 -184t-186 -259.5t-101.5 -298.5t-15 -298.5t74.5 -260t165 -184t256 -70q113 0 210 55t177.5 142t144.5 192t110.5 203.5t75.5 179t40 116.5q15 54 35.5 78t36 19t19 -39.5t-14.5 -98.5q-13 -41 -48.5 -135.5t-94.5 -210 t-139.5 -239.5t-183 -226.5t-224 -168t-259.5 -65.5q-225 0 -400.5 84.5t-285.5 229.5t-146 338zM1188 3082q46 67 111.5 72t138.5 -27t148.5 -91t142 -123t120 -123t82.5 -90q15 -18 17.5 -42t-6.5 -43.5t-25.5 -24.5t-39.5 16q-15 15 -80.5 42t-152.5 64t-182 82 t-166.5 93.5t-106 97t-1.5 97.5z" />
<glyph unicode="&#xc9;" horiz-adv-x="2132" d="M31 -288q-36 193 17.5 413.5t206 456t418.5 462.5q-113 189 -120.5 370t58 339.5t189.5 290.5t276.5 226.5t317.5 147t314 52.5q138 0 230 -37t151 -94.5t87 -132t37 -150t1.5 -143t-18.5 -116.5q0 -10 1.5 -19t-3.5 -22q-8 -46 -32 -85.5t-60 -70.5t-79.5 -47.5 t-89.5 -16.5q-92 0 -146 64t-39 156q8 46 33.5 87t61.5 70.5t79.5 47.5t89.5 18q51 0 95 -23q3 69 -10 143t-59 133t-136 97.5t-238 38.5q-118 0 -220.5 -60t-184 -157.5t-139.5 -221.5t-86 -254.5t-24 -253.5t48.5 -219t130.5 -153.5t222 -52.5q61 0 88 -18t23 -38.5 t-36 -38.5t-86 -18q-195 0 -348 -70.5t-267 -184t-186 -259.5t-101.5 -298.5t-15 -298.5t74.5 -260t165 -184t256 -70q113 0 210 55t177.5 142t144.5 192t110.5 203.5t75.5 179t40 116.5q15 54 35.5 78t36 19t19 -39.5t-14.5 -98.5q-13 -41 -48.5 -135.5t-94.5 -210 t-139.5 -239.5t-183 -226.5t-224 -168t-259.5 -65.5q-225 0 -400.5 84.5t-285.5 229.5t-146 338zM1230.5 2566.5q6.5 16.5 39.5 29.5q23 8 89.5 55t157.5 110t192 129.5t190.5 111t156.5 56.5t87 -32q28 -64 -8 -121.5t-112.5 -110t-179 -97.5t-203.5 -81t-188 -62.5 t-134 -39.5q-26 -8 -48.5 0t-34 22t-5 30.5z" />
<glyph unicode="&#xca;" horiz-adv-x="2132" d="M31 -288q-36 193 17.5 413.5t206 456t418.5 462.5q-113 189 -120.5 370t58 339.5t189.5 290.5t276.5 226.5t317.5 147t314 52.5q138 0 230 -37t151 -94.5t87 -132t37 -150t1.5 -143t-18.5 -116.5q0 -10 1.5 -19t-3.5 -22q-8 -46 -32 -85.5t-60 -70.5t-79.5 -47.5 t-89.5 -16.5q-92 0 -146 64t-39 156q8 46 33.5 87t61.5 70.5t79.5 47.5t89.5 18q51 0 95 -23q3 69 -10 143t-59 133t-136 97.5t-238 38.5q-118 0 -220.5 -60t-184 -157.5t-139.5 -221.5t-86 -254.5t-24 -253.5t48.5 -219t130.5 -153.5t222 -52.5q61 0 88 -18t23 -38.5 t-36 -38.5t-86 -18q-195 0 -348 -70.5t-267 -184t-186 -259.5t-101.5 -298.5t-15 -298.5t74.5 -260t165 -184t256 -70q113 0 210 55t177.5 142t144.5 192t110.5 203.5t75.5 179t40 116.5q15 54 35.5 78t36 19t19 -39.5t-14.5 -98.5q-13 -41 -48.5 -135.5t-94.5 -210 t-139.5 -239.5t-183 -226.5t-224 -168t-259.5 -65.5q-225 0 -400.5 84.5t-285.5 229.5t-146 338zM1232 2728q-18 10 6.5 50t73 92.5t112.5 111.5t126.5 109t114 82t71.5 32t70 -26t110.5 -65.5t123 -88t111.5 -97t77 -91t18 -68.5q-15 -36 -66.5 -67.5t-111.5 -52t-118 -26 t-83 12.5q-26 15 -65.5 69t-82 113t-81 105t-58.5 46t-67.5 -43.5t-101.5 -93.5t-104 -85.5t-75 -18.5z" />
<glyph unicode="&#xcb;" horiz-adv-x="2132" d="M31 -288q-36 193 17.5 413.5t206 456t418.5 462.5q-113 189 -120.5 370t58 339.5t189.5 290.5t276.5 226.5t317.5 147t314 52.5q138 0 230 -37t151 -94.5t87 -132t37 -150t1.5 -143t-18.5 -116.5q0 -10 1.5 -19t-3.5 -22q-8 -46 -32 -85.5t-60 -70.5t-79.5 -47.5 t-89.5 -16.5q-92 0 -146 64t-39 156q8 46 33.5 87t61.5 70.5t79.5 47.5t89.5 18q51 0 95 -23q3 69 -10 143t-59 133t-136 97.5t-238 38.5q-118 0 -220.5 -60t-184 -157.5t-139.5 -221.5t-86 -254.5t-24 -253.5t48.5 -219t130.5 -153.5t222 -52.5q61 0 88 -18t23 -38.5 t-36 -38.5t-86 -18q-195 0 -348 -70.5t-267 -184t-186 -259.5t-101.5 -298.5t-15 -298.5t74.5 -260t165 -184t256 -70q113 0 210 55t177.5 142t144.5 192t110.5 203.5t75.5 179t40 116.5q15 54 35.5 78t36 19t19 -39.5t-14.5 -98.5q-13 -41 -48.5 -135.5t-94.5 -210 t-139.5 -239.5t-183 -226.5t-224 -168t-259.5 -65.5q-225 0 -400.5 84.5t-285.5 229.5t-146 338zM1285 2811q13 74 74.5 129t135.5 58t120.5 -50t33.5 -127t-72 -128t-135 -56q-74 -3 -120.5 48.5t-36.5 125.5zM1744 2811q13 74 74 129t136 58q74 3 120 -50t33 -127 t-71.5 -128t-135.5 -56q-74 -3 -120 48.5t-36 125.5z" />
<glyph unicode="&#xcc;" horiz-adv-x="1205" d="M33 -740q0 102 19.5 284t50 411t70 491.5t84.5 523.5t92.5 507t91 442t80.5 327.5t65 165.5q51 67 119 97.5t125.5 12.5t92 -88.5t19.5 -203.5q-8 -67 -41 -223t-81.5 -375t-109 -484t-122 -551.5t-117.5 -579.5t-98.5 -566t-65.5 -511t-18 -415q-77 61 -133 164 q-51 87 -89.5 226.5t-33.5 344.5zM402 3139q46 67 111.5 72t138.5 -27t148.5 -91t142 -123t120 -123t82.5 -90q15 -18 17.5 -42t-6.5 -43.5t-25.5 -24.5t-39.5 16q-15 15 -80.5 42t-152.5 64t-182 82t-166.5 93.5t-106 97t-1.5 97.5z" />
<glyph unicode="&#xcd;" horiz-adv-x="1205" d="M33 -740q0 102 19.5 284t50 411t70 491.5t84.5 523.5t92.5 507t91 442t80.5 327.5t65 165.5q51 67 119 97.5t125.5 12.5t92 -88.5t19.5 -203.5q-8 -67 -41 -223t-81.5 -375t-109 -484t-122 -551.5t-117.5 -579.5t-98.5 -566t-65.5 -511t-18 -415q-77 61 -133 164 q-51 87 -89.5 226.5t-33.5 344.5zM608.5 2835.5q6.5 16.5 39.5 29.5q23 8 89.5 55t157.5 110t192 129.5t190.5 111t156.5 56.5t87 -32q28 -64 -8 -121.5t-112.5 -110t-179 -97.5t-203.5 -81t-188 -62.5t-134 -39.5q-26 -8 -48.5 0t-34 22t-5 30.5z" />
<glyph unicode="&#xce;" horiz-adv-x="1205" d="M33 -740q0 102 19.5 284t50 411t70 491.5t84.5 523.5t92.5 507t91 442t80.5 327.5t65 165.5q51 67 119 97.5t125.5 12.5t92 -88.5t19.5 -203.5q-8 -67 -41 -223t-81.5 -375t-109 -484t-122 -551.5t-117.5 -579.5t-98.5 -566t-65.5 -511t-18 -415q-77 61 -133 164 q-51 87 -89.5 226.5t-33.5 344.5zM440 2682q-18 10 6.5 50t73 92.5t112.5 111.5t126.5 109t114 82t71.5 32t70 -26t110.5 -65.5t123 -88t111.5 -97t77 -91t18 -68.5q-15 -36 -66.5 -67.5t-111.5 -52t-118 -26t-83 12.5q-26 15 -65.5 69t-82 113t-81 105t-58.5 46 t-67.5 -43.5t-101.5 -93.5t-104 -85.5t-75 -18.5z" />
<glyph unicode="&#xcf;" horiz-adv-x="1205" d="M33 -740q0 102 19.5 284t50 411t70 491.5t84.5 523.5t92.5 507t91 442t80.5 327.5t65 165.5q51 67 119 97.5t125.5 12.5t92 -88.5t19.5 -203.5q-8 -67 -41 -223t-81.5 -375t-109 -484t-122 -551.5t-117.5 -579.5t-98.5 -566t-65.5 -511t-18 -415q-77 61 -133 164 q-51 87 -89.5 226.5t-33.5 344.5zM419 2770q13 74 74.5 129t135.5 58t120.5 -50t33.5 -127t-72 -128t-135 -56q-74 -3 -120.5 48.5t-36.5 125.5zM878 2770q13 74 74 129t136 58q74 3 120 -50t33 -127t-71.5 -128t-135.5 -56q-74 -3 -120 48.5t-36 125.5z" />
<glyph unicode="&#xd0;" horiz-adv-x="2526" d="M-1188 2343.5q0 34.5 41 50.5q31 10 155 16.5t307 9t407 0t452 -5.5q535 -10 1198 -28q154 0 309 -60t290.5 -169t241.5 -260t161 -330t50 -380t-90.5 -413.5t-262.5 -427.5t-466 -420q-184 -133 -367 -203.5t-357 -93.5t-339.5 -5t-316.5 61q-8 -31 -27 -48.5 t-40.5 -16.5t-41 26.5t-24.5 84.5q-192 72 -348 166.5t-269 181.5q-133 102 -235 208q5 28 18 43q10 13 29 13t47 -28q20 -20 78 -79t153 -132t226.5 -150t300.5 -136q8 79 35 244.5t65 376.5t84.5 446.5t88.5 454.5t78 401t56 284q-261 0 -544 -9t-590 -9q-79 0 -160 24.5 t-151 61.5t-126.5 83t-86 89.5t-29.5 78zM-200 835q128 -13 258.5 -12t250 6.5t221.5 9.5t171 -4q69 -5 100 -55t32.5 -108t-24.5 -105t-67 -47h-171.5t-162 1t-164 1h-175.5q-110 0 -165 49t-78 107q-28 67 -26 157zM233 -223q115 -31 243 -48.5t274 -17.5q218 0 417.5 101 t362 265t279 370t170.5 416t36 403t-126 331q-97 123 -227.5 204t-289.5 128t-345.5 67.5t-396.5 25.5q-20 -110 -53.5 -296.5t-74.5 -410.5t-86 -463.5t-82 -453.5t-65 -379t-36 -242z" />
<glyph unicode="&#xd1;" horiz-adv-x="2378" d="M-597.5 1816.5q-16.5 19.5 21.5 65.5q26 31 78.5 91t119 120t144.5 107.5t157 57.5q151 18 267.5 -9t205 -83.5t151 -134.5t106.5 -162q100 -197 128 -466q77 238 207 427q56 79 128 156t164 137.5t204.5 97.5t248.5 37q108 0 179.5 -82t113.5 -223t57.5 -330t12 -401.5 t-23 -440.5t-47.5 -444.5t-62.5 -412t-66.5 -348t-59 -250t-42 -114.5q-36 -46 -93.5 -42.5t-111.5 57.5t-93.5 159t-39.5 261q136 671 199 1200q26 225 40 440.5t1 384.5t-56.5 272.5t-130.5 103.5q-177 0 -311 -125.5t-237.5 -330t-179 -467t-131 -538t-95 -540.5 t-71.5 -473.5t-60 -340.5t-61 -139q-67 -15 -97.5 15.5t-54 83t-47.5 115t-75 108.5q-23 23 -11.5 155t39.5 331.5t62.5 445.5t57.5 498t24.5 486.5t-38.5 412.5t-130.5 276.5t-252.5 77.5q-56 -8 -113.5 -38.5t-107.5 -69t-89.5 -78t-62.5 -65.5q-49 -51 -65.5 -31.5z M750 2449.5q-13 7.5 2.5 30.5t77.5 64q133 87 240.5 111.5t193 13t153.5 -46t122 -65.5t97.5 -45t81.5 17q18 15 46 21.5t43.5 1.5t9 -23t-57.5 -51q-97 -74 -172.5 -94.5t-137 -12t-114 36.5t-106.5 54q-113 49 -207.5 62t-161.5 -39q-33 -26 -65 -34.5t-45 -1z" />
<glyph unicode="&#xd2;" horiz-adv-x="2787" d="M148.5 303.5q-40.5 280.5 15.5 600.5q36 212 112.5 409t181.5 368.5t234.5 312.5t275.5 242t302 156t315 55q238 0 424.5 -121.5t306 -330t160 -490t-15.5 -601.5t-195.5 -600.5t-333 -489t-422.5 -330t-467 -121.5t-426 121.5t-307.5 330t-160 489zM522 850 q-3 -266 69 -487.5t197.5 -374t294 -223t363.5 -34.5t368 169t302 333t206 448t79 517q3 269 -69 490.5t-197 372.5t-294 221.5t-364 34.5t-367.5 -169t-302 -333t-206 -448t-79.5 -517zM1298 2983q46 67 111.5 72t138.5 -27t148.5 -91t142 -123t120 -123t82.5 -90 q15 -18 17.5 -42t-6.5 -43.5t-25.5 -24.5t-39.5 16q-15 15 -80.5 42t-152.5 64t-182 82t-166.5 93.5t-106 97t-1.5 97.5z" />
<glyph unicode="&#xd3;" horiz-adv-x="2787" d="M148.5 303.5q-40.5 280.5 15.5 600.5q36 212 112.5 409t181.5 368.5t234.5 312.5t275.5 242t302 156t315 55q238 0 424.5 -121.5t306 -330t160 -490t-15.5 -601.5t-195.5 -600.5t-333 -489t-422.5 -330t-467 -121.5t-426 121.5t-307.5 330t-160 489zM522 850 q-3 -266 69 -487.5t197.5 -374t294 -223t363.5 -34.5t368 169t302 333t206 448t79 517q3 269 -69 490.5t-197 372.5t-294 221.5t-364 34.5t-367.5 -169t-302 -333t-206 -448t-79.5 -517zM1299.5 2625.5q6.5 16.5 39.5 29.5q23 8 89.5 55t157.5 110t192 129.5t190.5 111 t156.5 56.5t87 -32q28 -64 -8 -121.5t-112.5 -110t-179 -97.5t-203.5 -81t-188 -62.5t-134 -39.5q-26 -8 -48.5 0t-34 22t-5 30.5z" />
<glyph unicode="&#xd4;" horiz-adv-x="2787" d="M148.5 303.5q-40.5 280.5 15.5 600.5q36 212 112.5 409t181.5 368.5t234.5 312.5t275.5 242t302 156t315 55q238 0 424.5 -121.5t306 -330t160 -490t-15.5 -601.5t-195.5 -600.5t-333 -489t-422.5 -330t-467 -121.5t-426 121.5t-307.5 330t-160 489zM522 850 q-3 -266 69 -487.5t197.5 -374t294 -223t363.5 -34.5t368 169t302 333t206 448t79 517q3 269 -69 490.5t-197 372.5t-294 221.5t-364 34.5t-367.5 -169t-302 -333t-206 -448t-79.5 -517zM1255 2580q-18 10 6.5 50t73 92.5t112.5 111.5t126.5 109t114 82t71.5 32t70 -26 t110.5 -65.5t123 -88t111.5 -97t77 -91t18 -68.5q-15 -36 -66.5 -67.5t-111.5 -52t-118 -26t-83 12.5q-26 15 -65.5 69t-82 113t-81 105t-58.5 46t-67.5 -43.5t-101.5 -93.5t-104 -85.5t-75 -18.5z" />
<glyph unicode="&#xd5;" horiz-adv-x="2787" d="M148.5 303.5q-40.5 280.5 15.5 600.5q36 212 112.5 409t181.5 368.5t234.5 312.5t275.5 242t302 156t315 55q238 0 424.5 -121.5t306 -330t160 -490t-15.5 -601.5t-195.5 -600.5t-333 -489t-422.5 -330t-467 -121.5t-426 121.5t-307.5 330t-160 489zM522 850 q-3 -266 69 -487.5t197.5 -374t294 -223t363.5 -34.5t368 169t302 333t206 448t79 517q3 269 -69 490.5t-197 372.5t-294 221.5t-364 34.5t-367.5 -169t-302 -333t-206 -448t-79.5 -517zM1106 2644.5q-13 7.5 2.5 30.5t77.5 64q133 87 240.5 111.5t193 13t153.5 -46 t122 -65.5t97.5 -45t81.5 17q18 15 46 21.5t43.5 1.5t9 -23t-57.5 -51q-97 -74 -172.5 -94.5t-137 -12t-114 36.5t-106.5 54q-113 49 -207.5 62t-161.5 -39q-33 -26 -65 -34.5t-45 -1z" />
<glyph unicode="&#xd6;" horiz-adv-x="2787" d="M148.5 303.5q-40.5 280.5 15.5 600.5q36 212 112.5 409t181.5 368.5t234.5 312.5t275.5 242t302 156t315 55q238 0 424.5 -121.5t306 -330t160 -490t-15.5 -601.5t-195.5 -600.5t-333 -489t-422.5 -330t-467 -121.5t-426 121.5t-307.5 330t-160 489zM522 850 q-3 -266 69 -487.5t197.5 -374t294 -223t363.5 -34.5t368 169t302 333t206 448t79 517q3 269 -69 490.5t-197 372.5t-294 221.5t-364 34.5t-367.5 -169t-302 -333t-206 -448t-79.5 -517zM1246 2778q13 74 74.5 129t135.5 58t120.5 -50t33.5 -127t-72 -128t-135 -56 q-74 -3 -120.5 48.5t-36.5 125.5zM1705 2778q13 74 74 129t136 58q74 3 120 -50t33 -127t-71.5 -128t-135.5 -56q-74 -3 -120 48.5t-36 125.5z" />
<glyph unicode="&#xd7;" horiz-adv-x="1167" d="M69 399q115 84 224 176.5t205 181t178 161.5t143 119t124 38.5t105.5 -41t55 -78.5t-20.5 -73q-74 -64 -142 -121.5t-136 -114t-137 -115t-146 -122.5q-92 -79 -174 -89.5t-143 7.5q-72 20 -136 71zM272.5 945q19.5 64 61.5 111t91 69t72 -6q102 -128 191.5 -238 t197.5 -241q64 -77 60 -156.5t-32 -145.5q-33 -77 -97 -149q-67 102 -144 193.5t-151 172t-135.5 149.5t-97.5 123t-16.5 118z" />
<glyph unicode="&#xd8;" horiz-adv-x="2787" d="M148.5 303.5q-40.5 280.5 15.5 600.5q36 212 112.5 409t181.5 368.5t234.5 312.5t275.5 242t302 156t315 55q238 0 424.5 -121.5t306 -330t160 -490t-15.5 -601.5t-195.5 -600.5t-333 -489t-422.5 -330t-467 -121.5t-426 121.5t-307.5 330t-160 489zM180 -463 q328 351 646 706.5t603 682t528.5 602t424.5 464.5q176 188 277 278.5t131.5 100.5t-9 -53t-141.5 -176q-218 -242 -414 -463.5t-393 -440.5t-399.5 -446t-428.5 -476q-266 -297 -426 -455.5t-250 -229.5q-107 -87 -149 -94zM522 850q-3 -266 69 -487.5t197.5 -374t294 -223 t363.5 -34.5t368 169t302 333t206 448t79 517q3 269 -69 490.5t-197 372.5t-294 221.5t-364 34.5t-367.5 -169t-302 -333t-206 -448t-79.5 -517z" />
<glyph unicode="&#xd9;" horiz-adv-x="2304" d="M99.5 210q2.5 248 31 510.5t68 509.5t82 464.5t70.5 376.5q8 38 54 101t108.5 124.5t133 112.5t125.5 67.5t84.5 -14t11.5 -130.5q-8 -38 -42.5 -185.5t-80.5 -363.5t-92 -478.5t-74.5 -531.5t-29.5 -522.5t42.5 -449t142 -314.5t270.5 -119q138 0 257 82t222.5 224 t192 330t161.5 400.5t132 439t105 441.5t79 409.5t56 343t34.5 241t14.5 104.5q5 31 16.5 44t23 10.5t19 -17t5.5 -37.5q-3 -8 -13 -109t-33 -266t-59 -384t-86 -462t-117.5 -499t-152 -496.5t-189.5 -455.5t-233 -375t-278 -253.5t-324 -93.5q-218 0 -361 97t-227.5 263.5 t-118 389.5t-31 471zM1183 3085q46 67 111.5 72t138.5 -27t148.5 -91t142 -123t120 -123t82.5 -90q15 -18 17.5 -42t-6.5 -43.5t-25.5 -24.5t-39.5 16q-15 15 -80.5 42t-152.5 64t-182 82t-166.5 93.5t-106 97t-1.5 97.5z" />
<glyph unicode="&#xda;" horiz-adv-x="2304" d="M99.5 210q2.5 248 31 510.5t68 509.5t82 464.5t70.5 376.5q8 38 54 101t108.5 124.5t133 112.5t125.5 67.5t84.5 -14t11.5 -130.5q-8 -38 -42.5 -185.5t-80.5 -363.5t-92 -478.5t-74.5 -531.5t-29.5 -522.5t42.5 -449t142 -314.5t270.5 -119q138 0 257 82t222.5 224 t192 330t161.5 400.5t132 439t105 441.5t79 409.5t56 343t34.5 241t14.5 104.5q5 31 16.5 44t23 10.5t19 -17t5.5 -37.5q-3 -8 -13 -109t-33 -266t-59 -384t-86 -462t-117.5 -499t-152 -496.5t-189.5 -455.5t-233 -375t-278 -253.5t-324 -93.5q-218 0 -361 97t-227.5 263.5 t-118 389.5t-31 471zM1222.5 2656.5q6.5 16.5 39.5 29.5q23 8 89.5 55t157.5 110t192 129.5t190.5 111t156.5 56.5t87 -32q28 -64 -8 -121.5t-112.5 -110t-179 -97.5t-203.5 -81t-188 -62.5t-134 -39.5q-26 -8 -48.5 0t-34 22t-5 30.5z" />
<glyph unicode="&#xdb;" horiz-adv-x="2304" d="M99.5 210q2.5 248 31 510.5t68 509.5t82 464.5t70.5 376.5q8 38 54 101t108.5 124.5t133 112.5t125.5 67.5t84.5 -14t11.5 -130.5q-8 -38 -42.5 -185.5t-80.5 -363.5t-92 -478.5t-74.5 -531.5t-29.5 -522.5t42.5 -449t142 -314.5t270.5 -119q138 0 257 82t222.5 224 t192 330t161.5 400.5t132 439t105 441.5t79 409.5t56 343t34.5 241t14.5 104.5q5 31 16.5 44t23 10.5t19 -17t5.5 -37.5q-3 -8 -13 -109t-33 -266t-59 -384t-86 -462t-117.5 -499t-152 -496.5t-189.5 -455.5t-233 -375t-278 -253.5t-324 -93.5q-218 0 -361 97t-227.5 263.5 t-118 389.5t-31 471zM1150 2713q-18 10 6.5 50t73 92.5t112.5 111.5t126.5 109t114 82t71.5 32t70 -26t110.5 -65.5t123 -88t111.5 -97t77 -91t18 -68.5q-15 -36 -66.5 -67.5t-111.5 -52t-118 -26t-83 12.5q-26 15 -65.5 69t-82 113t-81 105t-58.5 46t-67.5 -43.5 t-101.5 -93.5t-104 -85.5t-75 -18.5z" />
<glyph unicode="&#xdc;" horiz-adv-x="2304" d="M99.5 210q2.5 248 31 510.5t68 509.5t82 464.5t70.5 376.5q8 38 54 101t108.5 124.5t133 112.5t125.5 67.5t84.5 -14t11.5 -130.5q-8 -38 -42.5 -185.5t-80.5 -363.5t-92 -478.5t-74.5 -531.5t-29.5 -522.5t42.5 -449t142 -314.5t270.5 -119q138 0 257 82t222.5 224 t192 330t161.5 400.5t132 439t105 441.5t79 409.5t56 343t34.5 241t14.5 104.5q5 31 16.5 44t23 10.5t19 -17t5.5 -37.5q-3 -8 -13 -109t-33 -266t-59 -384t-86 -462t-117.5 -499t-152 -496.5t-189.5 -455.5t-233 -375t-278 -253.5t-324 -93.5q-218 0 -361 97t-227.5 263.5 t-118 389.5t-31 471zM1169 2755q13 74 74.5 129t135.5 58t120.5 -50t33.5 -127t-72 -128t-135 -56q-74 -3 -120.5 48.5t-36.5 125.5zM1628 2755q13 74 74 129t136 58q74 3 120 -50t33 -127t-71.5 -128t-135.5 -56q-74 -3 -120 48.5t-36 125.5z" />
<glyph unicode="&#xdd;" horiz-adv-x="2521" d="M430 -1170q-8 8 19 77t74.5 175t111.5 239.5t130 271.5q159 323 361 724q-179 553 -320 999q-61 189 -121 373.5t-107.5 334t-79.5 248.5t-40 116q-13 38 -5 63t27 33.5t46 0t50 -39.5q18 -23 51 -116.5t77 -232t92.5 -307.5t99.5 -344t99.5 -345.5t89.5 -311 t70.5 -236.5t42.5 -124q177 422 348.5 731.5t331.5 528.5t304.5 357.5t267.5 220.5t221.5 116.5t167.5 44.5q102 15 160 8.5t74.5 -27t-4 -48.5t-76.5 -59q-123 -15 -257.5 -121t-278 -276.5t-288 -392t-286.5 -467t-276.5 -504t-253.5 -503t-221.5 -462.5t-180.5 -384 t-126.5 -266t-61.5 -110q-33 -23 -85.5 -29.5t-104 -2.5t-92.5 16.5t-51 30.5zM1120.5 2031.5q6.5 16.5 39.5 29.5q23 8 89.5 55t157.5 110t192 129.5t190.5 111t156.5 56.5t87 -32q28 -64 -8 -121.5t-112.5 -110t-179 -97.5t-203.5 -81t-188 -62.5t-134 -39.5 q-26 -8 -48.5 0t-34 22t-5 30.5z" />
<glyph unicode="&#xde;" horiz-adv-x="1694" d="M-60 -712.5q-4 108.5 11.5 286.5t48.5 412t84.5 495t119 536.5t153.5 535t189.5 490t222.5 403.5t253.5 274t285.5 101q108 0 126 -83t-26 -219t-134.5 -307.5t-202 -350.5t-229.5 -349.5t-212 -300.5q-18 -102 -32 -197t-27 -177q51 102 124 216t167.5 210t208.5 157.5 t250 61.5q143 0 231.5 -52.5t130.5 -135.5t38.5 -188t-43.5 -210t-115.5 -199.5t-177.5 -158.5q-123 -77 -256 -115.5t-258.5 -54t-228 -14t-163.5 6.5q-8 -26 -22 -99t-32 -170t-37 -206t-39.5 -208.5t-38.5 -176.5t-34 -110q-36 -79 -76.5 -128t-81.5 -73.5t-81 -28 t-70 9.5q-23 8 -27 116.5zM509 471q33 -13 82 -22t108 -9t127 17t137 58q67 38 128 107t107 149.5t74 166.5t29.5 161.5t-28 129.5t-98.5 71q-56 15 -116.5 -10t-120.5 -76.5t-119 -119t-109 -138t-92 -137t-68 -112.5q-13 -77 -23 -137.5t-18 -98.5zM663 1393 q100 141 200 294.5t188 300.5t156 279t105 233t34.5 160t-56.5 59q-79 0 -147 -55t-128 -150t-111.5 -223t-93.5 -275t-79 -307t-68 -316z" />
<glyph unicode="&#xdf;" horiz-adv-x="1707" d="M25.5 45q2.5 150 23 339t68 385t127 384t196 336.5t276.5 242t372 98.5q282 8 452 -57t248 -179t73 -261.5t-76.5 -299.5t-198.5 -299.5t-293 -259.5q120 -59 174 -155t42.5 -203.5t-82 -211.5t-196 -175.5t-302 -98.5t-399.5 19q-38 15 -48.5 33t0 31t38.5 19.5t69 3.5 q41 -5 125.5 4t172.5 43.5t162.5 103.5t94.5 190q20 120 -15.5 176.5t-94.5 75.5t-121.5 15t-95.5 -4t-51 10.5t-19.5 23.5t16.5 25.5t56 17.5q18 3 87 59t160 147t187 205t173 234.5t118 234.5t18 202t-124.5 143t-308.5 55q-159 0 -260 -92t-162.5 -236.5t-92 -324 t-51 -351t-37.5 -316t-50 -223.5q-51 -120 -106 -214t-111.5 -155t-106.5 -86.5t-88 -5.5q-18 10 -29.5 106t-9 246z" />
<glyph unicode="&#xe0;" horiz-adv-x="1822" d="M60 337q1 101 39.5 212t115.5 225t189 219q123 113 243.5 169.5t233.5 76.5q100 18 185.5 11.5t143 -24.5t83 -42t10.5 -42q-20 -20 -34.5 -18t-40 13.5t-67.5 24.5t-119 13q-72 0 -151 -32t-153.5 -87t-137 -129.5t-101.5 -155.5q-59 -123 -65 -216.5t19.5 -159 t72.5 -98.5t94 -33q87 0 151 51t113.5 126.5t88 164t72 164t63 125.5t62.5 50t53.5 -55t38.5 -136t37 -177t50 -176.5t75.5 -135.5t114.5 -55q51 0 99.5 21.5t84.5 50.5q44 31 79 71l98 100q12 23 40 23q36 0 31 -36q0 -3 -27 -36t-74 -83t-112.5 -107.5t-141 -106t-160 -82 t-171.5 -33.5q-92 0 -154.5 60.5t-102.5 134.5t-58 137t-18 70q-5 -8 -53.5 -70.5t-125.5 -136.5t-175.5 -134.5t-203.5 -60.5q-113 0 -187 45t-111 122t-36 178zM584 1915q46 67 111.5 72t138.5 -27t148.5 -91t142 -123t120 -123t82.5 -90q15 -18 17.5 -42t-6.5 -43.5 t-25.5 -24.5t-39.5 16q-15 15 -80.5 42t-152.5 64t-182 82t-166.5 93.5t-106 97t-1.5 97.5z" />
<glyph unicode="&#xe1;" horiz-adv-x="1822" d="M60 337q1 101 39.5 212t115.5 225t189 219q123 113 243.5 169.5t233.5 76.5q100 18 185.5 11.5t143 -24.5t83 -42t10.5 -42q-20 -20 -34.5 -18t-40 13.5t-67.5 24.5t-119 13q-72 0 -151 -32t-153.5 -87t-137 -129.5t-101.5 -155.5q-59 -123 -65 -216.5t19.5 -159 t72.5 -98.5t94 -33q87 0 151 51t113.5 126.5t88 164t72 164t63 125.5t62.5 50t53.5 -55t38.5 -136t37 -177t50 -176.5t75.5 -135.5t114.5 -55q51 0 99.5 21.5t84.5 50.5q44 31 79 71l98 100q12 23 40 23q36 0 31 -36q0 -3 -27 -36t-74 -83t-112.5 -107.5t-141 -106t-160 -82 t-171.5 -33.5q-92 0 -154.5 60.5t-102.5 134.5t-58 137t-18 70q-5 -8 -53.5 -70.5t-125.5 -136.5t-175.5 -134.5t-203.5 -60.5q-113 0 -187 45t-111 122t-36 178zM685.5 1519.5q6.5 16.5 39.5 29.5q23 8 89.5 55t157.5 110t192 129.5t190.5 111t156.5 56.5t87 -32 q28 -64 -8 -121.5t-112.5 -110t-179 -97.5t-203.5 -81t-188 -62.5t-134 -39.5q-26 -8 -48.5 0t-34 22t-5 30.5z" />
<glyph unicode="&#xe2;" horiz-adv-x="1822" d="M60 337q1 101 39.5 212t115.5 225t189 219q123 113 243.5 169.5t233.5 76.5q100 18 185.5 11.5t143 -24.5t83 -42t10.5 -42q-20 -20 -34.5 -18t-40 13.5t-67.5 24.5t-119 13q-72 0 -151 -32t-153.5 -87t-137 -129.5t-101.5 -155.5q-59 -123 -65 -216.5t19.5 -159 t72.5 -98.5t94 -33q87 0 151 51t113.5 126.5t88 164t72 164t63 125.5t62.5 50t53.5 -55t38.5 -136t37 -177t50 -176.5t75.5 -135.5t114.5 -55q51 0 99.5 21.5t84.5 50.5q44 31 79 71l98 100q12 23 40 23q36 0 31 -36q0 -3 -27 -36t-74 -83t-112.5 -107.5t-141 -106t-160 -82 t-171.5 -33.5q-92 0 -154.5 60.5t-102.5 134.5t-58 137t-18 70q-5 -8 -53.5 -70.5t-125.5 -136.5t-175.5 -134.5t-203.5 -60.5q-113 0 -187 45t-111 122t-36 178zM594 1492q-18 10 6.5 50t73 92.5t112.5 111.5t126.5 109t114 82t71.5 32t70 -26t110.5 -65.5t123 -88 t111.5 -97t77 -91t18 -68.5q-15 -36 -66.5 -67.5t-111.5 -52t-118 -26t-83 12.5q-26 15 -65.5 69t-82 113t-81 105t-58.5 46t-67.5 -43.5t-101.5 -93.5t-104 -85.5t-75 -18.5z" />
<glyph unicode="&#xe3;" horiz-adv-x="1822" d="M60 337q1 101 39.5 212t115.5 225t189 219q123 113 243.5 169.5t233.5 76.5q100 18 185.5 11.5t143 -24.5t83 -42t10.5 -42q-20 -20 -34.5 -18t-40 13.5t-67.5 24.5t-119 13q-72 0 -151 -32t-153.5 -87t-137 -129.5t-101.5 -155.5q-59 -123 -65 -216.5t19.5 -159 t72.5 -98.5t94 -33q87 0 151 51t113.5 126.5t88 164t72 164t63 125.5t62.5 50t53.5 -55t38.5 -136t37 -177t50 -176.5t75.5 -135.5t114.5 -55q51 0 99.5 21.5t84.5 50.5q44 31 79 71l98 100q12 23 40 23q36 0 31 -36q0 -3 -27 -36t-74 -83t-112.5 -107.5t-141 -106t-160 -82 t-171.5 -33.5q-92 0 -154.5 60.5t-102.5 134.5t-58 137t-18 70q-5 -8 -53.5 -70.5t-125.5 -136.5t-175.5 -134.5t-203.5 -60.5q-113 0 -187 45t-111 122t-36 178zM535 1561.5q-13 7.5 2.5 30.5t77.5 64q133 87 240.5 111.5t193 13t153.5 -46t122 -65.5t97.5 -45t81.5 17 q18 15 46 21.5t43.5 1.5t9 -23t-57.5 -51q-97 -74 -172.5 -94.5t-137 -12t-114 36.5t-106.5 54q-113 49 -207.5 62t-161.5 -39q-33 -26 -65 -34.5t-45 -1z" />
<glyph unicode="&#xe4;" horiz-adv-x="1822" d="M60 337q1 101 39.5 212t115.5 225t189 219q123 113 243.5 169.5t233.5 76.5q100 18 185.5 11.5t143 -24.5t83 -42t10.5 -42q-20 -20 -34.5 -18t-40 13.5t-67.5 24.5t-119 13q-72 0 -151 -32t-153.5 -87t-137 -129.5t-101.5 -155.5q-59 -123 -65 -216.5t19.5 -159 t72.5 -98.5t94 -33q87 0 151 51t113.5 126.5t88 164t72 164t63 125.5t62.5 50t53.5 -55t38.5 -136t37 -177t50 -176.5t75.5 -135.5t114.5 -55q51 0 99.5 21.5t84.5 50.5q44 31 79 71l98 100q12 23 40 23q36 0 31 -36q0 -3 -27 -36t-74 -83t-112.5 -107.5t-141 -106t-160 -82 t-171.5 -33.5q-92 0 -154.5 60.5t-102.5 134.5t-58 137t-18 70q-5 -8 -53.5 -70.5t-125.5 -136.5t-175.5 -134.5t-203.5 -60.5q-113 0 -187 45t-111 122t-36 178zM637 1654q13 74 74.5 129t135.5 58t120.5 -50t33.5 -127t-72 -128t-135 -56q-74 -3 -120.5 48.5t-36.5 125.5z M1096 1654q13 74 74 129t136 58q74 3 120 -50t33 -127t-71.5 -128t-135.5 -56q-74 -3 -120 48.5t-36 125.5z" />
<glyph unicode="&#xe5;" horiz-adv-x="1822" d="M60 337q1 101 39.5 212t115.5 225t189 219q123 113 243.5 169.5t233.5 76.5q100 18 185.5 11.5t143 -24.5t83 -42t10.5 -42q-20 -20 -34.5 -18t-40 13.5t-67.5 24.5t-119 13q-72 0 -151 -32t-153.5 -87t-137 -129.5t-101.5 -155.5q-59 -123 -65 -216.5t19.5 -159 t72.5 -98.5t94 -33q87 0 151 51t113.5 126.5t88 164t72 164t63 125.5t62.5 50t53.5 -55t38.5 -136t37 -177t50 -176.5t75.5 -135.5t114.5 -55q51 0 99.5 21.5t84.5 50.5q44 31 79 71l98 100q12 23 40 23q36 0 31 -36q0 -3 -27 -36t-74 -83t-112.5 -107.5t-141 -106t-160 -82 t-171.5 -33.5q-92 0 -154.5 60.5t-102.5 134.5t-58 137t-18 70q-5 -8 -53.5 -70.5t-125.5 -136.5t-175.5 -134.5t-203.5 -60.5q-113 0 -187 45t-111 122t-36 178zM942 1692q10 54 40 102.5t72 85.5t94.5 57.5t106.5 20.5t98.5 -20.5t75.5 -57.5t43.5 -85.5t2.5 -102.5 t-39.5 -102.5t-72 -85.5t-95 -57.5t-105.5 -20.5q-54 0 -99 20.5t-75.5 57.5t-43.5 85.5t-3 102.5zM1129 1672q-13 -72 20.5 -122t92.5 -50t110 50t64 122t-21.5 121.5t-93.5 49.5t-109 -49.5t-63 -121.5z" />
<glyph unicode="&#xe6;" horiz-adv-x="2170" d="M42.5 337q1.5 101 39.5 212t115 225t190 219q123 113 243 169.5t233 76.5q100 18 167.5 19.5t104.5 -9t46 -28.5t-6 -36q-20 -20 -38 -25t-36 -2.5t-36 8.5t-41 9q-69 5 -148.5 -25.5t-155 -88t-138 -133.5t-101.5 -157q-59 -123 -65 -216.5t19.5 -159t73 -98.5t93.5 -33 q87 0 151 51t113.5 126.5t88 164t72 164t63 125.5t62.5 50l-218 -548q-82 -115 -171 -202q-79 -77 -179 -140t-208 -63q-113 0 -187 45t-111 122t-35.5 178zM906.5 410q-15.5 110 2.5 207q18 100 76.5 215t151 213.5t216.5 164t270 65.5q118 0 183 -34.5t92 -88.5t21.5 -118 t-25.5 -123q-26 -64 -86 -139.5t-135.5 -149.5t-154.5 -143t-143 -121q38 -82 103.5 -133t167.5 -51q74 0 169 31q79 28 189.5 88t243.5 183q20 23 35.5 25.5t23 -7.5t7.5 -25.5t-10 -25.5q-8 -8 -51.5 -45t-112.5 -87t-160 -106.5t-192 -103.5t-206 -78t-205 -31 q-151 0 -248 61.5t-152 154t-70.5 202.5zM1325 679.5q-9 -134.5 22 -249.5q61 46 136.5 106t143.5 125.5t120.5 131t70.5 121.5q26 79 20.5 134t-32.5 88.5t-72 49t-96 15.5q-87 0 -156 -78.5t-108.5 -193.5t-48.5 -249.5z" />
<glyph unicode="&#xe7;" horiz-adv-x="1336" d="M76.5 410q-15.5 110 2.5 207q18 100 77 215t151 213.5t216.5 164t270.5 65.5q82 0 146 -25.5t107.5 -68t64 -96t14.5 -110.5q-5 -41 -16.5 -82t-30.5 -76.5t-47 -62.5t-64 -42q-33 -18 -72 -18q-59 0 -92 39.5t-23 98.5t58.5 100t107.5 41q54 0 85 -36q3 26 0 69.5 t-23.5 85.5t-69 74t-138.5 32q-87 0 -153.5 -75.5t-106 -189.5t-48.5 -247t21.5 -247t103.5 -189.5t199 -75.5q74 0 169 31q79 28 189 88t243 183q20 23 35.5 25.5t23.5 -7.5t8 -25.5t-10 -25.5q-5 -8 -50 -45t-114 -87t-160 -106.5t-192 -103.5t-206 -78t-205 -31 q-151 0 -248.5 61.5t-152.5 154t-70.5 202.5zM296 -384q6 13 21.5 14t31 -2.5t15.5 -8.5t47 -20.5t111 -19.5t125.5 18t87.5 91t-4 87t-79.5 16.5t-99.5 -9t-66 10.5q-15 18 3 56t45 80.5t52 78t28 48.5t37.5 17t73.5 6q46 3 102 0q-33 -38 -62 -71q-23 -28 -40.5 -60 t-12.5 -53q3 -15 27 -7.5t56 20.5t66.5 23t61.5 -1.5t41 -50t1 -122.5t-61.5 -135.5t-117.5 -78.5t-146 -33.5t-146 1.5t-120 24.5t-64 36.5q-20 31 -14 44z" />
<glyph unicode="&#xe8;" horiz-adv-x="1336" d="M79.5 410q-15.5 110 2.5 207q18 100 77 215t151 213.5t216 164t270 65.5q118 0 183 -34.5t92 -88.5t22 -118t-25 -123q-26 -64 -86 -139.5t-135.5 -149.5t-155 -143t-143.5 -121q38 -82 103.5 -133t167.5 -51q74 0 169 31q79 28 189.5 88t243.5 183q20 23 35.5 25.5 t23 -7.5t7.5 -25.5t-10 -25.5q-5 -8 -50 -45t-114 -87t-160 -106.5t-192 -103.5t-206 -78t-205 -31q-151 0 -248 61.5t-152 154t-70.5 202.5zM343 1915q46 67 111.5 72t138.5 -27t148.5 -91t142 -123t120 -123t82.5 -90q15 -18 17.5 -42t-6.5 -43.5t-25.5 -24.5t-39.5 16 q-15 15 -80.5 42t-152.5 64t-182 82t-166.5 93.5t-106 97t-1.5 97.5zM498 679.5q-9 -134.5 22 -249.5q61 46 136.5 106t143.5 125.5t120.5 131t70.5 121.5q26 79 20.5 134t-32.5 88.5t-71.5 49t-95.5 15.5q-87 0 -156.5 -78.5t-109 -193.5t-48.5 -249.5z" />
<glyph unicode="&#xe9;" horiz-adv-x="1336" d="M79.5 410q-15.5 110 2.5 207q18 100 77 215t151 213.5t216 164t270 65.5q118 0 183 -34.5t92 -88.5t22 -118t-25 -123q-26 -64 -86 -139.5t-135.5 -149.5t-155 -143t-143.5 -121q38 -82 103.5 -133t167.5 -51q74 0 169 31q79 28 189.5 88t243.5 183q20 23 35.5 25.5 t23 -7.5t7.5 -25.5t-10 -25.5q-5 -8 -50 -45t-114 -87t-160 -106.5t-192 -103.5t-206 -78t-205 -31q-151 0 -248 61.5t-152 154t-70.5 202.5zM441.5 1519.5q6.5 16.5 39.5 29.5q23 8 89.5 55t157.5 110t192 129.5t190.5 111t156.5 56.5t87 -32q28 -64 -8 -121.5t-112.5 -110 t-179 -97.5t-203.5 -81t-188 -62.5t-134 -39.5q-26 -8 -48.5 0t-34 22t-5 30.5zM498 679.5q-9 -134.5 22 -249.5q61 46 136.5 106t143.5 125.5t120.5 131t70.5 121.5q26 79 20.5 134t-32.5 88.5t-71.5 49t-95.5 15.5q-87 0 -156.5 -78.5t-109 -193.5t-48.5 -249.5z" />
<glyph unicode="&#xea;" horiz-adv-x="1336" d="M79.5 410q-15.5 110 2.5 207q18 100 77 215t151 213.5t216 164t270 65.5q118 0 183 -34.5t92 -88.5t22 -118t-25 -123q-26 -64 -86 -139.5t-135.5 -149.5t-155 -143t-143.5 -121q38 -82 103.5 -133t167.5 -51q74 0 169 31q79 28 189.5 88t243.5 183q20 23 35.5 25.5 t23 -7.5t7.5 -25.5t-10 -25.5q-5 -8 -50 -45t-114 -87t-160 -106.5t-192 -103.5t-206 -78t-205 -31q-151 0 -248 61.5t-152 154t-70.5 202.5zM356 1492q-18 10 6.5 50t73 92.5t112.5 111.5t126.5 109t114 82t71.5 32t70 -26t110.5 -65.5t123 -88t111.5 -97t77 -91t18 -68.5 q-15 -36 -66.5 -67.5t-111.5 -52t-118 -26t-83 12.5q-26 15 -65.5 69t-82 113t-81 105t-58.5 46t-67.5 -43.5t-101.5 -93.5t-104 -85.5t-75 -18.5zM498 679.5q-9 -134.5 22 -249.5q61 46 136.5 106t143.5 125.5t120.5 131t70.5 121.5q26 79 20.5 134t-32.5 88.5t-71.5 49 t-95.5 15.5q-87 0 -156.5 -78.5t-109 -193.5t-48.5 -249.5z" />
<glyph unicode="&#xeb;" horiz-adv-x="1336" d="M79.5 410q-15.5 110 2.5 207q18 100 77 215t151 213.5t216 164t270 65.5q118 0 183 -34.5t92 -88.5t22 -118t-25 -123q-26 -64 -86 -139.5t-135.5 -149.5t-155 -143t-143.5 -121q38 -82 103.5 -133t167.5 -51q74 0 169 31q79 28 189.5 88t243.5 183q20 23 35.5 25.5 t23 -7.5t7.5 -25.5t-10 -25.5q-5 -8 -50 -45t-114 -87t-160 -106.5t-192 -103.5t-206 -78t-205 -31q-151 0 -248 61.5t-152 154t-70.5 202.5zM396 1654q13 74 74.5 129t135.5 58t120.5 -50t33.5 -127t-72 -128t-135 -56q-74 -3 -120.5 48.5t-36.5 125.5zM498 679.5 q-9 -134.5 22 -249.5q61 46 136.5 106t143.5 125.5t120.5 131t70.5 121.5q26 79 20.5 134t-32.5 88.5t-71.5 49t-95.5 15.5q-87 0 -156.5 -78.5t-109 -193.5t-48.5 -249.5zM855 1654q13 74 74 129t136 58q74 3 120 -50t33 -127t-71.5 -128t-135.5 -56q-74 -3 -120 48.5 t-36 125.5z" />
<glyph unicode="&#xec;" horiz-adv-x="1221" d="M20.5 376.5q-2.5 12.5 12.5 30.5q128 141 229.5 296t192 285.5t176.5 216t183 85.5q41 0 55 -46t10.5 -123t-20.5 -173t-35 -198t-30.5 -198t-12.5 -173t21.5 -123t73.5 -46q51 0 108.5 21.5t106.5 50.5q56 31 112 71l95 100q13 23 41 23q36 0 31 -36q0 -3 -29.5 -36 t-81 -83t-119 -107.5t-147 -106t-166.5 -82t-174 -33.5q-125 0 -184 65.5t-76 161.5t-3 210t33.5 210t33.5 161t-1 65q-44 -64 -103 -146t-114 -154.5t-94.5 -126.5t-47.5 -62q-15 -18 -33 -21.5t-29.5 3t-14 19zM284 1915q46 67 111.5 72t138.5 -27t148.5 -91t142 -123 t120 -123t82.5 -90q15 -18 17.5 -42t-6.5 -43.5t-25.5 -24.5t-39.5 16q-15 15 -80.5 42t-152.5 64t-182 82t-166.5 93.5t-106 97t-1.5 97.5z" />
<glyph unicode="&#xed;" horiz-adv-x="1221" d="M20.5 376.5q-2.5 12.5 12.5 30.5q128 141 229.5 296t192 285.5t176.5 216t183 85.5q41 0 55 -46t10.5 -123t-20.5 -173t-35 -198t-30.5 -198t-12.5 -173t21.5 -123t73.5 -46q51 0 108.5 21.5t106.5 50.5q56 31 112 71l95 100q13 23 41 23q36 0 31 -36q0 -3 -29.5 -36 t-81 -83t-119 -107.5t-147 -106t-166.5 -82t-174 -33.5q-125 0 -184 65.5t-76 161.5t-3 210t33.5 210t33.5 161t-1 65q-44 -64 -103 -146t-114 -154.5t-94.5 -126.5t-47.5 -62q-15 -18 -33 -21.5t-29.5 3t-14 19zM380.5 1519.5q6.5 16.5 39.5 29.5q23 8 89.5 55t157.5 110 t192 129.5t190.5 111t156.5 56.5t87 -32q28 -64 -8 -121.5t-112.5 -110t-179 -97.5t-203.5 -81t-188 -62.5t-134 -39.5q-26 -8 -48.5 0t-34 22t-5 30.5z" />
<glyph unicode="&#xee;" horiz-adv-x="1221" d="M20.5 376.5q2.5 -12.5 14 -19t29.5 -3t33 21.5q8 8 47.5 62t94.5 126.5t114 154.5t103 146q15 0 1 -65t-33.5 -161t-33.5 -210t3 -210t75.5 -161.5t184.5 -65.5q87 0 174 33.5t166.5 82t147 106t119 107.5t81 83.5t29.5 35.5q5 36 -31 36q-28 0 -41 -23l-95 -100 q-56 -41 -112 -71q-49 -28 -106.5 -50t-108.5 -22t-73 46t-22 123t12.5 173t30.5 198t35 198t20.5 173t-10.5 123t-55 46q-97 0 -183 -85.5t-176.5 -216t-192 -285.5t-229.5 -296q-15 -18 -12.5 -30.5zM425 1492q-18 10 6.5 50t73 92.5t112.5 111.5t126.5 109t114 82 t71.5 32t70.5 -26t110.5 -65.5t122.5 -88t111.5 -97t77 -91t18 -68.5q-15 -36 -66.5 -67.5t-111.5 -52t-118 -26t-83 12.5q-26 15 -65.5 69t-82 113t-80.5 105t-59 46q-20 0 -67.5 -43.5t-101.5 -93.5t-103.5 -85.5t-75.5 -18.5z" />
<glyph unicode="&#xef;" horiz-adv-x="1221" d="M20.5 376.5q-2.5 12.5 12.5 30.5q128 141 229.5 296t192 285.5t176.5 216t183 85.5q41 0 55 -46t10.5 -123t-20.5 -173t-35 -198t-30.5 -198t-12.5 -173t21.5 -123t73.5 -46q51 0 108.5 21.5t106.5 50.5q56 31 112 71l95 100q13 23 41 23q36 0 31 -36q0 -3 -29.5 -36 t-81 -83t-119 -107.5t-147 -106t-166.5 -82t-174 -33.5q-125 0 -184 65.5t-76 161.5t-3 210t33.5 210t33.5 161t-1 65q-44 -64 -103 -146t-114 -154.5t-94.5 -126.5t-47.5 -62q-15 -18 -33 -21.5t-29.5 3t-14 19zM410 1654q13 74 74 129t136 58q74 3 120 -50t33 -127 t-71.5 -128t-135.5 -56q-74 -3 -120 48.5t-36 125.5zM868 1654q13 74 74.5 129t135.5 58t120 -50t33 -127t-71.5 -128t-135.5 -56q-74 -3 -120 48.5t-36 125.5z" />
<glyph unicode="&#xf0;" horiz-adv-x="1482" d="M113 604q20 115 79 216.5t146 182t196 133t229 70.5q-23 31 -42.5 61.5t-39.5 58.5q-38 -13 -70 -22t-53 -14q-26 -8 -49 0t-33 22t-3.5 30.5t39.5 29.5q28 10 102 64q-31 51 -52.5 96t-29.5 78q-20 84 4.5 155t66.5 120.5t90.5 74t77.5 16.5q20 -5 76.5 -88t125.5 -206 q69 44 137 81t123 56t96 16.5t56 -33.5q20 -46 3.5 -90.5t-58.5 -85.5t-106 -79.5t-136 -71.5q41 -77 80.5 -155t74 -150t61.5 -132t45 -101q36 -74 50 -157.5t-4 -175.5q-23 -125 -92 -235t-171.5 -193.5t-228 -131t-258.5 -47.5t-240.5 47.5t-180.5 131t-103.5 193.5 t-7.5 235zM184 475q5 -86 38.5 -152.5t89.5 -110t133 -53.5q77 -8 154 19t143.5 80.5t117.5 131.5t77 171q28 92 9 189t-50 179q-38 95 -92 185q-82 13 -175.5 -23t-178 -102.5t-152.5 -155t-93 -180.5q-26 -92 -21 -178z" />
<glyph unicode="&#xf1;" horiz-adv-x="1843" d="M44 783q10 141 58 254q20 49 52.5 95t78.5 81.5t108.5 57.5t144.5 22q97 0 123 -50t4 -130.5t-79.5 -179t-126.5 -198.5q23 -77 51 -147.5t57.5 -124t58 -87t48.5 -33.5q23 0 65.5 70.5t97.5 175.5t116.5 228t124 227.5t121.5 175t105 70.5q56 0 81.5 -80.5t37 -199.5 t17 -260t22 -260t51 -199.5t103.5 -80.5q51 0 100 21.5t84 50.5q44 31 80 71l97 100q13 23 41 23q36 0 31 -36q0 -3 -27 -36t-74.5 -83t-112.5 -107.5t-140.5 -106t-160 -82t-171.5 -33.5q-95 0 -152.5 56.5t-87 139.5t-41 181.5t-15.5 182t-6.5 140t-17.5 56.5 q-23 0 -59 -56.5t-82 -140t-101 -182t-116.5 -181.5t-130.5 -139.5t-141 -56.5t-123 33.5t-85.5 90t-56.5 126.5t-35 145q-28 174 -17 396zM368.5 968.5q7.5 -75.5 28.5 -156.5q54 79 98.5 155.5t64 135.5t6.5 95t-74 36q-51 0 -81 -36t-40 -95t-2.5 -134.5zM545 1561.5 q-13 7.5 2.5 30.5t77.5 64q133 87 240.5 111.5t193 13t153.5 -46t122 -65.5t97.5 -45t81.5 17q18 15 46 21.5t43.5 1.5t9 -23t-57.5 -51q-97 -74 -172.5 -94.5t-137 -12t-114 36.5t-106.5 54q-113 49 -207.5 62t-161.5 -39q-33 -26 -65 -34.5t-45 -1z" />
<glyph unicode="&#xf2;" horiz-adv-x="1359" d="M74 617q23 131 89.5 244.5t162.5 198t211.5 134.5t238.5 50t222.5 -50t165 -134.5t92.5 -198t4 -244.5t-90 -244.5t-163 -198t-212.5 -134.5t-238.5 -50q-123 0 -221.5 50t-164 134.5t-92.5 198t-4 244.5zM356 1915q46 67 111.5 72t138.5 -27t148.5 -91t142 -123 t120 -123t82.5 -90q15 -18 17.5 -42t-6.5 -43.5t-25.5 -24.5t-39.5 16q-15 15 -80.5 42t-152.5 64t-182 82t-166.5 93.5t-106 97t-1.5 97.5zM471 589q5 -97 39.5 -178t88.5 -133.5t121.5 -75.5t144.5 -5q74 18 138.5 70.5t110.5 128t70 169t19 190.5q-8 97 -42.5 176.5 t-88 133.5t-122.5 75.5t-144 3.5q-77 -18 -140.5 -70.5t-110 -126.5t-69.5 -167.5t-15 -190.5z" />
<glyph unicode="&#xf3;" horiz-adv-x="1359" d="M74 617q23 131 89.5 244.5t162.5 198t211.5 134.5t238.5 50t222.5 -50t165 -134.5t92.5 -198t4 -244.5t-90 -244.5t-163 -198t-212.5 -134.5t-238.5 -50q-123 0 -221.5 50t-164 134.5t-92.5 198t-4 244.5zM452.5 1519.5q6.5 16.5 39.5 29.5q23 8 89.5 55t157.5 110 t192 129.5t190.5 111t156.5 56.5t87 -32q28 -64 -8 -121.5t-112.5 -110t-179 -97.5t-203.5 -81t-188 -62.5t-134 -39.5q-26 -8 -48.5 0t-34 22t-5 30.5zM471 589q5 -97 39.5 -178t88.5 -133.5t121.5 -75.5t144.5 -5q74 18 138.5 70.5t110.5 128t70 169t19 190.5 q-8 97 -42.5 176.5t-88 133.5t-122.5 75.5t-144 3.5q-77 -18 -140.5 -70.5t-110 -126.5t-69.5 -167.5t-15 -190.5z" />
<glyph unicode="&#xf4;" horiz-adv-x="1359" d="M74 617q23 131 89.5 244.5t162.5 198t211.5 134.5t238.5 50t222.5 -50t165 -134.5t92.5 -198t4 -244.5t-90 -244.5t-163 -198t-212.5 -134.5t-238.5 -50q-123 0 -221.5 50t-164 134.5t-92.5 198t-4 244.5zM366 1492q-18 10 6.5 50t73 92.5t112.5 111.5t126.5 109t114 82 t71.5 32t70 -26t110.5 -65.5t123 -88t111.5 -97t77 -91t18 -68.5q-15 -36 -66.5 -67.5t-111.5 -52t-118 -26t-83 12.5q-26 15 -65.5 69t-82 113t-81 105t-58.5 46t-67.5 -43.5t-101.5 -93.5t-104 -85.5t-75 -18.5zM471 589q5 -97 39.5 -178t88.5 -133.5t121.5 -75.5 t144.5 -5q74 18 138.5 70.5t110.5 128t70 169t19 190.5q-8 97 -42.5 176.5t-88 133.5t-122.5 75.5t-144 3.5q-77 -18 -140.5 -70.5t-110 -126.5t-69.5 -167.5t-15 -190.5z" />
<glyph unicode="&#xf5;" horiz-adv-x="1359" d="M74 617q23 131 89.5 244.5t162.5 198t211.5 134.5t238.5 50t222.5 -50t165 -134.5t92.5 -198t4 -244.5t-90 -244.5t-163 -198t-212.5 -134.5t-238.5 -50q-123 0 -221.5 50t-164 134.5t-92.5 198t-4 244.5zM307 1561.5q-13 7.5 2.5 30.5t77.5 64q133 87 240.5 111.5 t193 13t153.5 -46t122 -65.5t97.5 -45t81.5 17q18 15 46 21.5t43.5 1.5t9 -23t-57.5 -51q-97 -74 -172.5 -94.5t-137 -12t-114 36.5t-106.5 54q-113 49 -207.5 62t-161.5 -39q-33 -26 -65 -34.5t-45 -1zM471 589q5 -97 39.5 -178t88.5 -133.5t121.5 -75.5t144.5 -5 q74 18 138.5 70.5t110.5 128t70 169t19 190.5q-8 97 -42.5 176.5t-88 133.5t-122.5 75.5t-144 3.5q-77 -18 -140.5 -70.5t-110 -126.5t-69.5 -167.5t-15 -190.5z" />
<glyph unicode="&#xf6;" horiz-adv-x="1359" d="M74 617q23 131 89.5 244.5t162.5 198t211.5 134.5t238.5 50t222.5 -50t165 -134.5t92.5 -198t4 -244.5t-90 -244.5t-163 -198t-212.5 -134.5t-238.5 -50q-123 0 -221.5 50t-164 134.5t-92.5 198t-4 244.5zM471 589q5 -97 39.5 -178t88.5 -133.5t121.5 -75.5t144.5 -5 q74 18 138.5 70.5t110.5 128t70 169t19 190.5q-8 97 -42.5 176.5t-88 133.5t-122.5 75.5t-144 3.5q-77 -18 -140.5 -70.5t-110 -126.5t-69.5 -167.5t-15 -190.5zM473 1654q13 74 74.5 129t135.5 58t120.5 -50t33.5 -127t-72 -128t-135 -56q-74 -3 -120.5 48.5t-36.5 125.5z M932 1654q13 74 74 129t136 58q74 3 120 -50t33 -127t-71.5 -128t-135.5 -56q-74 -3 -120 48.5t-36 125.5z" />
<glyph unicode="&#xf7;" horiz-adv-x="537" d="M-138 835q131 -13 261.5 -12t249.5 6.5t221.5 9.5t171.5 -4q69 -5 99.5 -55t32 -108t-24 -105t-66.5 -47h-172t-162.5 1t-163.5 1h-176q-110 0 -166 49t-79 107q-28 67 -26 157zM185 353q13 74 74 129t136 58q74 3 118.5 -49.5t34.5 -127.5q-13 -74 -73 -127.5 t-134 -56.5t-121.5 48.5t-34.5 125.5zM297 993q13 74 74.5 129t135.5 58t120.5 -49.5t33.5 -127.5q-13 -74 -73 -127.5t-135 -56.5q-74 -3 -121.5 48.5t-34.5 125.5z" />
<glyph unicode="&#xf8;" horiz-adv-x="1359" d="M8 -257q165 195 325.5 392.5t304.5 378.5t267 334.5t214 257.5q89 105 140 155.5t66.5 55.5t-4.5 -29.5t-72 -97.5q-110 -134 -209 -257.5t-198.5 -245t-201.5 -247.5t-216 -264q-134 -166 -215 -254t-126 -127q-54 -48 -75 -52zM74 617q23 131 89.5 244.5t162.5 198 t211.5 134.5t238.5 50t222.5 -50t165 -134.5t92.5 -198t4 -244.5t-90 -244.5t-163 -198t-212.5 -134.5t-238.5 -50q-123 0 -221.5 50t-164 134.5t-92.5 198t-4 244.5zM471 589q5 -97 39.5 -178t88.5 -133.5t121.5 -75.5t144.5 -5q74 18 138.5 70.5t110.5 128t70 169 t19 190.5q-8 97 -42.5 176.5t-88 133.5t-122.5 75.5t-144 3.5q-77 -18 -140.5 -70.5t-110 -126.5t-69.5 -167.5t-15 -190.5z" />
<glyph unicode="&#xf9;" horiz-adv-x="1766" d="M73 556.5q-1 111.5 13 224t39 212.5q23 92 75.5 161.5t104 105t86 33t26.5 -48.5q-15 -82 -21.5 -181.5t-6.5 -201t10.5 -196t29.5 -167.5t49.5 -118t74.5 -45q82 0 151 70.5t126.5 177t106.5 230.5t91 230t78 176.5t69 70.5q56 0 82 -80.5t36 -199.5t16.5 -260t22 -260 t50 -199.5t103.5 -80.5q51 0 101 21.5t86 50.5q44 31 79 71l95 100q5 10 17.5 16.5t25.5 6.5q33 0 28 -36q0 -3 -26.5 -36t-74 -83t-111.5 -107.5t-141 -106t-160 -82t-170 -33.5q-95 0 -151 46t-84.5 115.5t-37.5 148.5t-11.5 148.5t-5 115.5t-17.5 46q-67 -174 -151 -310 q-36 -59 -78.5 -114t-88.5 -98.5t-97 -70.5t-105 -27q-90 0 -152.5 46t-102 124.5t-59 180.5t-20.5 213.5zM412 1915q46 67 111.5 72t138.5 -27t148.5 -91t142 -123t120 -123t82.5 -90q15 -18 17.5 -42t-6.5 -43.5t-25.5 -24.5t-39.5 16q-15 15 -80.5 42t-152.5 64t-182 82 t-166.5 93.5t-106 97t-1.5 97.5z" />
<glyph unicode="&#xfa;" horiz-adv-x="1766" d="M73 556.5q-1 111.5 13 224t39 212.5q23 92 75.5 161.5t104 105t86 33t26.5 -48.5q-15 -82 -21.5 -181.5t-6.5 -201t10.5 -196t29.5 -167.5t49.5 -118t74.5 -45q82 0 151 70.5t126.5 177t106.5 230.5t91 230t78 176.5t69 70.5q56 0 82 -80.5t36 -199.5t16.5 -260t22 -260 t50 -199.5t103.5 -80.5q51 0 101 21.5t86 50.5q44 31 79 71l95 100q5 10 17.5 16.5t25.5 6.5q33 0 28 -36q0 -3 -26.5 -36t-74 -83t-111.5 -107.5t-141 -106t-160 -82t-170 -33.5q-95 0 -151 46t-84.5 115.5t-37.5 148.5t-11.5 148.5t-5 115.5t-17.5 46q-67 -174 -151 -310 q-36 -59 -78.5 -114t-88.5 -98.5t-97 -70.5t-105 -27q-90 0 -152.5 46t-102 124.5t-59 180.5t-20.5 213.5zM657.5 1519.5q6.5 16.5 39.5 29.5q23 8 89.5 55t157.5 110t192 129.5t190.5 111t156.5 56.5t87 -32q28 -64 -8 -121.5t-112.5 -110t-179 -97.5t-203.5 -81 t-188 -62.5t-134 -39.5q-26 -8 -48.5 0t-34 22t-5 30.5z" />
<glyph unicode="&#xfb;" horiz-adv-x="1766" d="M73 556.5q-1 111.5 13 224t39 212.5q23 92 75.5 161.5t104 105t86 33t26.5 -48.5q-15 -82 -21.5 -181.5t-6.5 -201t10.5 -196t29.5 -167.5t49.5 -118t74.5 -45q82 0 151 70.5t126.5 177t106.5 230.5t91 230t78 176.5t69 70.5q56 0 82 -80.5t36 -199.5t16.5 -260t22 -260 t50 -199.5t103.5 -80.5q51 0 101 21.5t86 50.5q44 31 79 71l95 100q5 10 17.5 16.5t25.5 6.5q33 0 28 -36q0 -3 -26.5 -36t-74 -83t-111.5 -107.5t-141 -106t-160 -82t-170 -33.5q-95 0 -151 46t-84.5 115.5t-37.5 148.5t-11.5 148.5t-5 115.5t-17.5 46q-67 -174 -151 -310 q-36 -59 -78.5 -114t-88.5 -98.5t-97 -70.5t-105 -27q-90 0 -152.5 46t-102 124.5t-59 180.5t-20.5 213.5zM376 1492q-18 10 6.5 50t73 92.5t112.5 111.5t126.5 109t114 82t71.5 32t70 -26t110.5 -65.5t123 -88t111.5 -97t77 -91t18 -68.5q-15 -36 -66.5 -67.5t-111.5 -52 t-118 -26t-83 12.5q-26 15 -65.5 69t-82 113t-81 105t-58.5 46t-67.5 -43.5t-101.5 -93.5t-104 -85.5t-75 -18.5z" />
<glyph unicode="&#xfc;" horiz-adv-x="1766" d="M73 556.5q-1 111.5 13 224t39 212.5q23 92 75.5 161.5t104 105t86 33t26.5 -48.5q-15 -82 -21.5 -181.5t-6.5 -201t10.5 -196t29.5 -167.5t49.5 -118t74.5 -45q82 0 151 70.5t126.5 177t106.5 230.5t91 230t78 176.5t69 70.5q56 0 82 -80.5t36 -199.5t16.5 -260t22 -260 t50 -199.5t103.5 -80.5q51 0 101 21.5t86 50.5q44 31 79 71l95 100q5 10 17.5 16.5t25.5 6.5q33 0 28 -36q0 -3 -26.5 -36t-74 -83t-111.5 -107.5t-141 -106t-160 -82t-170 -33.5q-95 0 -151 46t-84.5 115.5t-37.5 148.5t-11.5 148.5t-5 115.5t-17.5 46q-67 -174 -151 -310 q-36 -59 -78.5 -114t-88.5 -98.5t-97 -70.5t-105 -27q-90 0 -152.5 46t-102 124.5t-59 180.5t-20.5 213.5zM417 1654q13 74 74.5 129t135.5 58t120.5 -50t33.5 -127t-72 -128t-135 -56q-74 -3 -120.5 48.5t-36.5 125.5zM876 1654q13 74 74 129t136 58q74 3 120 -50t33 -127 t-71.5 -128t-135.5 -56q-74 -3 -120 48.5t-36 125.5z" />
<glyph unicode="&#xfd;" horiz-adv-x="1461" d="M-116.5 -343q19.5 87 83.5 180.5t156 188t206 187t232 176.5q64 46 99.5 68t52.5 28.5t17 0t-11 -22.5q-23 -33 -94 -105l156 95q8 3 -27 -30.5t-81 -74.5q-54 -46 -125 -107q-102 -46 -199.5 -116.5t-170.5 -151.5t-115.5 -162.5t-38.5 -147t64 -106.5t191 -41 q136 0 234.5 43.5t169 121.5t117.5 183t78 228t50 256t37 269q-82 -115 -171 -205q-77 -77 -178 -139.5t-209 -62.5q-169 0 -248.5 82t-80.5 216.5t68 302t200 341.5q49 64 89.5 88.5t62.5 11.5t18 -61.5t-45 -130.5q-79 -159 -81.5 -269t35.5 -178t99.5 -98.5t107.5 -30.5 q84 0 151 55t117 138t89.5 180.5t73 180.5t64 138t63.5 55q23 0 40 -34.5t27 -90.5t15 -129t5 -148q3 -176 -12 -399q13 -297 -42.5 -510.5t-156.5 -354.5t-233 -215t-271.5 -94.5t-276.5 6t-244 90.5q-105 61 -141 139.5t-16.5 165.5zM503.5 1519.5q6.5 16.5 39.5 29.5 q23 8 89.5 55t157.5 110t192 129.5t190.5 111t156.5 56.5t87 -32q28 -64 -8 -121.5t-112.5 -110t-179 -97.5t-203.5 -81t-188 -62.5t-134 -39.5q-26 -8 -48.5 0t-34 22t-5 30.5z" />
<glyph unicode="&#xfe;" horiz-adv-x="1694" d="M-32 -551.5q-6 95.5 5.5 250.5t39.5 361t73 434t107.5 468.5t142 467t178 429t212.5 352t247 238t284 88.5q108 0 125.5 -83t-26 -219t-134 -307.5t-202 -350.5t-229.5 -349.5t-212 -300.5q-18 -102 -31 -197t-26 -177q51 102 124 216t166.5 210t207.5 157.5t250 61.5 q143 0 231.5 -52.5t130.5 -135.5t38.5 -188t-43.5 -210t-115.5 -200t-177.5 -159q-123 -77 -256 -115t-257.5 -53.5t-226.5 -14t-164 6.5q-13 -38 -25.5 -105t-26.5 -141t-31 -146t-40 -120q-36 -79 -77 -128t-81.5 -73t-80.5 -28t-71 9q-23 8 -29 103.5zM458 187 q33 -13 82 -22t109 -9t126.5 16.5t135.5 57.5q67 38 128.5 107.5t107.5 150t75.5 166.5t30.5 161.5t-28 129t-99 71.5q-56 15 -116 -10.5t-121.5 -76.5t-119 -119t-109 -138t-92.5 -137t-66 -113q-23 -154 -44 -235zM614 1108q100 141 200 294.5t187 301t156 279.5t105 233 t33.5 160t-56.5 59q-79 0 -147 -55.5t-128 -150t-110 -222.5t-93.5 -275t-79.5 -307t-67 -317z" />
<glyph unicode="&#xff;" horiz-adv-x="1461" d="M-116.5 -343q19.5 87 83.5 180.5t156 188t206 187t232 176.5q64 46 99.5 68t52.5 28.5t17 0t-11 -22.5q-23 -33 -94 -105l156 95q8 3 -27 -30.5t-81 -74.5q-54 -46 -125 -107q-102 -46 -199.5 -116.5t-170.5 -151.5t-115.5 -162.5t-38.5 -147t64 -106.5t191 -41 q136 0 234.5 43.5t169 121.5t117.5 183t78 228t50 256t37 269q-82 -115 -171 -205q-77 -77 -178 -139.5t-209 -62.5q-169 0 -248.5 82t-80.5 216.5t68 302t200 341.5q49 64 89.5 88.5t62.5 11.5t18 -61.5t-45 -130.5q-79 -159 -81.5 -269t35.5 -178t99.5 -98.5t107.5 -30.5 q84 0 151 55t117 138t89.5 180.5t73 180.5t64 138t63.5 55q23 0 40 -34.5t27 -90.5t15 -129t5 -148q3 -176 -12 -399q13 -297 -42.5 -510.5t-156.5 -354.5t-233 -215t-271.5 -94.5t-276.5 6t-244 90.5q-105 61 -141 139.5t-16.5 165.5zM460 1654q13 74 74.5 129t135.5 58 t120.5 -50t33.5 -127t-72 -128t-135 -56q-74 -3 -120.5 48.5t-36.5 125.5zM919 1654q13 74 74 129t136 58q74 3 120 -50t33 -127t-71.5 -128t-135.5 -56q-74 -3 -120 48.5t-36 125.5z" />
<glyph unicode="&#x152;" horiz-adv-x="3522" d="M148.5 303.5q-40.5 280.5 15.5 600.5q36 212 112.5 409t181.5 368.5t234.5 312.5t275.5 242t302 156t315 55q225 0 405.5 -110t299.5 -300.5t170 -449t18 -555.5h-87q5 41 6.5 82t3.5 84q3 269 -69 490.5t-197 372.5t-294 221.5t-364 34.5t-367.5 -169t-302 -333 t-206 -448t-79.5 -517q-3 -266 69 -487.5t197.5 -374t294 -223t363.5 -34.5q92 18 178 56.5t168 97.5l-44 -241q-164 -133 -343 -207t-363 -74q-238 0 -426 121.5t-307.5 330t-160 489zM1526 -288q-36 193 17.5 413.5t206 456t418.5 462.5q-113 189 -120.5 370t58 339.5 t189.5 290.5t276.5 226.5t317.5 147t314 52.5q138 0 230 -37t151 -94.5t87 -132t37 -150t1.5 -143t-17.5 -116.5q0 -10 1 -19t-4 -22q-8 -46 -32 -85.5t-60 -70.5t-79.5 -47.5t-89.5 -16.5q-92 0 -145.5 64t-38.5 156q8 46 33 87t61 70.5t79.5 47.5t89.5 18q51 0 95 -23 q3 69 -10 143t-59 133t-135.5 97.5t-238.5 38.5q-118 0 -220.5 -60t-184 -157.5t-139.5 -221.5t-86 -254.5t-24 -253.5t48.5 -219t130.5 -153.5t222 -52.5q61 0 88 -18t23 -38.5t-36 -38.5t-86 -18q-195 0 -348 -70.5t-267 -184t-186 -259.5t-101 -298.5t-15 -298.5t74 -260 t165 -184t256 -70q113 0 210 55t177.5 142t144.5 192t110.5 203.5t75.5 179t40 116.5q15 54 35.5 78t36 19t19 -39.5t-13.5 -98.5q-13 -41 -49 -135.5t-95 -210t-139.5 -239.5t-183 -226.5t-224 -168t-259.5 -65.5q-225 0 -400.5 84.5t-285.5 229.5t-146 338z" />
<glyph unicode="&#x153;" horiz-adv-x="2209" d="M74 617q23 131 89.5 244.5t162.5 198t211.5 134.5t238.5 50t222.5 -50t165 -134.5t92.5 -198t4 -244.5t-90 -244.5t-163 -198t-212.5 -134.5t-238.5 -50q-123 0 -221.5 50t-164 134.5t-92.5 198t-4 244.5zM471 589q5 -97 39.5 -178t88.5 -133.5t121.5 -75.5t144.5 -5 q74 18 138.5 70.5t110.5 128t70 169t19 190.5q-8 97 -42.5 176.5t-88 133.5t-122.5 75.5t-144 3.5q-77 -18 -140.5 -70.5t-110 -126.5t-69.5 -167.5t-15 -190.5zM955.5 410q-15.5 110 2.5 207q18 100 77 215t151 213.5t216 164t270 65.5q118 0 183 -34.5t92 -88.5t22 -118 t-25 -123q-26 -64 -86 -139.5t-135.5 -149.5t-155 -143t-143.5 -121q38 -82 103.5 -133t167.5 -51q74 0 169 31q79 28 189.5 88t243.5 183q20 23 35.5 25.5t23 -7.5t7.5 -25.5t-10 -25.5q-5 -8 -50 -45t-114 -87t-160 -106.5t-192 -103.5t-206 -78t-205 -31 q-151 0 -248 61.5t-152 154t-70.5 202.5zM1374 679.5q-9 -134.5 22 -249.5q61 46 136.5 106t143.5 125.5t120.5 131t70.5 121.5q26 79 20.5 134t-32.5 88.5t-71.5 49t-95.5 15.5q-87 0 -156.5 -78.5t-109 -193.5t-48.5 -249.5z" />
<glyph unicode="&#x178;" horiz-adv-x="2521" d="M430 -1170q-8 8 19 77t74.5 175t111.5 239.5t130 271.5q159 323 361 724q-179 553 -320 999q-61 189 -121 373.5t-107.5 334t-79.5 248.5t-40 116q-13 38 -5 63t27 33.5t46 0t50 -39.5q18 -23 51 -116.5t77 -232t92.5 -307.5t99.5 -344t99.5 -345.5t89.5 -311 t70.5 -236.5t42.5 -124q177 422 348.5 731.5t331.5 528.5t304.5 357.5t267.5 220.5t221.5 116.5t167.5 44.5q102 15 160 8.5t74.5 -27t-4 -48.5t-76.5 -59q-123 -15 -257.5 -121t-278 -276.5t-288 -392t-286.5 -467t-276.5 -504t-253.5 -503t-221.5 -462.5t-180.5 -384 t-126.5 -266t-61.5 -110q-33 -23 -85.5 -29.5t-104 -2.5t-92.5 16.5t-51 30.5zM1075 2166q13 74 74.5 129t135.5 58t120.5 -50t33.5 -127t-72 -128t-135 -56q-74 -3 -120.5 48.5t-36.5 125.5zM1534 2166q13 74 74 129t136 58q74 3 120 -50t33 -127t-71.5 -128t-135.5 -56 q-74 -3 -120 48.5t-36 125.5z" />
<glyph unicode="&#x2c6;" horiz-adv-x="1323" d="M420 1492q-18 10 6.5 50t73 92.5t112.5 111.5t126.5 109t114 82t71.5 32t70 -26t110.5 -65.5t123 -88t111.5 -97t77 -91t18 -68.5q-15 -36 -66.5 -67.5t-111.5 -52t-118 -26t-83 12.5q-26 15 -65.5 69t-82 113t-81 105t-58.5 46t-67.5 -43.5t-101.5 -93.5t-104 -85.5 t-75 -18.5z" />
<glyph unicode="&#x2dc;" horiz-adv-x="1707" d="M481 1561.5q-13 7.5 2.5 30.5t77.5 64q133 87 240.5 111.5t193 13t153.5 -46t122 -65.5t97.5 -45t81.5 17q18 15 46 21.5t43.5 1.5t9 -23t-57.5 -51q-97 -74 -172.5 -94.5t-137 -12t-114 36.5t-106.5 54q-113 49 -207.5 62t-161.5 -39q-33 -26 -65 -34.5t-45 -1z" />
<glyph unicode="&#x2000;" horiz-adv-x="1664" />
<glyph unicode="&#x2001;" horiz-adv-x="3329" />
<glyph unicode="&#x2002;" horiz-adv-x="1664" />
<glyph unicode="&#x2003;" horiz-adv-x="3329" />
<glyph unicode="&#x2004;" horiz-adv-x="1109" />
<glyph unicode="&#x2005;" horiz-adv-x="832" />
<glyph unicode="&#x2006;" horiz-adv-x="554" />
<glyph unicode="&#x2007;" horiz-adv-x="554" />
<glyph unicode="&#x2008;" horiz-adv-x="416" />
<glyph unicode="&#x2009;" horiz-adv-x="665" />
<glyph unicode="&#x200a;" horiz-adv-x="184" />
<glyph unicode="&#x2010;" d="M87 835q131 -13 261.5 -12t249.5 6.5t221.5 9.5t171.5 -4q69 -5 99.5 -55t32 -108t-24 -105t-66.5 -47h-172t-162.5 1t-163.5 1h-176q-110 0 -166 49t-79 107q-28 67 -26 157z" />
<glyph unicode="&#x2011;" d="M87 835q131 -13 261.5 -12t249.5 6.5t221.5 9.5t171.5 -4q69 -5 99.5 -55t32 -108t-24 -105t-66.5 -47h-172t-162.5 1t-163.5 1h-176q-110 0 -166 49t-79 107q-28 67 -26 157z" />
<glyph unicode="&#x2012;" d="M87 835q131 -13 261.5 -12t249.5 6.5t221.5 9.5t171.5 -4q69 -5 99.5 -55t32 -108t-24 -105t-66.5 -47h-172t-162.5 1t-163.5 1h-176q-110 0 -166 49t-79 107q-28 67 -26 157z" />
<glyph unicode="&#x2013;" d="M87 835q131 -13 261.5 -12t249.5 6.5t221.5 9.5t171.5 -4q69 -5 99.5 -55t32 -108t-24 -105t-66.5 -47h-172t-162.5 1t-163.5 1h-176q-110 0 -166 49t-79 107q-28 67 -26 157z" />
<glyph unicode="&#x2014;" d="M87 835q131 -13 261.5 -12t249.5 6.5t221.5 9.5t171.5 -4q69 -5 99.5 -55t32 -108t-24 -105t-66.5 -47h-172t-162.5 1t-163.5 1h-176q-110 0 -166 49t-79 107q-28 67 -26 157z" />
<glyph unicode="&#x2018;" horiz-adv-x="414" d="M233 1281.5q-5 34.5 8 72.5q13 61 44.5 120t70 109t75.5 88.5t61 59.5q23 20 46 21.5t35.5 -11.5t9 -36t-34.5 -51q-33 -31 -34.5 -76t3.5 -83q59 -20 80.5 -74t1.5 -121q-26 -74 -92.5 -118.5t-140.5 -32.5q-36 5 -64 23t-46 46.5t-23 63z" />
<glyph unicode="&#x2019;" horiz-adv-x="414" d="M287 1623q26 74 93.5 119t141.5 32q72 -10 110.5 -70t15.5 -135q-13 -61 -46.5 -121t-71.5 -110t-74 -87.5t-59 -57.5t-46 -21.5t-36 11.5t-10.5 36t33.5 51q36 31 36 75.5t-5 82.5q-56 20 -79 74t-3 121z" />
<glyph unicode="&#x201a;" horiz-adv-x="558" d="M230 338q23 74 91 119t142 32q36 -5 64.5 -23t46 -46t23 -62.5t-7.5 -73.5q-13 -61 -45 -121.5t-70.5 -110t-75.5 -87t-60 -57.5t-46 -21.5t-36 11t-10.5 35.5t33.5 52q36 31 37 75.5t-6 82.5q-56 20 -78 74t-2 121z" />
<glyph unicode="&#x201c;" horiz-adv-x="652" d="M197 1281.5q-5 34.5 8 72.5q13 61 45 120t70 109t75.5 88.5t60.5 59.5q23 20 46 21.5t35.5 -11.5t9 -36t-34.5 -51q-33 -31 -34.5 -76t3.5 -83q36 -15 62 -43q23 49 52.5 92t61.5 79t60 64t46 44q23 20 46 21.5t36 -11.5t9 -36t-35 -51q-33 -31 -34.5 -76t3.5 -83 q59 -20 80.5 -74t1.5 -121q-26 -74 -92 -118.5t-141 -32.5q-82 13 -117 77q-36 -41 -87.5 -62.5t-102.5 -14.5q-36 5 -64 23t-46 46.5t-23 63z" />
<glyph unicode="&#x201d;" horiz-adv-x="652" d="M251 1623q26 74 93.5 119t141.5 32q79 -13 116 -77q36 41 87 63t105 14q72 -10 110 -70t15 -135q-13 -61 -46 -121t-71.5 -110t-74.5 -87.5t-59 -57.5t-46 -21.5t-36 11.5t-10 36t33 51q36 31 36 75.5t-5 82.5q-33 15 -61 44q-23 -49 -52.5 -92.5t-60.5 -79t-59 -64 t-46 -43.5q-23 -20 -46 -21.5t-36 11.5t-10.5 36t33.5 51q36 31 36 75.5t-5 82.5q-56 20 -79 74t-3 121z" />
<glyph unicode="&#x201e;" horiz-adv-x="652" d="M18 302q26 74 93.5 119t141.5 32q79 -13 116 -77q36 41 87 63t105 14q72 -10 110 -70t15 -135q-13 -61 -46 -121t-71.5 -110t-74.5 -87.5t-59 -57.5t-46 -21.5t-36 11.5t-10 36t33 51q36 31 36 75.5t-5 83.5q-33 15 -61 43q-23 -49 -52.5 -92.5t-60.5 -79t-59 -64 t-46 -43.5q-23 -20 -46 -21.5t-36 11.5t-9 36t32 51q36 31 36 75.5t-5 83.5q-56 20 -79 73.5t-3 120.5z" />
<glyph unicode="&#x2022;" horiz-adv-x="896" d="M328 940q10 64 46 121.5t85.5 99.5t111 66.5t125.5 24.5t116.5 -24.5t87 -66.5t49 -99.5t3.5 -121.5q-13 -64 -46 -122t-83 -100t-111.5 -66.5t-125.5 -24.5t-116.5 24.5t-88 66.5t-51 100t-2.5 122z" />
<glyph unicode="&#x2026;" horiz-adv-x="1612" d="M218 412q13 74 74 129t136 58q74 3 118.5 -49.5t34.5 -127.5q-13 -74 -73 -127.5t-134 -56.5t-121.5 48.5t-34.5 125.5zM755 412q13 74 74.5 129t135.5 58t119 -49.5t35 -127.5q-13 -74 -73 -127.5t-135 -56.5q-74 -3 -121.5 48.5t-34.5 125.5zM1293 412q13 74 74 129 t136 58q74 3 119 -49.5t34 -127.5q-13 -74 -73 -127.5t-134 -56.5t-121.5 48.5t-34.5 125.5z" />
<glyph unicode="&#x202f;" horiz-adv-x="665" />
<glyph unicode="&#x2039;" horiz-adv-x="732" d="M161 602q3 20 39 74t87 121.5t112.5 139.5t120.5 129.5t106 92t73 29.5q36 -8 60 -54t33 -103.5t5.5 -112.5t-26.5 -86q-20 -28 -83 -78t-131 -102.5t-123 -98.5t-58 -67q-3 -15 14 -36.5t42.5 -50t55 -58t51.5 -59t31 -56t-7 -44.5q-13 -20 -48.5 -2.5t-81.5 57 t-96 93.5t-90 106.5t-65.5 98.5t-20.5 67z" />
<glyph unicode="&#x203a;" horiz-adv-x="732" d="M218 182q-13 28 30.5 71.5t101 88.5t108.5 84.5t57 62.5q3 20 -34.5 66.5t-87.5 100t-96 103.5t-56 78q-13 31 2.5 87t46 114t71.5 104t79 54q26 5 62 -31t74 -93.5t75.5 -130.5t65.5 -139.5t43.5 -121.5t12.5 -76q-5 -20 -44.5 -66t-100 -100t-129.5 -109t-129 -93.5 t-102.5 -56.5t-49.5 3z" />
<glyph unicode="&#x205f;" horiz-adv-x="832" />
<glyph unicode="&#x20ac;" horiz-adv-x="1354" d="M128 678q13 128 60.5 273t125.5 287t181.5 271t229 231.5t270 168t305.5 78.5q195 15 324.5 -31t205 -119t103.5 -156.5t20 -147.5q0 -13 -1 -20.5t-1 -14.5q0 -13 -3 -18q-5 -69 -61.5 -123t-125.5 -59t-113.5 41t-37.5 115q5 72 60 123t125 56q49 5 79 -13 q-15 54 -48.5 113t-96 106.5t-157.5 74t-233 16.5q-136 -10 -255 -108.5t-215 -253.5t-166.5 -348t-106 -391.5t-34.5 -387t49.5 -333t146 -227.5t251.5 -70q133 10 248 69t202 131.5t143.5 140.5t71.5 94q26 36 47.5 50t33 10t8 -25.5t-29.5 -60.5q-20 -26 -56 -77 t-91 -113.5t-128 -129t-166.5 -124.5t-208.5 -97.5t-251 -49.5q-205 -15 -347 75.5t-227.5 241.5t-117.5 345.5t-12 386.5zM238 681q131 -13 261.5 -11.5t250.5 6.5t221.5 9t170.5 -4q69 -5 101 -55t32 -107.5t-24.5 -105t-65.5 -47.5h-171.5t-162 1.5t-164 1.5h-175.5 q-110 0 -166.5 48.5t-79.5 107.5q-28 67 -28 156zM302 1039q131 -13 261.5 -11.5t249.5 6.5t221.5 9t171.5 -4q69 -5 99.5 -55t32 -107.5t-24 -105t-66.5 -47.5h-170.5t-161 1.5t-164 1.5h-175.5q-110 0 -166.5 48.5t-79.5 107.5q-28 67 -28 156z" />
<glyph unicode="&#x2122;" horiz-adv-x="1472" d="M82 1779q82 -18 208.5 -19t251 4t225.5 11.5t134 3.5t47.5 -14t17 -25.5t-8 -29.5t-28.5 -26q-13 -5 -50 -8.5t-89.5 -6t-117.5 -2.5t-129 2q-8 -36 -19.5 -110t-28 -162.5t-32 -183t-29.5 -174t-23 -134.5t-9 -65q0 -15 -5 -27t-11.5 -12t-11.5 13t-3 46q0 18 10.5 77 t23 137t29.5 169t31 174t26.5 151t17.5 101q-84 3 -157 6.5t-109 8.5q-49 8 -79.5 24.5t-48.5 32.5q-23 18 -33 38zM645 1738q74 0 119 -34.5t68 -75.5q28 -46 33 -107q18 61 51 107q28 41 75.5 75.5t116.5 34.5q54 0 75 -84q20 20 52 49.5t68 34.5q77 10 119 -11.5 t64 -58.5t27 -78t10 -69q3 -18 1.5 -67t-8 -110t-16.5 -129t-24 -127t-29.5 -102.5t-30.5 -53.5t-23 -2.5t-14.5 23t-13 32t-18.5 29.5q-10 8 0 64t25.5 135.5t28 169t8.5 163.5t-32 119t-94 35q-28 -5 -54 -27t-41 -35q15 -77 10 -188t-19 -217.5t-30.5 -184.5t-24.5 -85 q-18 -26 -52.5 2t-34.5 108q36 169 51 304q8 56 10.5 112.5t0 99t-13 69t-33.5 26.5q-59 0 -101 -55t-71.5 -138t-47.5 -179t-31 -180.5t-21.5 -141t-19.5 -58.5q-36 -8 -59 19t-12 63q56 215 74 354.5t9 222.5t-43.5 115t-83.5 32z" />
<glyph unicode="&#x25fc;" horiz-adv-x="1292" d="M0 0v1293h1293v-1293h-1293z" />
<glyph unicode="&#xfb01;" horiz-adv-x="2009" d="M-74 -772q-5 101 7.5 269t43.5 386.5t78 464.5t112.5 503t148.5 500.5t181.5 458.5t216.5 376.5t251 256t284 94.5q97 0 121.5 -68t-5 -179t-99.5 -258.5t-163.5 -306t-198.5 -320t-203 -299.5q26 20 51.5 35.5t53.5 30.5q59 33 137 18t151 -45.5t129.5 -61.5t71.5 -33 q15 0 25.5 6t19.5 12.5t16.5 8t15.5 -8.5t6.5 -24.5t-20.5 -40t-57.5 -68t-102.5 -106.5q-44 -44 -90 -46t-94.5 17t-97 51t-94.5 61.5t-87 47.5t-75 5q-28 -13 -51 -28t-36 -31q-46 -236 -84 -457t-67.5 -404t-49 -310t-29.5 -168q-33 -115 -76.5 -208.5t-93.5 -153.5 t-106.5 -84.5t-112.5 -1.5q-23 8 -28 109zM620 1129q97 141 195.5 292t184 295.5t153.5 275t102.5 229t32 156.5t-56.5 58q-100 0 -187 -109t-162.5 -291t-140.5 -417.5t-121 -488.5zM1116 851.5q23 47.5 84.5 121.5t136 144.5t150 121.5t123.5 51q41 0 55 -46t10.5 -123 t-20.5 -173t-34.5 -198t-30.5 -198t-13 -173t21.5 -123t73.5 -46q51 0 108.5 21.5t106.5 50.5q56 31 112 71l95 100q13 23 41 23q36 0 31 -36q0 -3 -29.5 -36t-81 -83t-119 -107.5t-147 -106t-166.5 -82t-174 -33.5q-125 0 -184 65.5t-76 161.5t-2.5 210t33.5 210t33 161 t-1 65q-105 -72 -132 -66.5t-4 53zM1421 1702q-15 -90 34.5 -151t139.5 -61t162.5 61.5t88.5 150.5q15 87 -36 148.5t-141 61.5t-161.5 -61.5t-86.5 -148.5z" />
<glyph unicode="&#xfb02;" horiz-adv-x="2224" d="M-74 -772q-5 101 7.5 269t43.5 386.5t78 464.5t112.5 503t148.5 500.5t181.5 458.5t216.5 376.5t251 256t284 94.5q97 0 121.5 -68t-5 -179t-99.5 -258.5t-163.5 -306t-198.5 -320t-203 -299.5q26 20 51.5 35.5t53.5 30.5q59 33 137 18t151 -45.5t129.5 -61.5t71.5 -33 q15 0 25.5 6t19.5 12.5t16.5 8t15.5 -8.5t6.5 -24.5t-20.5 -40t-57.5 -68t-102.5 -106.5q-44 -44 -90 -46t-94.5 17t-97 51t-94.5 61.5t-87 47.5t-75 5q-28 -13 -51 -28t-36 -31q-46 -236 -84 -457t-67.5 -404t-49 -310t-29.5 -168q-33 -115 -76.5 -208.5t-93.5 -153.5 t-106.5 -84.5t-112.5 -1.5q-23 8 -28 109zM620 1129q97 141 195.5 292t184 295.5t153.5 275t102.5 229t32 156.5t-56.5 58q-100 0 -187 -109t-162.5 -291t-140.5 -417.5t-121 -488.5zM1323.5 709q2.5 141 18 282t38.5 261q97 358 243 642q61 120 140.5 235.5t175.5 206.5 t210 146t245 55t167.5 -57.5t6 -152.5t-112.5 -215t-187 -246q-248 -294 -650 -670l-72 20q358 338 592 604q100 113 180.5 221.5t119 194.5t21.5 138.5t-111 52.5q-95 0 -183.5 -95t-164 -251t-134.5 -355.5t-96 -407t-51 -407t2.5 -356t65.5 -251t136 -94.5q41 -5 99 20 q51 20 123 73t164 160q10 13 24.5 14.5t24.5 -5t14 -19.5t-4 -25q-10 -13 -70.5 -83.5t-156.5 -148.5t-217.5 -141t-254.5 -63q-105 0 -173 59t-107.5 159t-53.5 229t-11.5 270z" />
</font>
</defs>
</svg>
